<?xml version="1.0" encoding="utf-8"?>
<!DOCTYPE svg PUBLIC "-//W3C//DTD SVG 1.1//EN" "http://www.w3.org/Graphics/SVG/1.1/DTD/svg11.dtd">
<svg version="1.1" xmlns="http://www.w3.org/2000/svg"  x="0px" y="0px" viewBox="0 0 1000 1000" enable-background="new 0 0 1000 1000" fill="#fff" xml:space="preserve">
<g><path d="M163.2,614.3C125.9,493.9,154.8,357.2,250,262c66.1-66.1,152.1-100.2,238.9-102.4l28.1-44.7c-6.3-0.3-12.7-0.4-19-0.4c-51.4,0-101.4,9.7-148.8,29c-49.1,19.9-93.1,49.1-130.8,86.9c-37.7,37.7-67,81.8-86.9,130.8c-19.2,47.4-29,97.5-29,148.8c0,48.9,8.8,96.5,26.2,141.9L163.2,614.3z"/><path d="M851.4,522.1c-2.2,86.7-36.4,172.8-102.4,238.9c-95.2,95.2-231.9,124.1-352.3,86.8l-37.5,34.5c45.3,17.4,93,26.2,141.9,26.2c51.4,0,101.4-9.7,148.8-29c49.1-19.9,93.1-49.1,130.8-86.9c37.7-37.7,67-81.8,86.9-130.8c19.2-47.4,29-97.5,29-148.8c0-6.4-0.2-12.7-0.5-19L851.4,522.1z"/><path d="M445,391.3c-26.9,46-34.1,124.4-34.1,124.4l23.2,23.2C460.4,495.5,541.6,404,541.6,404c75.3-84.8,114.1-58.5,114.1-58.5l49.7-49.7c-0.2-0.2-0.4-0.4-0.6-0.6c-39.9-39.9-39.9-104.5,0-144.4c39.9-39.9,104.5-39.9,144.4,0c0.2,0.2,0.4,0.4,0.6,0.6L989.4,11.8c-308-13.5-452.8,230.4-452.8,230.4c-119.8,8.6-249.4,137.2-249.4,137.2C371.3,362,445,391.3,445,391.3z"/><path d="M850.4,152.2c39.9,39.9,39.9,104.5,0,144.4c-39.9,39.9-104.5,39.9-144.4,0c-0.2-0.2-0.4-0.4-0.6-0.6l-49.7,49.7c0,0,26.3,38.8-58.5,114.1c0,0-91.5,81.2-134.9,107.5l23.2,23.2c0,0,78.4-7.1,124.4-34.1c0,0,29.3,73.7,11.9,157.7c0,0,128.7-129.6,137.2-249.4c0,0,243.9-144.8,230.4-452.8L849.7,151.6C849.9,151.8,850.2,152,850.4,152.2z"/><path d="M698.5,224.9c0,43.8,35.5,79.4,79.4,79.4c43.8,0,79.4-35.5,79.4-79.4c0-43.8-35.5-79.4-79.4-79.4C734.1,145.6,698.5,181.1,698.5,224.9z"/><path d="M415.6,585c49.7-29.7,120.6-85.8,157.8-118.1c92.6-80.5,71.8-105.4,68.5-108.4c-3-3.2-27.9-24.1-108.5,68.5c-32.3,37.2-88.4,108.1-118.1,157.8l-1,1c0.2-0.1,0.4-0.2,0.6-0.4c-0.1,0.2-0.2,0.4-0.4,0.6L415.6,585z"/><path d="M396.6,536.3L10,975.2l404.8-420.7L396.6,536.3z"/><path d="M444.2,583.9L23.5,988.7l438.9-386.6L444.2,583.9z"/></g>
</svg>