<?xml version="1.0" encoding="UTF-8" standalone="no"?>
<!-- Created with Inkscape (http://www.inkscape.org/) -->

<svg
   xmlns:dc="http://purl.org/dc/elements/1.1/"
   xmlns:cc="http://creativecommons.org/ns#"
   xmlns:rdf="http://www.w3.org/1999/02/22-rdf-syntax-ns#"
   xmlns:svg="http://www.w3.org/2000/svg"
   xmlns="http://www.w3.org/2000/svg"
   xmlns:xlink="http://www.w3.org/1999/xlink"
   xmlns:inkscape="http://www.inkscape.org/namespaces/inkscape"
   version="1.1"
   width="1419.9688"
   height="1211.064"
   id="svg2">
  <defs
     id="defs4">
    <linearGradient
       id="linearGradient6466">
      <stop
         id="stop6468"
         style="stop-color:#cccccc;stop-opacity:1"
         offset="0" />
      <stop
         id="stop6470"
         style="stop-color:#cccccc;stop-opacity:0"
         offset="1" />
    </linearGradient>
    <linearGradient
       id="linearGradient6432">
      <stop
         id="stop6434"
         style="stop-color:#ffffff;stop-opacity:1"
         offset="0" />
      <stop
         id="stop6436"
         style="stop-color:#ffffff;stop-opacity:0"
         offset="1" />
    </linearGradient>
    <inkscape:path-effect
       effect="spiro"
       id="path-effect6201" />
    <inkscape:path-effect
       effect="spiro"
       id="path-effect6197" />
    <inkscape:path-effect
       effect="spiro"
       id="path-effect6193" />
    <linearGradient
       id="linearGradient6145">
      <stop
         id="stop6147"
         style="stop-color:#ffffff;stop-opacity:1"
         offset="0" />
      <stop
         id="stop6149"
         style="stop-color:#ffffff;stop-opacity:0"
         offset="1" />
    </linearGradient>
    <inkscape:path-effect
       effect="spiro"
       id="path-effect5948" />
    <inkscape:path-effect
       effect="spiro"
       id="path-effect5916" />
    <inkscape:path-effect
       effect="spiro"
       id="path-effect4721" />
    <inkscape:path-effect
       effect="spiro"
       id="path-effect4717" />
    <inkscape:path-effect
       effect="spiro"
       id="path-effect4709" />
    <filter
       color-interpolation-filters="sRGB"
       id="filter4767">
      <feGaussianBlur
         id="feGaussianBlur4769"
         stdDeviation="2.7382356" />
    </filter>
    <radialGradient
       cx="590.20935"
       cy="411.26886"
       r="353.1492"
       fx="590.20935"
       fy="411.26886"
       id="radialGradient6151"
       xlink:href="#linearGradient6145"
       gradientUnits="userSpaceOnUse"
       gradientTransform="matrix(0.977961,0.45847396,-0.36104502,0.77013681,121.68855,-159.56122)" />
    <mask
       id="mask6207">
      <path
         d="m -386.55521,-832.91132 a 275.99722,245.77275 0 1 1 -551.99444,0 275.99722,245.77275 0 1 1 551.99444,0 z"
         transform="translate(-598.36717,56.937545)"
         id="path6209"
         style="fill:#ffffff;fill-opacity:1;stroke:none" />
    </mask>
    <clipPath
       id="clipPath6355">
      <path
         d="m 1905.733,776.14459 a 540.85913,357.92148 0 1 1 -1081.71823,0 540.85913,357.92148 0 1 1 1081.71823,0 z"
         transform="translate(-642.90851,82.38974)"
         id="path6357"
         style="fill:#ffffff;fill-opacity:1;stroke:none" />
    </clipPath>
    <filter
       color-interpolation-filters="sRGB"
       id="filter6397">
      <feGaussianBlur
         id="feGaussianBlur6399"
         stdDeviation="24.584223" />
    </filter>
    <filter
       x="-0.15000001"
       y="-0.15000001"
       width="1.3"
       height="1.3"
       color-interpolation-filters="sRGB"
       id="filter6407">
      <feTurbulence
         seed="5"
         baseFrequency="0.25 0.4"
         numOctaves="3"
         type="fractalNoise"
         id="feTurbulence6409" />
      <feColorMatrix
         values="1 0 0 0 0 0 1 0 0 0 0 0 1 0 0 0 0 0 1 0 "
         result="result5"
         id="feColorMatrix6411" />
      <feComposite
         in2="result5"
         operator="in"
         in="SourceGraphic"
         id="feComposite6413" />
      <feMorphology
         result="result3"
         radius="1.5"
         operator="dilate"
         id="feMorphology6415" />
      <feTurbulence
         seed="7"
         type="fractalNoise"
         baseFrequency="0.03"
         numOctaves="5"
         id="feTurbulence6417" />
      <feGaussianBlur
         result="result91"
         stdDeviation="0.5"
         id="feGaussianBlur6419" />
      <feDisplacementMap
         in2="result91"
         scale="27"
         xChannelSelector="R"
         yChannelSelector="G"
         in="result3"
         result="result4"
         id="feDisplacementMap6421" />
      <feComposite
         in2="result4"
         operator="arithmetic"
         k1="1.3"
         k2="0"
         k3="0.8"
         k4="0"
         in="result4"
         result="result2"
         id="feComposite6423" />
      <feBlend
         in2="result2"
         mode="screen"
         in="result2"
         id="feBlend6425" />
    </filter>
    <linearGradient
       x1="529.72382"
       y1="71.436989"
       x2="524.95154"
       y2="472.30902"
       id="linearGradient6438"
       xlink:href="#linearGradient6432"
       gradientUnits="userSpaceOnUse" />
    <linearGradient
       x1="529.72382"
       y1="71.436989"
       x2="524.95154"
       y2="472.30902"
       id="linearGradient6442"
       xlink:href="#linearGradient6432"
       gradientUnits="userSpaceOnUse"
       gradientTransform="translate(-598.36717,56.937545)" />
    <linearGradient
       x1="529.72382"
       y1="71.436989"
       x2="524.95154"
       y2="472.30902"
       id="linearGradient6446"
       xlink:href="#linearGradient6432"
       gradientUnits="userSpaceOnUse"
       gradientTransform="translate(-598.36717,56.937545)" />
    <linearGradient
       x1="529.72382"
       y1="71.436989"
       x2="524.95154"
       y2="472.30902"
       id="linearGradient6450"
       xlink:href="#linearGradient6432"
       gradientUnits="userSpaceOnUse"
       gradientTransform="translate(-598.36717,56.937545)" />
    <linearGradient
       x1="529.72382"
       y1="71.436989"
       x2="524.95154"
       y2="472.30902"
       id="linearGradient6454"
       xlink:href="#linearGradient6432"
       gradientUnits="userSpaceOnUse"
       gradientTransform="translate(-598.36717,56.937545)" />
    <linearGradient
       x1="529.72382"
       y1="71.436989"
       x2="524.95154"
       y2="472.30902"
       id="linearGradient6458"
       xlink:href="#linearGradient6432"
       gradientUnits="userSpaceOnUse"
       gradientTransform="translate(-576.0965,-162.58763)" />
    <linearGradient
       x1="404.05359"
       y1="777.73535"
       x2="394.509"
       y2="1003.6236"
       id="linearGradient6472"
       xlink:href="#linearGradient6466"
       gradientUnits="userSpaceOnUse" />
    <radialGradient
       cx="590.20935"
       cy="411.26886"
       r="353.1492"
       fx="590.20935"
       fy="411.26886"
       id="radialGradient6503"
       xlink:href="#linearGradient6145"
       gradientUnits="userSpaceOnUse"
       gradientTransform="matrix(0.977961,0.45847396,-0.36104502,0.77013681,121.68855,-159.56122)" />
    <linearGradient
       x1="529.72382"
       y1="71.436989"
       x2="524.95154"
       y2="472.30902"
       id="linearGradient6505"
       xlink:href="#linearGradient6432"
       gradientUnits="userSpaceOnUse"
       gradientTransform="translate(-576.0965,-162.58763)" />
    <linearGradient
       x1="404.05359"
       y1="777.73535"
       x2="394.509"
       y2="1003.6236"
       id="linearGradient6507"
       xlink:href="#linearGradient6466"
       gradientUnits="userSpaceOnUse" />
  </defs>
  <metadata
     id="metadata7">
    <rdf:RDF>
      <cc:Work
         rdf:about="">
        <dc:format>image/svg+xml</dc:format>
        <dc:type
           rdf:resource="http://purl.org/dc/dcmitype/StillImage" />
        <dc:title></dc:title>
      </cc:Work>
    </rdf:RDF>
  </metadata>
  <g
     transform="translate(837.49217,137.28272)"
     id="layer1">
    <g
       id="g6483">
      <path
         d="m -302.02396,968.29695 c 0,0 49.93424,25.45215 147.80535,-38.17829 97.871099,-63.63049 209.723791,-92.2642 349.53965,-28.63372 139.81587,63.63049 143.81062,98.62726 257.66067,60.44896 113.85007,-38.1783 113.85007,-38.1783 113.85007,-38.1783 l 1.99735,143.1686 -890.82678,6.363 1.99737,-108.17178 z"
         id="path6462"
         style="fill:#808080;stroke:#000000;stroke-width:1px;stroke-linecap:butt;stroke-linejoin:miter;stroke-opacity:1" />
      <g
         id="g6474">
        <path
           d="m 881.28226,459.58295 c 0,184.49627 -158.11029,334.06006 -353.1492,334.06006 -195.03892,0 -353.1492,-149.56379 -353.1492,-334.06006 0,-184.49628 158.11028,-334.06006 353.1492,-334.06006 195.03891,0 353.1492,149.56378 353.1492,334.06006 z"
           transform="translate(-576.0965,-162.58763)"
           id="path6141"
           style="fill:#b3b3b3;fill-opacity:1;stroke:none" />
        <path
           d="m 881.28226,459.58295 c 0,184.49627 -158.11029,334.06006 -353.1492,334.06006 -195.03892,0 -353.1492,-149.56379 -353.1492,-334.06006 0,-184.49628 158.11028,-334.06006 353.1492,-334.06006 195.03891,0 353.1492,149.56378 353.1492,334.06006 z"
           transform="matrix(0.26025567,0.02133565,0.0075327,0.17537812,-268.41309,450.73268)"
           id="path6403"
           style="fill:#4d4d4d;fill-opacity:1;stroke:none;filter:url(#filter6397)" />
        <path
           d="m 881.28226,459.58295 c 0,184.49627 -158.11029,334.06006 -353.1492,334.06006 -195.03892,0 -353.1492,-149.56379 -353.1492,-334.06006 0,-184.49628 158.11028,-334.06006 353.1492,-334.06006 195.03891,0 353.1492,149.56378 353.1492,334.06006 z"
           transform="matrix(0.39555208,0.29858614,-0.08828201,0.20476552,-47.673888,-131.37924)"
           id="path6359"
           style="fill:#4d4d4d;fill-opacity:1;stroke:none;filter:url(#filter6397)" />
        <path
           d="m 881.28226,459.58295 c 0,184.49627 -158.11029,334.06006 -353.1492,334.06006 -195.03892,0 -353.1492,-149.56379 -353.1492,-334.06006 0,-184.49628 158.11028,-334.06006 353.1492,-334.06006 195.03891,0 353.1492,149.56378 353.1492,334.06006 z"
           transform="matrix(0.05623917,0.18707691,-0.12006297,0.05314833,-281.78056,115.53839)"
           id="path6401"
           style="fill:#4d4d4d;fill-opacity:1;stroke:none;filter:url(#filter6397)" />
        <path
           d="m 881.28226,459.58295 c 0,184.49627 -158.11029,334.06006 -353.1492,334.06006 -195.03892,0 -353.1492,-149.56379 -353.1492,-334.06006 0,-184.49628 158.11028,-334.06006 353.1492,-334.06006 195.03891,0 353.1492,149.56378 353.1492,334.06006 z"
           transform="translate(-576.0965,-162.58763)"
           id="path6143"
           style="fill:url(#radialGradient6503);fill-opacity:1;stroke:none;filter:url(#filter6407)" />
        <path
           d="m 881.28226,459.58295 c 0,184.49627 -158.11029,334.06006 -353.1492,334.06006 -195.03892,0 -353.1492,-149.56379 -353.1492,-334.06006 0,-184.49628 158.11028,-334.06006 353.1492,-334.06006 195.03891,0 353.1492,149.56378 353.1492,334.06006 z"
           transform="matrix(0.11779759,0.31600237,-0.36597485,0.09840379,51.656495,63.976322)"
           id="path6405"
           style="fill:#b3b3b3;fill-opacity:1;stroke:none;filter:url(#filter6397)" />
        <path
           d="m -52.29183,-29.056428 c -119.46371,0.25109 -238.11787,64.57956 -298.09589,168.739788 -23.65708,40.68045 -38.44066,86.46311 -41.87286,133.47896 74.43071,-20.44718 154.80419,-12.12332 226.32202,15.30175 85.49116,27.54707 172.2585202,56.94822 262.86548,59.8545 45.157,0.64692 92.50415,-10.1112 127.12177,-40.63376 25.93767,-21.72462 46.82197,-48.42311 65.84698,-76.11624 -0.63143,-9.23789 -4.72808,-17.93871 -6.70738,-26.98483 C 251.47099,102.08046 165.33482,19.963072 63.232481,-11.803578 26.057793,-23.770228 -13.145171,-29.528568 -52.29183,-29.056428 z"
           id="path6427"
           style="fill:url(#linearGradient6505);fill-opacity:1;stroke:none;filter:url(#filter6407)" />
      </g>
      <path
         d="m 670.38839,1521.6816 c 0,-2.9014 1.70048,-3.3753 2.3811,-0.6637 0.51388,2.0478 0.0464,3.0986 -1.37839,3.0986 -0.682,0 -1.00271,-0.7787 -1.00271,-2.4349 z m 308.91406,-228.8803 c 0,-0.5739 0.31306,-1.0435 0.69592,-1.0435 0.38262,0 0.69568,0.4696 0.69568,1.0435 0,0.574 -0.31306,1.0435 -0.69568,1.0435 -0.38286,0 -0.69592,-0.4695 -0.69592,-1.0435 z m -164.89318,-2.0059 c 0,-1.1745 2.51791,-1.9134 4.67523,-1.372 2.92489,0.734 1.86606,2.3344 -1.54442,2.3344 -2.20184,0 -3.13081,-0.2856 -3.13081,-0.9624 z m 166.98047,0 c 0,-1.0547 2.06502,-1.7961 5.04418,-1.8108 1.05233,-0.01 1.91336,-0.3226 1.91336,-0.7052 0,-0.4065 2.34098,-0.6957 5.6311,-0.6957 5.04603,0 5.66914,-0.1445 5.99518,-1.3914 0.33114,-1.2666 0.94894,-1.3914 6.89234,-1.3914 5.1771,0 6.5286,0.2046 6.5286,0.9883 0,0.5435 -0.9394,1.1945 -2.0873,1.4466 -1.1481,0.2522 -2.0873,0.7467 -2.0873,1.0989 0,0.3522 -1.0959,0.6404 -2.4351,0.6404 -1.9714,0 -2.4352,0.265 -2.4352,1.3913 0,1.3352 -0.464,1.3914 -11.47991,1.3914 -9.31034,0 -11.47995,-0.1818 -11.47995,-0.9624 z m 64.70496,-13.9948 c 0,-0.574 0.4698,-1.0436 1.0437,-1.0436 0.574,0 1.0436,0.4696 1.0436,1.0436 0,0.5739 -0.4696,1.0435 -1.0436,1.0435 -0.5739,0 -1.0437,-0.4696 -1.0437,-1.0435 z m 20.8726,-12.8702 c 0,-2.0406 0.076,-2.087 3.4789,-2.087 2.6283,0 3.4786,-0.2552 3.4786,-1.0436 0,-0.7123 0.7178,-1.0454 2.2612,-1.0496 4.9925,-0.014 9.5666,-0.8883 9.5666,-1.83 0,-0.5207 0.4696,-0.9466 1.0436,-0.9466 0.6959,0 1.0437,0.6956 1.0437,2.087 0,1.3914 -0.3478,2.0871 -1.0437,2.0871 -0.5798,0 -1.0436,0.6184 -1.0436,1.3913 0,0.9276 -0.4638,1.3914 -1.3916,1.3914 -0.7729,0 -1.3913,0.4638 -1.3913,1.0435 0,0.8671 -1.3529,1.0436 -8.0011,1.0436 l -8.0013,0 0,-2.0871 z m 23.6556,-5.9133 c 0,-0.574 0.3131,-1.0435 0.6957,-1.0435 0.3828,0 0.6959,0.4695 0.6959,1.0435 0,0.5739 -0.3131,1.0435 -0.6959,1.0435 -0.3826,0 -0.6957,-0.4696 -0.6957,-1.0435 z m 13.9151,-9.0439 c 0,-0.6957 0.6957,-1.0435 2.0873,-1.0435 1.6232,0 2.0873,-0.3092 2.0873,-1.3914 0,-0.9276 0.4637,-1.3914 1.3913,-1.3914 0.7732,0 1.3916,-0.4638 1.3916,-1.0435 0,-0.6957 0.6957,-1.0435 2.0873,-1.0435 1.8375,0 2.0873,-0.2405 2.0873,-2.0097 0,-1.7459 0.3195,-2.0696 2.4351,-2.4664 1.4577,-0.2734 2.4352,-0.863 2.4352,-1.4688 0,-0.7506 0.8983,-1.012 3.4786,-1.012 2.6285,0 3.4789,-0.2551 3.4789,-1.0435 0,-0.6957 0.6957,-1.0435 2.0873,-1.0435 1.3913,0 2.087,0.3478 2.087,1.0435 0,0.5739 -0.4696,1.0435 -1.0435,1.0435 -0.5739,0 -1.0435,0.4696 -1.0435,1.0435 0,0.6922 -0.6925,1.0436 -2.0558,1.0436 -1.7985,0 -2.113,0.3046 -2.5125,2.4349 l -0.4569,2.4349 -4.4449,0 -4.445,0 0,2.087 c 0,1.8692 -0.2249,2.0871 -2.1525,2.0871 -1.5673,0 -2.2512,0.3782 -2.5162,1.3913 -0.2941,1.1245 -0.9492,1.3914 -3.4138,1.3914 -2.247,0 -3.0496,-0.2746 -3.0496,-1.0435 z m 38.962,-24.6968 c 0,-1.6233 0.3094,-2.0871 1.3916,-2.0871 0.7732,0 1.3916,-0.4638 1.3916,-1.0435 0,-0.5739 0.2781,-1.0435 0.6183,-1.0435 0.3399,0 0.8239,-1.0957 1.075,-2.4349 0.4174,-2.2248 0.6644,-2.4349 2.8605,-2.4349 1.6728,0 2.4035,-0.3173 2.4035,-1.0435 0,-0.574 0.3133,-1.0436 0.696,-1.0436 0.3826,0 0.6956,-0.4304 0.6956,-0.9565 0,-0.9539 2.8665,-1.8262 6.001,-1.8262 1.0048,0 1.6523,-0.4089 1.6523,-1.0435 0,-0.6957 0.6959,-1.0436 2.0873,-1.0436 1.3916,0 2.0872,0.3479 2.0872,1.0436 0,0.5739 -0.4695,1.0435 -1.0435,1.0435 -0.5742,0 -1.0437,0.4696 -1.0437,1.0435 0,0.574 -0.4696,1.0435 -1.0436,1.0435 -0.5797,0 -1.0437,0.6184 -1.0437,1.3914 0,1.1263 -0.4638,1.3914 -2.4352,1.3914 -1.7007,0 -2.4351,0.3147 -2.4351,1.0435 0,0.7113 -0.7198,1.0469 -2.2612,1.0542 -1.7436,0.01 -2.0223,0.1704 -1.2174,0.7084 0.9102,0.6086 0.8879,0.7895 -0.174,1.4153 -0.6697,0.3947 -1.2176,1.1715 -1.2176,1.7265 0,0.6893 -0.7716,1.0089 -2.4352,1.0089 -1.3392,0 -2.4351,0.3131 -2.4351,0.6957 0,0.3826 -0.6261,1.3218 -1.3914,2.0871 -1.9458,1.9454 -2.7832,1.7361 -2.7832,-0.6957 z m 260.2116,-3.1306 c 0,-0.5739 0.3131,-1.0435 0.6957,-1.0435 0.3826,0 0.6959,-0.4696 0.6959,-1.0436 0,-0.5797 0.6185,-1.0435 1.3914,-1.0435 0.9276,0 1.3916,-0.4638 1.3916,-1.3914 0,-0.9275 0.4638,-1.3913 1.3914,-1.3913 0.7654,0 1.3916,-0.4331 1.3916,-0.9624 0,-1.3275 1.697,-1.6465 6.7836,-1.275 3.0795,0.2249 4.3485,0.5976 4.3485,1.2775 0,0.7247 -1.1936,0.9599 -4.8703,0.9599 -3.8654,0 -4.8705,0.2152 -4.8705,1.0435 0,0.5739 -0.4696,1.0435 -1.0435,1.0435 -0.7288,0 -1.0435,0.7344 -1.0435,2.4349 0,2.4221 -0.023,2.4349 -3.1311,2.4349 -2.3191,0 -3.1308,-0.2705 -3.1308,-1.0435 z m 22.9599,-6.9043 c 0,-0.7996 1.8853,-1.0346 9.7672,-1.2174 7.6674,-0.1779 9.9031,-0.4466 10.3984,-1.2499 1.0278,-1.6661 1.5266,-0.3576 0.6213,1.6292 l -0.8335,1.8291 -9.9768,0 c -8.1689,0 -9.9766,-0.1795 -9.9766,-0.991 z m -25.7429,-11.8792 c 0,-0.5739 0.4696,-1.0435 1.0436,-1.0435 0.5739,0 1.0437,0.4696 1.0437,1.0435 0,0.574 -0.4698,1.0435 -1.0437,1.0435 -0.574,0 -1.0436,-0.4695 -1.0436,-1.0435 z m -219.8579,-6.9568 c 0,-0.5797 -0.6184,-1.0436 -1.3914,-1.0436 -2.3829,0 -1.552,-1.9021 1.0436,-2.3889 1.3394,-0.2513 2.4351,-0.7557 2.4351,-1.121 0,-0.3653 0.4696,-0.6642 1.0438,-0.6642 0.6956,0 1.0435,0.6957 1.0435,2.0871 0,1.6232 -0.3091,2.087 -1.3916,2.087 -0.7729,0 -1.3914,0.4639 -1.3914,1.0436 0,0.5739 -0.313,1.0435 -0.6959,1.0435 -0.3826,0 -0.6957,-0.4696 -0.6957,-1.0435 z m 22.9599,-22.9576 c 0,-0.574 0.4696,-1.0436 1.0436,-1.0436 0.5741,0 1.0437,0.4696 1.0437,1.0436 0,0.5739 -0.4696,1.0435 -1.0437,1.0435 -0.574,0 -1.0436,-0.4696 -1.0436,-1.0435 z m 6.9576,-9.3918 c 0,-0.3826 0.4696,-0.6957 1.0435,-0.6957 0.5739,0 1.0438,0.3131 1.0438,0.6957 0,0.3826 -0.4699,0.6957 -1.0438,0.6957 -0.5739,0 -1.0435,-0.3131 -1.0435,-0.6957 z m 6.9575,-9.7396 c 0,-2.6281 0.2551,-3.4784 1.0435,-3.4784 0.574,0 1.0438,-0.2765 1.0438,-0.6146 0,-0.3379 0.6261,-0.7782 1.3914,-0.9783 1.0134,-0.265 1.3916,-0.949 1.3916,-2.5161 0,-1.1837 0.313,-2.1522 0.6957,-2.1522 0.3826,0 0.6956,0.4696 0.6956,1.0436 0,0.5797 0.6185,1.0435 1.3916,1.0435 0.7732,0 1.3916,-0.4638 1.3916,-1.0435 0,-0.5797 0.6183,-1.0436 1.3914,-1.0436 0.7732,0 1.3916,-0.4638 1.3916,-1.0435 0,-0.5739 0.3131,-1.0435 0.6957,-1.0435 0.3826,0 0.6957,0.9392 0.6957,2.087 0,1.1479 -0.3022,2.0871 -0.6718,2.0871 -0.3694,0 -0.8794,1.5653 -1.1333,3.4784 -0.4322,3.2593 -0.5871,3.4784 -2.459,3.4784 -1.3118,0 -1.9975,0.3583 -1.9975,1.0436 0,0.5739 -0.4796,1.0435 -1.0656,1.0435 -0.586,0 -1.2457,0.4696 -1.466,1.0435 -0.2273,0.5948 -1.266,1.0436 -2.4131,1.0436 -1.9517,0 -2.0129,-0.106 -2.0129,-3.4785 z m -807.07298,-14.6093 c 0,-1.4459 -0.34065,-2.0871 -1.10868,-2.0871 -0.60989,0 -1.27264,-0.6261 -1.47277,-1.3914 -0.25763,-0.9855 -0.94915,-1.3913 -2.36997,-1.3913 -1.31948,0 -2.00612,-0.3573 -2.00612,-1.0436 0,-0.5739 -0.46959,-1.0435 -1.04376,-1.0435 -0.57394,0 -1.04352,-0.4989 -1.04352,-1.1086 0,-0.6098 -0.62612,-1.2724 -1.39161,-1.4726 -0.76525,-0.2001 -1.39136,-0.6404 -1.39136,-0.9783 0,-0.3381 -0.93941,-0.6146 -2.08729,-0.6146 -2.02491,0 -2.08752,-0.099 -2.09679,-3.3045 -0.0232,-4.2948 -0.61453,-6.4351 -1.81087,-6.4351 -0.52942,0 -0.9626,-0.6261 -0.9626,-1.3914 0,-1.0704 -0.46379,-1.3913 -2.01122,-1.3913 -1.77933,0 -2.04369,-0.2798 -2.2946,-2.428 -0.53661,-4.5973 0.21566,-11.4857 1.25594,-11.4857 0.52942,0 0.9626,-0.4696 0.9626,-1.0435 0,-0.574 -0.46959,-1.0436 -1.04353,-1.0436 -0.72885,0 -1.04376,-0.7343 -1.04376,-2.4349 0,-1.9711 -0.26506,-2.4349 -1.39137,-2.4349 -0.76548,0 -1.3916,-0.2765 -1.3916,-0.6145 0,-0.338 0.62612,-0.7783 1.3916,-0.9784 0.76525,-0.2001 1.39137,-0.8628 1.39137,-1.4725 0,-0.7681 0.64142,-1.1087 2.08729,-1.1087 1.83753,0 2.08728,-0.2405 2.08728,-2.0096 0,-1.746 0.31955,-2.0696 2.43513,-2.4664 1.45769,-0.2735 2.43513,-0.863 2.43513,-1.4688 0,-0.5566 0.46959,-1.012 1.04353,-1.012 0.57417,0 1.04376,-0.4696 1.04376,-1.0436 0,-0.5797 0.61846,-1.0435 1.39136,-1.0435 0.76549,0 1.39161,-0.4447 1.39161,-0.9882 0,-0.5435 0.93917,-1.1946 2.08728,-1.4467 1.14788,-0.2521 2.08729,-0.9031 2.08729,-1.4467 0,-0.5435 0.62611,-0.9882 1.39137,-0.9882 0.77313,0 1.3916,-0.4638 1.3916,-1.0435 0,-0.6957 0.69568,-1.0435 2.08728,-1.0435 1.31717,0 2.08729,-0.3565 2.08729,-0.9661 0,-0.5534 1.04028,-1.1613 2.43513,-1.4229 1.45769,-0.2735 2.43513,-0.863 2.43513,-1.4688 0,-0.7506 0.89836,-1.012 3.47865,-1.012 2.54203,0 3.47889,-0.2662 3.47889,-0.9883 0,-0.5435 0.93917,-1.1945 2.08729,-1.4466 1.14788,-0.2521 2.08705,-0.7466 2.08705,-1.0988 0,-0.3523 0.62635,-0.6404 1.3916,-0.6404 0.92758,0 1.3916,-0.4638 1.3916,-1.3914 0,-1.1264 0.46379,-1.3914 2.43513,-1.3914 1.5966,0 2.43513,-0.3278 2.43513,-0.9519 0,-0.5901 1.09593,-1.0989 2.88315,-1.3386 1.58593,-0.2127 3.07307,-0.6842 3.30496,-1.0477 0.2319,-0.3636 1.43891,-0.8818 2.68256,-1.1516 1.25966,-0.2733 2.26121,-0.9282 2.26121,-1.4788 0,-0.6656 0.79517,-0.9882 2.43513,-0.9882 1.70072,0 2.43513,-0.3147 2.43513,-1.0435 0,-0.6981 0.69823,-1.0436 2.10931,-1.0436 1.19287,0 2.27582,-0.4347 2.49311,-1.001 0.21102,-0.5505 1.29722,-1.2015 2.41333,-1.4466 1.11611,-0.2451 2.02908,-0.8904 2.02908,-1.4339 0,-0.7221 0.93685,-0.9883 3.47888,-0.9883 2.5803,0 3.47866,-0.2614 3.47866,-1.012 0,-0.6058 0.97744,-1.1953 2.43513,-1.4687 1.39485,-0.2617 2.43513,-0.8696 2.43513,-1.423 0,-0.7438 1.28052,-0.9661 5.56617,-0.9661 4.48369,0 5.56594,-0.2029 5.56594,-1.0435 0,-0.5797 0.61846,-1.0435 1.39137,-1.0435 0.77314,0 1.3916,-0.4638 1.3916,-1.0435 0,-0.6981 0.69824,-1.0436 2.10909,-1.0436 1.23298,0 2.27558,-0.4335 2.50956,-1.0435 0.33092,-0.8624 2.18399,-1.0435 10.67552,-1.0435 11.3923,0 14.62329,-0.4035 14.62329,-1.8262 0,-0.7205 1.20168,-0.9566 4.87026,-0.9566 3.86522,0 4.87025,-0.2154 4.87025,-1.0435 0,-0.8643 1.31415,-1.0435 7.65323,-1.0435 6.33908,0 7.65323,0.1792 7.65323,1.0435 0,0.7885 0.85036,1.0435 3.47888,1.0435 2.48777,0 3.47866,0.2725 3.47866,0.9566 0,1.5163 6.50164,2.3954 10.26228,1.3877 0.86102,-0.2307 1.56552,-0.8525 1.56552,-1.3819 0,-0.7277 1.18753,-0.9624 4.87026,-0.9624 3.68295,0 4.87025,-0.2346 4.87025,-0.9623 0,-1.0081 2.04021,-1.7948 4.69634,-1.8109 0.86102,-0.01 1.56552,-0.3225 1.56552,-0.7052 0,-0.3826 0.74369,-0.6957 1.65248,-0.6957 3.13429,0 6.00075,-0.8723 6.00075,-1.8261 0,-0.6841 0.99088,-0.9566 3.47888,-0.9566 2.46064,0 3.47866,-0.2755 3.47866,-0.9414 0,-0.6707 1.53932,-1.0716 5.3526,-1.3939 2.9439,-0.2488 5.52698,-0.725 5.73986,-1.0582 0.21334,-0.3332 1.40505,-0.8265 2.6487,-1.0963 1.25966,-0.2733 2.26121,-0.9283 2.26121,-1.4788 0,-0.7221 0.93686,-0.9882 3.47866,-0.9882 2.48313,0 3.47888,-0.2731 3.47888,-0.9539 0,-0.6194 1.22,-1.1158 3.47866,-1.4154 1.91336,-0.2538 3.47889,-0.7637 3.47889,-1.1331 0,-0.3695 0.86079,-0.676 1.91313,-0.6813 2.97938,-0.014 5.04441,-0.7561 5.04441,-1.8108 0,-0.6911 0.98068,-0.9624 3.47865,-0.9624 2.48313,0 3.47866,-0.273 3.47866,-0.9539 0,-0.6194 1.22,-1.1157 3.47889,-1.4153 1.91336,-0.2538 3.47865,-0.7289 3.47865,-1.0558 0,-0.3268 1.09594,-0.7998 2.43513,-1.0511 1.45769,-0.2734 2.43513,-0.863 2.43513,-1.4687 0,-0.7506 0.89859,-1.012 3.47888,-1.012 2.6283,0 3.47866,-0.2551 3.47866,-1.0436 0,-0.6981 0.69823,-1.0435 2.10908,-1.0435 1.16017,0 2.27489,-0.4318 2.47734,-0.9595 0.20638,-0.537 1.88136,-1.1602 3.80493,-1.4153 2.3477,-0.3114 3.43645,-0.7789 3.43645,-1.4754 0,-0.7597 0.88676,-1.01958 3.47888,-1.01958 2.48314,0 3.47866,-0.27301 3.47866,-0.9539 0,-0.61937 1.22,-1.11574 3.47889,-1.41533 1.91336,-0.25378 3.47865,-0.72337 3.47865,-1.04352 0,-0.32016 1.56553,-0.78974 3.47889,-1.04353 2.38202,-0.31598 3.47866,-0.78283 3.47866,-1.481 0,-0.75969 0.88676,-1.01957 3.47888,-1.01957 2.6283,0 3.47866,-0.25508 3.47866,-1.04353 0,-0.69568 0.69568,-1.04352 2.08728,-1.04352 1.39161,0 2.08729,-0.34785 2.08729,-1.04353 0,-0.67231 0.68061,-1.04691 1.91336,-1.05304 2.97916,-0.0139 5.04418,-0.75611 5.04418,-1.81084 0,-0.69107 0.98069,-0.96239 3.47866,-0.96239 2.49379,0 3.47888,-0.2718 3.47888,-0.9599 0,-0.67922 1.25989,-1.05104 4.30838,-1.27155 2.41866,-0.17485 4.4278,-0.66934 4.58039,-1.12713 0.14841,-0.44853 0.98949,-0.81552 1.86629,-0.81552 3.08119,0 5.943,-0.8794 5.943,-1.82618 0,-0.66992 0.93825,-0.95656 3.13081,-0.95656 2.1768,0 3.13082,-0.28848 3.13082,-0.94662 0,-0.6215 1.23669,-1.09308 3.6004,-1.37298 1.98015,-0.23452 3.78035,-0.71593 4.00042,-1.06983 0.2203,-0.35389 2.20068,-0.86784 4.4009,-1.14208 2.70435,-0.33703 4.00065,-0.81077 4.00065,-1.46198 0,-0.66013 0.87586,-0.96336 2.78297,-0.96336 1.89087,0 2.78297,-0.30513 2.78297,-0.95193 0,-0.59316 1.10892,-1.10064 2.94205,-1.3465 1.61816,-0.21705 3.05313,-0.7278 3.18879,-1.13512 0.13681,-0.4073 1.76077,-0.74056 3.61083,-0.74056 4.01549,0 5.56502,-0.505 5.56502,-1.81365 0,-0.69912 0.96908,-0.96909 3.47865,-0.96909 2.62853,0 3.47889,-0.25508 3.47889,-1.04352 0,-0.57974 0.61846,-1.04353 1.39137,-1.04353 0.76548,0 1.3916,-0.43309 1.3916,-0.96239 0,-0.52932 0.62612,-1.12613 1.3916,-1.32625 1.02428,-0.26784 1.39137,-0.94892 1.39137,-2.58115 0,-1.63224 -0.36709,-2.31332 -1.39137,-2.58118 -0.76548,-0.20013 -1.3916,-0.79691 -1.3916,-1.32623 0,-0.5293 -0.62612,-0.96239 -1.3916,-0.96239 -0.77291,0 -1.39137,-0.46379 -1.39137,-1.04352 0,-0.69569 -0.69569,-1.04353 -2.08729,-1.04353 -1.62349,0 -2.08728,-0.30919 -2.08728,-1.39137 0,-0.77298 -0.46379,-1.39137 -1.04353,-1.39137 -0.57417,0 -1.04376,-0.29887 -1.04376,-0.66417 0,-0.36528 -1.0957,-0.86972 -2.43513,-1.12093 -1.39461,-0.26163 -2.43513,-0.86959 -2.43513,-1.42291 0,-0.53134 -0.46958,-0.9661 -1.04352,-0.9661 -0.57418,0 -1.04376,-0.45403 -1.04376,-1.00895 0,-0.55492 -0.50275,-1.29031 -1.11727,-1.63414 -0.67203,-0.37616 -1.26244,-1.91404 -1.48204,-3.86084 -0.2363,-2.09835 -0.69963,-3.23565 -1.31786,-3.23565 -0.52408,0 -0.95309,-0.46959 -0.95309,-1.04353 0,-0.57394 -0.42947,-1.04353 -0.95425,-1.04353 -0.70403,0 -1.04074,-1.49551 -1.28446,-5.70371 -0.19711,-3.41964 -0.65163,-5.81089 -1.13281,-5.97129 -0.50854,-0.16952 -0.80305,-2.12152 -0.80305,-5.32229 0,-8.88696 -0.79888,-15.69996 -1.84125,-15.69996 -0.72884,0 -0.94172,-1.57201 -0.94172,-6.95685 0,-5.36697 0.21334,-6.95684 0.93685,-6.95684 0.70867,0 1.04724,-2.05761 1.39137,-8.45744 0.84851,-15.77813 0.52084,-20.76132 -1.36563,-20.76132 -0.52941,0 -0.96259,-0.62612 -0.96259,-1.39137 0,-0.76525 -0.43295,-1.39137 -0.96237,-1.39137 -0.52941,0 -1.12631,-0.62611 -1.32643,-1.39137 -0.26228,-1.00271 -0.94892,-1.39137 -2.45832,-1.39137 -1.15182,0 -2.22527,-0.3912 -2.38527,-0.8696 -0.45475,-1.3596 -12.89034,-1.20215 -13.7407,0.17392 -0.86544,1.40111 -15.77929,1.48552 -16.63939,0.0951 -0.30425,-0.49231 -1.85075,-1.06926 -3.43668,-1.28191 -1.78722,-0.23978 -2.88315,-0.74856 -2.88315,-1.33873 0,-0.52339 -0.43318,-0.95193 -0.9626,-0.95193 -0.52918,0 -1.12608,-0.62611 -1.3262,-1.39137 -0.19943,-0.76525 -0.86289,-1.39137 -1.47277,-1.39137 -0.60988,0 -1.10869,-0.28801 -1.10869,-0.64026 0,-0.35225 -0.9394,-0.84665 -2.08728,-1.09895 -1.14812,-0.25207 -2.08729,-0.903 -2.08729,-1.44656 0,-0.54356 -0.62612,-0.98833 -1.3916,-0.98833 -0.76525,0 -1.39137,-0.4355 -1.39137,-0.96793 0,-0.53267 -0.85801,-1.1836 -1.90641,-1.44656 -1.04839,-0.26321 -2.13343,-0.84503 -2.41101,-1.29282 -0.34274,-0.5533 -3.69432,-0.84479 -10.44339,-0.90833 -17.35826,-0.16465 -17.24393,-0.15537 -17.24393,-1.29768 0,-0.75366 -0.77291,-1.04353 -2.78297,-1.04353 -2.03024,0 -2.78297,-0.28686 -2.78297,-1.06092 0,-0.62218 -0.86312,-1.23345 -2.08729,-1.47833 -1.14788,-0.22958 -2.08729,-0.69128 -2.08729,-1.02614 0,-0.33462 -0.46958,-0.60872 -1.04352,-0.60872 -0.57974,0 -1.04376,-0.61823 -1.04376,-1.39137 0,-0.76525 -0.43457,-1.39137 -0.96608,-1.39137 -0.55353,0 -1.16156,-1.04028 -1.42313,-2.4349 -0.27341,-1.45745 -0.86289,-2.43489 -1.46883,-2.43489 -0.55678,0 -1.01222,-0.46959 -1.01222,-1.04353 0,-0.57394 -0.46959,-1.04353 -1.04353,-1.04353 -0.57973,0 -1.04375,-0.61823 -1.04375,-1.39137 0,-0.7729 -0.46379,-1.39136 -1.04353,-1.39136 -0.69568,0 -1.04353,-0.69569 -1.04353,-2.08706 l 0,-2.08705 5.56594,0 c 4.34502,0 5.56594,0.21566 5.56594,0.98833 0,0.70264 1.30627,1.12794 4.52242,1.4723 2.4873,0.26645 4.52241,0.76085 4.52241,1.09895 0,0.33811 3.13082,0.61453 6.95755,0.61453 3.82673,0 6.95754,-0.27805 6.95754,-0.61824 0,-0.33995 1.0957,-0.82369 2.43513,-1.07506 1.45769,-0.27341 2.43512,-0.86288 2.43512,-1.46882 0,-0.78914 1.07252,-1.01199 4.87026,-1.01199 3.66185,0 4.87026,-0.23654 4.87026,-0.95379 0,-0.61939 1.22,-1.11587 3.47889,-1.41525 1.91313,-0.25393 3.47865,-0.72351 3.47865,-1.04353 0,-0.32024 1.56552,-0.78983 3.47866,-1.04353 2.38225,-0.31607 3.47888,-0.78287 3.47888,-1.48111 0,-0.56072 0.46959,-1.01964 1.04353,-1.01964 0.57417,0 1.04376,-0.45521 1.04376,-1.01199 0,-0.60571 0.97744,-1.19519 2.43513,-1.46882 1.33919,-0.25114 2.43513,-0.73488 2.43513,-1.07507 0,-0.33995 0.93917,-0.61823 2.08728,-0.61823 1.62327,0 2.08729,-0.30911 2.08729,-1.39137 0,-0.7729 0.46379,-1.39137 1.04352,-1.39137 0.57394,0 1.04376,0.46959 1.04376,1.04353 0,0.57394 0.46959,1.04353 1.04353,1.04353 0.57394,0 1.04353,-0.46959 1.04353,-1.04353 0,-0.85013 1.1597,-1.04353 6.26186,-1.04353 4.8408,0 6.26185,-0.21566 6.26185,-0.95378 0,-0.61939 1.22,-1.11588 3.47866,-1.41525 1.91336,-0.25393 3.47889,-0.76387 3.47889,-1.13328 0,-0.3694 0.93917,-0.67179 2.08705,-0.67179 1.6235,0 2.08729,-0.30912 2.08729,-1.39137 0,-1.20586 0.46402,-1.39137 3.47888,-1.39137 2.6283,0 3.47866,-0.25509 3.47866,-1.04353 0,-0.57394 0.39144,-1.04886 0.86984,-1.05535 1.06068,-0.0232 4.00042,-3.01765 4.00042,-4.08646 0,-0.42413 0.46981,-0.77151 1.04375,-0.77151 0.57394,0 1.04353,-0.46959 1.04353,-1.04353 0,-0.57394 0.45544,-1.04352 1.01222,-1.04352 0.60571,0 1.19542,-0.97721 1.46882,-2.4349 0.26158,-1.39439 0.86961,-2.4349 1.42314,-2.4349 0.53127,0 0.96608,-0.4355 0.96608,-0.96793 0,-0.53266 0.79076,-1.16666 1.75707,-1.40922 1.87834,-0.47121 4.50479,-2.7359 4.50479,-3.88401 0,-0.38263 0.62611,-0.69568 1.39137,-0.69568 0.77313,0 1.3916,-0.46379 1.3916,-1.04353 0,-0.69801 0.69823,-1.04353 2.10908,-1.04353 1.23299,0 2.27559,-0.43341 2.50957,-1.04353 0.2203,-0.57394 0.83667,-1.04352 1.3698,-1.04352 0.53289,0 0.96909,-0.62612 0.96909,-1.39137 0,-0.77291 0.46379,-1.39137 1.04353,-1.39137 0.57997,0 1.04375,-0.61823 1.04375,-1.39137 0,-0.77291 -0.46378,-1.39137 -1.04375,-1.39137 -0.57394,0 -1.04353,-0.46959 -1.04353,-1.04353 0,-0.84062 -1.08225,-1.04352 -5.56594,-1.04352 -4.48369,0 -5.56618,-0.20407 -5.56618,-1.04353 0,-0.57394 0.46982,-1.04353 1.04376,-1.04353 0.57394,0 1.04353,-0.46959 1.04353,-1.04353 0,-0.57394 0.46959,-1.04352 1.04376,-1.04352 0.72884,0 1.04353,-0.73418 1.04353,-2.4349 0,-1.70048 0.31468,-2.4349 1.04376,-2.4349 0.57394,0 1.04352,-0.43294 1.04352,-0.96236 0,-1.00805 -2.03998,-1.79463 -4.69633,-1.81087 -0.86103,0 -1.56553,-0.32256 -1.56553,-0.70519 0,-0.38263 -0.62611,-0.69568 -1.39137,-0.69568 -0.76548,0 -1.3916,0.31305 -1.3916,0.69568 0,0.38263 -1.56552,0.69569 -3.47865,0.69569 -3.01487,0 -3.47889,0.18551 -3.47889,1.39137 0,1.12631 -0.46379,1.39136 -2.43513,1.39136 -1.70071,0 -2.43513,0.31469 -2.43513,1.04353 0,0.57394 -0.46958,1.04353 -1.04352,1.04353 -0.57974,0 -1.04376,0.61846 -1.04376,1.39137 0,0.76525 -0.44454,1.39137 -0.98834,1.39137 -0.54356,0 -1.20214,0.97349 -1.46349,2.16334 -0.54054,2.46134 -2.30016,4.7935 -3.61663,4.7935 -0.52385,0 -0.88908,0.85709 -0.88908,2.08706 0,1.59752 -0.31469,2.08705 -1.34175,2.08705 -0.73789,0 -1.81133,0.46959 -2.3855,1.04353 -0.57394,0.57394 -1.92682,1.04793 -3.00652,1.05303 -3.02576,0.0232 -5.09403,0.74995 -5.09403,1.81087 0,0.63609 -0.82555,0.96237 -2.43513,0.96237 -1.70072,0 -2.43513,0.31468 -2.43513,1.04352 0,0.57394 -0.31306,1.04353 -0.69568,1.04353 -0.38263,0 -0.69569,-0.78265 -0.69569,-1.73921 0,-1.72878 2.14874,-4.52195 3.47866,-4.52195 0.38262,0 0.69591,-0.62612 0.69591,-1.39137 0,-0.92758 0.46379,-1.39137 1.39137,-1.39137 0.76525,0 1.3916,-0.31306 1.3916,-0.69569 0,-0.90207 2.57635,-3.47842 3.47866,-3.47842 0.38262,0 0.69568,-0.62612 0.69568,-1.39137 0,-0.76525 0.44478,-1.39137 0.98834,-1.39137 0.54356,0 1.18892,-0.91297 1.43427,-2.02885 0.24511,-1.11588 0.89604,-2.20184 1.44656,-2.4131 0.75598,-0.2901 1.00109,-1.75219 1.00109,-5.97152 0,-4.5027 0.20175,-5.58728 1.04376,-5.58728 0.57394,0 1.04353,-0.46958 1.04353,-1.04352 0,-0.57394 0.43062,-1.04353 0.95679,-1.04353 1.06371,0 1.82641,-2.94112 1.82641,-7.04381 l 0,-2.69578 -3.47889,0 c -2.7192,0 -3.47865,-0.24186 -3.47865,-1.10869 0,-0.60965 -0.62635,-1.27217 -1.39161,-1.4723 -0.76525,-0.19943 -1.3916,-0.79702 -1.3916,-1.32644 0,-0.52918 -0.46958,-0.96236 -1.04352,-0.96236 -0.57394,0 -1.04353,-0.46959 -1.04353,-1.04353 0,-0.7729 0.81163,-1.04352 3.13081,-1.04352 2.66702,0 3.13081,0.20638 3.13081,1.39137 0,0.92758 0.46379,1.39137 1.39161,1.39137 0.76525,0 1.39137,0.31305 1.39137,0.69568 0,0.38263 0.46981,0.69568 1.04375,0.69568 0.57394,0 1.04353,-0.31305 1.04353,-0.69568 0,-0.85662 1.88276,-0.92897 2.20323,-0.0835 0.12755,0.33625 1.24945,0.83065 2.49311,1.09895 1.74593,0.3766 2.2612,0.25485 2.2612,-0.53382 0,-0.61638 0.96538,-1.20238 2.43513,-1.4781 1.45769,-0.27341 2.43513,-0.86288 2.43513,-1.46882 0,-0.55655 0.62612,-1.01199 1.3916,-1.01199 0.77291,0 1.39137,-0.46379 1.39137,-1.04353 0,-0.57394 0.46982,-1.04353 1.04376,-1.04353 0.57394,0 1.04353,-0.46959 1.04353,-1.04352 0,-0.57394 0.46958,-1.04353 1.04376,-1.04353 0.57973,0 1.04352,-0.61823 1.04352,-1.39137 0,-0.92758 0.46379,-1.39137 1.3916,-1.39137 0.76526,0 1.39137,-0.31306 1.39137,-0.69569 0,-0.9023 2.57659,-3.47842 3.47889,-3.47842 0.38263,0 0.69569,-0.62612 0.69569,-1.39137 0,-0.76525 0.44477,-1.39137 0.98833,-1.39137 0.54356,0 1.19472,-0.93917 1.44679,-2.08705 0.25207,-1.14788 0.71192,-2.08706 1.0215,-2.08706 0.30981,0 0.76873,-1.0957 1.01988,-2.43489 0.2734,-1.45746 0.86311,-2.4349 1.46882,-2.4349 0.6929,0 1.01222,-0.76803 1.01222,-2.4349 0,-1.70048 0.31468,-2.43489 1.04353,-2.43489 0.57417,0 1.04375,-0.47933 1.04375,-1.06533 0,-0.586 0.46959,-1.2455 1.04353,-1.4658 0.57417,-0.2203 1.04376,-0.83645 1.04376,-1.36958 0,-0.53289 0.62612,-0.96908 1.39137,-0.96908 0.77314,0 1.3916,-0.46379 1.3916,-1.04353 0,-0.57394 0.46959,-1.04353 1.04353,-1.04353 0.57417,0 1.04376,-0.4348 1.04376,-0.96607 0,-0.5533 1.04028,-1.16133 2.43512,-1.42291 2.13042,-0.39955 2.43513,-0.714 2.43513,-2.51235 0,-1.6126 0.30912,-2.05552 1.43566,-2.05552 1.20052,0 1.39972,-0.3701 1.21745,-2.26097 l -0.21798,-2.26098 -5.75099,-0.20174 c -4.66573,-0.16465 -5.82845,0 -6.16238,0.8696 -0.28569,0.74508 -1.36331,1.07182 -3.53268,1.07182 -2.53647,0 -3.18995,0.26088 -3.48562,1.39137 -0.25763,0.98555 -0.94891,1.39137 -2.36996,1.39137 -1.31948,0 -2.00612,0.35735 -2.00612,1.04353 0,0.57394 -0.60386,1.04352 -1.34175,1.04352 -0.73812,0 -1.81156,0.46959 -2.3855,1.04353 -0.57394,0.57394 -1.53561,1.04353 -2.13691,1.04353 -0.6296,0 -1.09339,0.5904 -1.09339,1.39137 0,1.13628 -0.46379,1.39137 -2.52974,1.39137 l -2.52951,0 0.44779,-3.26671 c 0.24627,-1.79672 0.70288,-3.44016 1.01477,-3.65234 0.31213,-0.21103 0.76943,-0.93338 1.01663,-1.60309 0.24697,-0.66948 0.92874,-1.21745 1.51474,-1.21745 0.586,0 1.06532,-0.46959 1.06532,-1.04353 0,-0.57394 0.46959,-1.04352 1.04376,-1.04352 0.57394,0 1.04353,-0.46959 1.04353,-1.04353 0,-0.57974 0.61846,-1.04353 1.3916,-1.04353 0.76525,0 1.39137,-0.4355 1.39137,-0.96793 0,-0.53266 0.79076,-1.16666 1.75707,-1.40922 1.87835,-0.47121 4.50479,-2.7359 4.50479,-3.88401 0,-0.38263 0.62611,-0.69569 1.39137,-0.69569 0.77314,0 1.3916,-0.46379 1.3916,-1.04352 0,-0.69801 0.69823,-1.04353 2.10908,-1.04353 1.23299,0 2.27559,-0.43341 2.50957,-1.04353 0.22494,-0.58507 1.25965,-1.04352 2.35652,-1.04352 2.66145,0 4.15694,-0.65232 4.15694,-1.81365 0,-0.69894 0.96909,-0.96909 3.47866,-0.96909 2.488,0 3.47889,-0.27248 3.47889,-0.95657 0,-0.95378 2.86645,-1.82617 6.00074,-1.82617 0.9088,0 1.65248,-0.31306 1.65248,-0.69569 0,-0.38262 1.09571,-0.69568 2.43513,-0.69568 1.97134,0 2.43513,-0.26506 2.43513,-1.39137 0,-0.77291 0.46379,-1.39137 1.04353,-1.39137 0.57973,0 1.04376,-0.61823 1.04376,-1.39137 0,-0.7729 0.46379,-1.39137 1.04352,-1.39137 0.69592,0 1.04376,-0.69568 1.04376,-2.08705 0,-1.31299 0.35689,-2.08706 0.96237,-2.08706 1.05489,0 1.79625,-2.06479 1.8111,-5.04371 0,-1.05211 0.29775,-1.91313 0.64976,-1.91313 0.35225,0 0.85848,-2.03488 1.12469,-4.52195 0.33788,-3.15308 0.77569,-4.52195 1.44703,-4.52195 0.69105,0 0.96259,-0.98046 0.96259,-3.47843 0,-2.49774 0.27132,-3.47842 0.96237,-3.47842 1.5857,0 1.80159,-2.37484 1.80159,-19.82702 0,-17.45194 -0.21566,-19.82701 -1.80159,-19.82701 -0.63609,0 -0.96237,-0.82555 -0.96237,-2.4349 0,-1.70048 -0.31491,-2.43489 -1.04375,-2.43489 -0.57394,0 -1.04353,-0.46959 -1.04353,-1.04353 0,-0.82044 0.9663,-1.04353 4.52241,-1.04353 3.44364,0 4.52242,0.23584 4.52242,0.98834 0,0.54356 0.93917,1.19449 2.08705,1.44656 1.14811,0.2523 2.08729,0.7467 2.08729,1.09895 0,0.35225 0.62635,0.64026 1.3916,0.64026 0.92758,0 1.39137,0.46379 1.39137,1.39137 0,1.08225 0.46402,1.39137 2.08728,1.39137 1.4461,0 2.08729,0.34065 2.08729,1.10869 0,0.60988 0.62612,1.27241 1.3916,1.47253 0.76525,0.19943 1.39137,0.79703 1.39137,1.32621 0,0.52942 0.46982,0.96236 1.04376,0.96236 0.57394,0 1.04353,0.46959 1.04353,1.04353 0,0.72885 0.73441,1.04353 2.43513,1.04353 1.97134,0 2.43513,0.26505 2.43513,1.39137 0,0.77313 0.46402,1.39137 1.04376,1.39137 0.57394,0 1.04352,0.46958 1.04352,1.04352 0,0.57394 0.46959,1.04353 1.04376,1.04353 0.57385,0 1.04344,0.46959 1.04344,1.04353 0,0.57973 0.61846,1.04352 1.3916,1.04352 0.7729,0 1.39137,0.46379 1.39137,1.04353 0,0.57974 0.61846,1.04353 1.3916,1.04353 0.7729,0 1.39137,0.46379 1.39137,1.04353 0,0.57394 0.31329,1.04352 0.69592,1.04352 0.38262,0 0.69568,0.62612 0.69568,1.39137 0,0.92758 0.46379,1.39137 1.3916,1.39137 0.92758,0 1.39137,0.46379 1.39137,1.39137 0,0.76525 0.31306,1.39137 0.69569,1.39137 0.90253,0 3.47888,2.57635 3.47888,3.47842 0,0.38263 0.62612,0.69569 1.3916,0.69569 0.92758,0 1.39137,0.46379 1.39137,1.39137 0,0.76525 0.44478,1.39137 0.98834,1.39137 0.54356,0 1.19472,0.93917 1.44679,2.08705 0.25207,1.14788 0.90323,2.08706 1.44679,2.08706 0.54357,0 0.98834,0.62611 0.98834,1.39136 0,0.77314 0.46379,1.39137 1.04376,1.39137 0.69568,0 1.04353,0.69569 1.04353,2.08706 0,1.39137 0.34784,2.08705 1.04352,2.08705 0.57997,0 1.04376,0.61847 1.04376,1.39137 0,0.76525 0.42924,1.39137 0.95402,1.39137 0.61939,0 1.11564,1.22 1.41548,3.47842 0.31584,2.38203 0.78288,3.47843 1.48112,3.47843 0.66901,0 1.01964,0.71748 1.01964,2.08705 0,1.31067 0.35712,2.08706 0.96004,2.08706 0.67922,0 1.05118,1.25988 1.27148,4.30814 0.17392,2.41843 0.66948,4.42734 1.12724,4.57992 0.44872,0.15074 0.81581,1.34152 0.81581,2.64871 0,1.91313 0.27132,2.37692 1.39137,2.37692 1.12655,0 1.3916,0.46379 1.3916,2.4349 0,2.24172 0.16465,2.43489 2.08729,2.43489 1.39137,0 2.08728,0.34785 2.08728,1.04353 0,0.75366 0.77291,1.04353 2.78297,1.04353 1.92334,0 2.78297,0.30123 2.78297,0.97535 0,0.67296 1.27821,1.12353 4.12402,1.45375 2.54969,0.29589 4.2678,0.85314 4.50062,1.45977 0.20639,0.53962 0.85592,0.98092 1.44192,0.98092 0.586,0 1.06556,0.46959 1.06556,1.04353 0,0.69568 0.69568,1.04352 2.08729,1.04352 1.39136,0 2.08705,0.34785 2.08705,1.04353 0,0.57974 0.61846,1.04353 1.3916,1.04353 0.76525,0 1.3916,0.44477 1.3916,0.98833 0,0.54357 0.93918,1.1945 2.08706,1.44656 1.14811,0.25231 2.08728,0.90324 2.08728,1.4468 0,0.54356 0.62635,0.9881 1.3916,0.9881 0.77314,0 1.3916,0.46379 1.3916,1.04353 0,0.57394 0.34715,1.04353 0.77152,1.04353 1.0688,0 4.07207,2.93973 4.08668,4.00018 0,0.4784 0.48165,0.86961 1.05559,0.86961 0.57394,0 1.04353,0.46959 1.04353,1.04353 0,0.57394 0.4348,1.04352 0.9663,1.04352 0.5533,0 1.16133,1.04051 1.42291,2.4349 0.25137,1.33919 0.75574,2.4349 1.12121,2.4349 1.09965,0 0.7576,3.98951 -0.37938,4.42571 -0.57394,0.2203 -1.04376,0.87981 -1.04376,1.46581 0,0.586 -0.46959,1.06532 -1.04353,1.06532 -0.57394,0 -1.04375,-0.42924 -1.04375,-0.95378 0,-0.61939 -1.22,-1.11588 -3.47866,-1.41526 -2.38202,-0.31607 -3.47866,-0.78287 -3.47866,-1.48111 0,-0.56072 -0.46981,-1.01964 -1.04375,-1.01964 -0.57394,0 -1.04353,-0.46959 -1.04353,-1.04353 0,-0.72884 -0.73441,-1.04352 -2.43513,-1.04352 -1.6548,0 -2.43513,-0.32072 -2.43513,-1.00086 0,-0.66183 -1.11935,-1.16574 -3.30496,-1.48784 -1.8176,-0.26784 -3.50092,-0.79076 -3.74047,-1.16203 -0.23978,-0.37103 -1.88345,-0.83806 -3.65281,-1.03749 -2.08334,-0.23468 -3.21684,-0.69824 -3.21684,-1.31554 0,-0.67992 -0.99715,-0.95309 -3.47889,-0.95309 -2.49797,0 -3.47866,0.27132 -3.47866,0.96236 0,0.52942 -0.62611,1.12632 -1.3916,1.32644 -1.13675,0.29706 -1.39137,0.94891 -1.39137,3.55936 0,2.73195 0.20175,3.19574 1.39137,3.19574 0.92781,0 1.3916,0.46379 1.3916,1.39137 0,0.76525 0.44478,1.39137 0.98834,1.39137 0.54356,0 1.19751,0.95262 1.45329,2.11697 0.35619,1.62187 0.93847,2.21135 2.49031,2.52185 1.11403,0.22262 2.02561,0.83552 2.02561,1.36146 0,0.52617 0.44477,0.95656 0.98833,0.95656 0.55052,0 1.20562,1.00156 1.4788,2.26098 0.26992,1.24365 0.71841,2.4175 0.99714,2.60882 0.27851,0.19015 0.72189,2.77416 0.98533,5.7394 l 0.47863,5.39155 -2.46412,0 c -2.00032,0 -2.46411,-0.26181 -2.46411,-1.39137 0,-0.92758 -0.46403,-1.39137 -1.3916,-1.39137 -0.77291,0 -1.39137,-0.46379 -1.39137,-1.04352 0,-0.77616 -0.81906,-1.04353 -3.19621,-1.04353 -2.61067,0 -3.26253,0.25485 -3.55982,1.39137 -0.19943,0.76525 -0.64049,1.39137 -0.97836,1.39137 -0.33811,0 -0.61476,0.46959 -0.61476,1.04353 0,0.57394 0.2741,1.04352 0.60873,1.04352 0.33485,0 0.79679,0.93918 1.02636,2.08706 0.24488,1.22417 0.85616,2.08705 1.47833,2.08705 1.72971,0 1.42917,4.61146 -0.33045,5.07154 -1.28423,0.33579 -1.39067,0.94474 -1.38186,7.90739 0,8.41013 0.39469,10.67435 1.81087,10.67435 0.52941,0 0.96259,0.62612 0.96259,1.39137 0,0.77314 0.46379,1.39137 1.04353,1.39137 0.57417,0 1.04376,0.31306 1.04376,0.69568 0,0.38263 -0.46959,0.69569 -1.04376,0.69569 -0.57974,0 -1.04353,0.61846 -1.04353,1.39137 0,1.25896 -0.46379,1.39137 -4.87025,1.39137 -3.69919,0 -4.87026,-0.23306 -4.87026,-0.96909 0,-1.48065 -1.61839,-1.81365 -8.81896,-1.81365 -6.03275,0 -6.65005,0.1229 -6.98189,1.39137 -0.19943,0.76525 -0.79703,1.39137 -1.32621,1.39137 -0.63632,0 -0.9626,0.82554 -0.9626,2.43489 0,1.70072 -0.31468,2.4349 -1.04352,2.4349 -0.82068,0 -1.04376,0.96631 -1.04376,4.52195 0,3.55588 0.22262,4.52195 1.04376,4.52195 0.72884,0 1.04352,0.73441 1.04352,2.4349 0,1.70072 0.31468,2.43489 1.04376,2.43489 0.69801,0 1.04353,0.69824 1.04353,2.10886 0,1.23298 0.43341,2.27535 1.04353,2.50933 0.57417,0.2203 1.04376,0.83668 1.04376,1.36957 0,0.53313 0.62611,0.96909 1.39136,0.96909 1.08249,0 1.39161,0.46379 1.39161,2.08706 0,1.39137 0.34784,2.08705 1.04352,2.08705 0.57417,0 1.04376,0.45405 1.04376,1.00897 0,0.55493 0.49231,1.28447 1.09408,1.62118 0.60154,0.33671 1.26893,1.91754 1.48297,3.51298 0.24163,1.80113 0.75018,2.90077 1.34128,2.90077 0.52362,0 0.95193,0.62612 0.95193,1.39137 0,0.77314 0.46379,1.39137 1.04353,1.39137 0.57417,0 1.04375,0.47956 1.04375,1.06532 0,0.586 0.45058,1.23832 1.00109,1.44958 0.55052,0.21102 1.20168,1.29722 1.4468,2.4131 0.24511,1.11588 0.89047,2.02885 1.43404,2.02885 0.54356,0 0.98833,0.62611 0.98833,1.39137 0,0.76525 0.44478,1.39137 0.98834,1.39137 0.54356,0 1.19472,0.93917 1.44679,2.08705 0.25207,1.14788 0.71192,2.08705 1.0215,2.08705 0.30958,0 0.7685,1.09571 1.01987,2.4349 0.2734,1.45769 0.86311,2.4349 1.46882,2.4349 0.55678,0 1.01222,0.46958 1.01222,1.04352 0,0.57394 0.46959,1.04353 1.04353,1.04353 0.69824,0 1.04376,0.69824 1.04376,2.10885 0,1.23299 0.43341,2.27536 1.04353,2.50934 0.57394,0.2203 1.04376,0.83667 1.04376,1.36957 0,0.53313 0.62611,0.96909 1.39137,0.96909 0.77313,0 1.3916,0.46379 1.3916,1.04352 0,0.57394 0.46958,1.04353 1.04352,1.04353 0.72885,0 1.04376,0.73441 1.04376,2.4349 0,1.70072 0.31468,2.43489 1.04353,2.43489 0.57394,0 1.04376,0.49904 1.04376,1.10869 0,0.60989 0.62611,1.27241 1.39137,1.47254 0.76525,0.19943 1.3916,0.79702 1.3916,1.3262 0,0.52942 0.44454,0.96237 0.98834,0.96237 0.54356,0 1.19449,0.93917 1.44679,2.08705 0.25207,1.14788 0.7467,2.08706 1.09895,2.08706 0.35225,0 0.64026,0.46958 0.64026,1.04352 0,0.57974 0.61846,1.04353 1.3916,1.04353 0.92758,0 1.3916,0.46379 1.3916,1.39137 0,0.77314 0.46379,1.39137 1.04353,1.39137 0.57394,0 1.04353,0.40002 1.04353,0.88908 0,1.14765 2.49495,3.28503 3.83461,3.28503 0.57185,0 1.03587,0.6231 1.03587,1.39137 0,0.92758 0.46379,1.39137 1.39137,1.39137 0.76526,0 1.39161,0.43619 1.39161,0.96908 0,0.53313 0.46958,1.14928 1.04352,1.36958 0.57394,0.2203 1.04376,0.8798 1.04376,1.4658 0,0.586 0.46959,1.06533 1.04353,1.06533 0.57394,0 1.04353,0.46959 1.04353,1.04353 0,0.69568 0.69591,1.04352 2.08728,1.04352 1.6235,0 2.08729,0.30935 2.08729,1.39137 0,0.92758 0.46402,1.39137 1.3916,1.39137 0.7729,0 1.39137,0.46379 1.39137,1.04353 0,0.57974 0.61846,1.04353 1.3916,1.04353 0.77314,0 1.3916,0.46378 1.3916,1.04352 0,0.57394 0.46959,1.04353 1.04353,1.04353 0.57394,0 1.04352,0.44477 1.04352,0.98834 0,0.54356 0.91321,1.18869 2.02932,1.4338 1.11588,0.24511 2.20184,0.89628 2.41333,1.44679 0.21102,0.55052 0.86357,1.00086 1.44957,1.00086 0.586,0 1.06533,0.46959 1.06533,1.04353 0,0.68641 0.68687,1.04353 2.00612,1.04353 1.42105,0 2.11233,0.40581 2.36997,1.39137 0.26505,1.01314 0.94914,1.39136 2.51629,1.39136 1.44957,0 2.15245,0.34089 2.15245,1.04353 0,0.57974 0.61846,1.04353 1.3916,1.04353 0.7729,0 1.39137,0.46379 1.39137,1.04353 0,0.69568 0.69591,1.04352 2.08728,1.04352 1.6235,0 2.08729,0.30935 2.08729,1.39137 0,1.08226 0.46379,1.39137 2.08728,1.39137 1.39161,0 2.08729,0.34784 2.08729,1.04353 0,0.57974 0.61846,1.04353 1.39137,1.04353 0.77314,0 1.3916,0.46379 1.3916,1.04352 0,0.69569 0.69569,1.04353 2.08729,1.04353 1.62349,0 2.08728,0.30935 2.08728,1.39137 0,0.92758 0.46379,1.39137 1.39137,1.39137 0.76549,0 1.3916,0.29891 1.3916,0.66415 0,0.36546 1.09571,0.86983 2.43513,1.12098 1.39462,0.26157 2.43513,0.8696 2.43513,1.4229 0,0.69569 0.97419,0.96608 3.47866,0.96608 2.54203,0 3.47888,0.26621 3.47888,0.98833 0,1.2316 2.09123,1.5915 10.26298,1.76681 7.4362,0.16001 10.6096,-0.36918 10.6096,-1.76681 0,-0.72212 0.9369,-0.98833 3.4787,-0.98833 2.4938,0 3.4789,-0.27178 3.4789,-0.95982 0,-0.67922 1.2599,-1.05094 4.3084,-1.27148 2.4186,-0.17392 4.4278,-0.66948 4.5803,-1.12724 0.1485,-0.44848 1.4591,-0.81557 2.9101,-0.81557 4.0487,0 6.9865,-0.76781 6.9865,-1.82617 0,-0.7052 1.0962,-0.95657 4.1744,-0.95657 3.1315,0 4.1745,-0.24534 4.1745,-0.98231 0,-0.60385 1.0721,-1.16341 2.783,-1.45259 1.5307,-0.25856 2.783,-0.75551 2.783,-1.10451 0,-0.349 0.7045,-0.63887 1.5655,-0.64421 2.6564,-0.0232 4.6963,-0.80258 4.6963,-1.81086 0,-0.70264 1.0324,-0.96237 3.8268,-0.96237 2.7778,0 3.8265,-0.26134 3.8265,-0.95378 0,-0.61939 1.22,-1.11588 3.4789,-1.41526 1.9133,-0.25392 3.4786,-0.72351 3.4786,-1.04352 0,-0.32025 1.5655,-0.78984 3.4789,-1.04353 2.382,-0.31607 3.4787,-0.78288 3.4787,-1.48111 0,-0.74462 0.8445,-1.01964 3.1308,-1.01964 2.1928,0 3.131,-0.28663 3.131,-0.95657 0,-0.9466 2.8618,-1.82617 5.9428,-1.82617 0.877,0 1.7056,-0.33324 1.8415,-0.74044 0.1368,-0.40744 1.5706,-0.91807 3.1887,-1.13513 1.8332,-0.24581 2.9421,-0.75343 2.9421,-1.34661 0,-0.62403 0.8385,-0.95193 2.4351,-0.95193 1.7007,0 2.4352,-0.31468 2.4352,-1.04353 0,-0.78844 0.8503,-1.04352 3.4786,-1.04352 2.6285,0 3.4789,-0.25509 3.4789,-1.04353 0,-0.74786 0.7634,-1.04353 2.696,-1.04353 4.1029,0 7.0445,-0.76247 7.0445,-1.82617 0,-0.70519 1.0964,-0.95657 4.1746,-0.95657 3.0779,0 4.1743,-0.25114 4.1743,-0.95656 0,-1.06347 2.9416,-1.82618 7.0445,-1.82618 1.483,0 2.696,-0.2727 2.696,-0.60594 0,-0.33346 1.5656,-0.81372 3.4789,-1.06741 2.382,-0.31607 3.4787,-0.78288 3.4787,-1.48111 0,-0.80978 1.133,-1.01964 5.5049,-1.01964 l 5.505,0 0.4652,2.75352 c 0.8802,5.21067 -1.378,8.37743 -5.9741,8.37743 -2.2631,0 -2.923,0.28593 -3.2122,1.39137 -0.3159,1.20817 -0.9489,1.39137 -4.8051,1.39137 -3.2985,0 -4.4413,0.24558 -4.4413,0.95401 0,0.6194 -1.22,1.11565 -3.4786,1.41526 -1.9134,0.25392 -3.4789,0.73209 -3.4789,1.06254 0,0.33068 -2.1914,0.82114 -4.8703,1.09014 -3.4749,0.349 -4.8702,0.7678 -4.8702,1.4621 0,0.68919 -0.9125,0.9728 -3.1308,0.9728 -2.1768,0 -3.1308,0.28847 -3.1308,0.94659 0,0.6231 -1.2469,1.09431 -3.6487,1.37885 -2.0066,0.23769 -3.7546,0.75087 -3.8845,1.14046 -0.1298,0.38958 -1.7364,0.7082 -3.57,0.7082 -4.7021,0 -7.6822,0.70844 -7.6822,1.82618 0,0.62959 -0.833,0.95656 -2.4351,0.95656 -1.598,0 -2.4351,0.32767 -2.4351,0.95309 0,0.62009 -1.1472,1.08225 -3.2821,1.32296 -1.8053,0.20407 -3.3933,0.7038 -3.5294,1.11194 -0.1368,0.40813 -1.3204,0.94335 -2.632,1.18939 -1.3559,0.25439 -2.3843,0.86404 -2.3843,1.4134 0,0.71702 -1.0765,0.96607 -4.1746,0.96607 -3.0569,0 -4.1746,0.25346 -4.1746,0.9466 0,0.6231 -1.2469,1.09431 -3.6484,1.37884 -2.0066,0.23769 -3.7548,0.75088 -3.8847,1.14046 -0.1299,0.38958 -1.0709,0.71261 -2.0915,0.71772 -2.9251,0.0232 -4.9862,0.76363 -4.9862,1.81086 0,0.6769 -0.9289,0.96237 -3.1308,0.96237 -2.1881,0 -3.131,0.28731 -3.131,0.95378 0,0.6711 -1.4424,1.0957 -4.8703,1.43334 -2.6786,0.2639 -4.8702,0.77407 -4.8702,1.13351 0,0.35943 -0.4988,0.65348 -1.1087,0.65348 -0.6099,0 -1.2724,0.62611 -1.4728,1.39136 -0.3158,1.20818 -0.9489,1.39137 -4.8051,1.39137 -3.3119,0 -4.4412,0.24419 -4.4412,0.96005 0,0.67713 -1.2453,1.05002 -4.2298,1.26568 -2.3264,0.16928 -4.4396,0.62728 -4.6963,1.02011 -0.2565,0.39283 -1.3274,0.92479 -2.3797,1.18234 -1.0524,0.25752 -1.9134,0.93184 -1.9134,1.49848 0,0.56666 -0.6261,1.03028 -1.3916,1.03028 -0.7653,0 -1.3914,0.43476 -1.3914,0.9661 0,0.55333 -1.0405,1.16128 -2.4351,1.42291 -1.3394,0.25121 -2.4351,0.75565 -2.4351,1.12093 0,0.36531 -1.3306,0.66844 -2.9572,0.67366 -3.9633,0.0116 -6.0877,0.64464 -6.0877,1.81086 0,0.73919 -1.2909,0.96239 -5.56612,0.96239 -4.48369,0 -5.56594,0.20291 -5.56594,1.04353 0,0.84458 -1.11194,1.04352 -5.83286,1.04352 -6.61735,0 -6.6628,0.0436 -6.68112,6.43509 0,2.84386 0.18552,3.3045 1.38186,3.3045 1.08249,0 1.3916,0.46379 1.3916,2.08705 0,1.39137 0.34785,2.08706 1.04353,2.08706 0.8012,0 1.04376,0.88892 1.04376,3.82626 0,2.93735 -0.24256,3.82627 -1.04376,3.82627 -0.69568,0 -1.04353,0.69569 -1.04353,2.08705 0,1.31318 -0.35688,2.08706 -0.96259,2.08706 -1.05466,0 -1.79603,2.06479 -1.81087,5.04371 0,1.23255 -0.38077,1.91314 -1.05327,1.91314 -0.69568,0 -1.04352,0.69568 -1.04352,2.08705 0,1.39137 -0.34785,2.08705 -1.04376,2.08705 -0.78844,0 -1.04353,0.85029 -1.04353,3.47843 0,2.4876 -0.27248,3.47842 -0.95657,3.47842 -0.52616,0 -1.14254,0.92939 -1.3698,2.0653 -0.4195,2.09726 -2.66749,4.89155 -3.93549,4.89155 -0.38262,0 -0.69568,0.62611 -0.69568,1.39137 0,0.92758 -0.46379,1.39137 -1.39137,1.39137 -0.76549,0 -1.3916,0.4361 -1.3916,0.96909 0,0.53301 -0.46959,1.14929 -1.04353,1.36954 -0.61011,0.23408 -1.04376,1.27652 -1.04376,2.50934 0,2.03562 -0.10899,2.10887 -3.13081,2.10887 -2.31918,0 -3.13105,0.27056 -3.13105,1.04353 0,0.57974 -0.61846,1.04353 -1.39137,1.04353 -0.77313,0 -1.3916,0.46379 -1.3916,1.04352 0,0.67231 -0.68061,1.04692 -1.91336,1.05302 -2.97916,0.0139 -5.04418,0.75614 -5.04418,1.81086 0,0.72069 -1.13582,0.96239 -4.52241,0.96239 -3.35019,0 -4.52219,0.24535 -4.52219,0.94662 0,0.6215 -1.23669,1.09308 -3.6004,1.37298 -1.98015,0.23449 -3.78406,0.7237 -4.00876,1.08712 -0.22494,0.36343 -2.36139,0.88174 -4.74875,1.15178 -2.97359,0.33641 -4.34037,0.79129 -4.34037,1.44468 0,0.62612 -0.83622,0.95367 -2.43513,0.95367 -1.5966,0 -2.43513,0.3278 -2.43513,0.95193 0,0.5901 -1.09594,1.0989 -2.88315,1.33861 -1.58593,0.21265 -3.07307,0.68416 -3.30473,1.04772 -0.2319,0.36357 -1.43914,0.88178 -2.6828,1.15157 -1.25965,0.27327 -2.2612,0.92823 -2.2612,1.47877 0,0.63426 -0.74763,0.98824 -2.08729,0.98824 -1.4461,0 -2.08729,0.34061 -2.08729,1.10867 0,0.60975 -0.62611,1.27238 -1.3916,1.47249 -0.76525,0.20012 -1.39137,0.6404 -1.39137,0.97841 0,0.33798 -0.49903,0.61454 -1.10869,0.61454 -0.60988,0 -1.27263,0.62612 -1.47276,1.39137 -0.19943,0.76526 -0.79702,1.39137 -1.32644,1.39137 -0.52942,0 -0.96236,0.4447 -0.96236,0.9882 0,0.5436 -0.95263,1.1975 -2.1172,1.4532 -1.62188,0.3562 -2.21158,0.9385 -2.52209,2.4902 -0.22262,1.1139 -0.83552,2.0252 -1.36169,2.0252 -0.52617,0 -0.95657,0.4696 -0.95657,1.0436 0,0.5739 -0.46958,1.0435 -1.04375,1.0435 -0.57394,0 -1.04353,0.4696 -1.04353,1.0435 0,0.5798 -0.61847,1.0436 -1.3916,1.0436 -0.92758,0 -1.39137,0.4637 -1.39137,1.3913 0,0.7653 -0.31306,1.3914 -0.69592,1.3914 -0.38263,0 -0.69568,0.4989 -0.69568,1.1087 0,0.6097 -0.62612,1.2723 -1.39137,1.4724 -0.98579,0.2578 -1.3916,0.949 -1.3916,2.3698 0,1.765 -0.25068,2.0059 -2.08729,2.0059 -1.44586,0 -2.08729,0.3406 -2.08729,1.1087 0,0.6097 -0.62611,1.2724 -1.39137,1.4725 -0.98578,0.2577 -1.3916,0.9489 -1.3916,2.3698 0,1.5421 -0.32163,2.0059 -1.39137,2.0059 -0.80119,0 -1.3916,0.4638 -1.3916,1.0932 0,1.406 -1.67497,3.0809 -3.08118,3.0809 -0.6296,0 -1.09339,0.5903 -1.09339,1.3914 0,0.7729 -0.46379,1.3913 -1.04353,1.3913 -0.57417,0 -1.04376,0.4 -1.04376,0.889 0,1.3162 -2.33239,3.0756 -4.79419,3.6163 -1.18985,0.2613 -2.16335,0.9198 -2.16335,1.4633 0,0.6657 -0.79493,0.9883 -2.43503,0.9883 -1.70072,0 -2.43513,0.3147 -2.43513,1.0435 0,0.7884 -0.85036,1.0435 -3.47866,1.0435 -2.62853,0 -3.47889,0.2551 -3.47889,1.0436 0,0.8812 -1.62326,1.0435 -10.4362,1.0435 -8.81293,0 -10.4362,-0.1623 -10.4362,-1.0435 0,-0.8761 -1.50754,-1.0436 -9.39267,-1.0436 -7.88535,0 -9.39267,-0.1674 -9.39267,-1.0435 0,-0.8992 -2.35791,-1.0435 -17.0459,-1.0435 -14.68822,0 -17.04613,0.1442 -17.04613,1.0435 0,0.8282 -1.0048,1.0435 -4.87025,1.0435 -3.86523,0 -4.87026,0.2155 -4.87026,1.0436 0,0.7624 -0.79656,1.046 -2.95689,1.053 -3.96355,0.012 -6.08794,0.6446 -6.08794,1.8108 0,0.7207 -1.13582,0.9624 -4.52218,0.9624 -3.35042,0 -4.52241,0.2454 -4.52241,0.9466 0,0.6231 -1.24714,1.0943 -3.64864,1.3787 -2.00659,0.2377 -3.75461,0.7509 -3.88447,1.1405 -0.12986,0.3896 -2.01053,0.7126 -4.17875,0.7178 -4.90689,0.012 -7.07349,0.5665 -7.07349,1.8109 0,0.7207 -1.13582,0.9624 -4.52241,0.9624 -3.34532,0 -4.52241,0.2458 -4.52241,0.9444 0,1.1034 -5.60375,1.8383 -14.01712,1.8383 -3.17882,0 -5.46391,0.291 -5.46391,0.6957 0,0.3826 -0.7045,0.6999 -1.56552,0.7052 -2.65613,0.016 -4.69634,0.8027 -4.69634,1.8108 0,0.5293 -0.62611,0.9624 -1.3916,0.9624 -0.76525,0 -1.39137,0.4331 -1.39137,0.9624 0,1.0081 -2.04021,1.7947 -4.69633,1.8109 -0.86103,0.01 -1.56553,0.3225 -1.56553,0.7051 0,1.0146 -12.33495,0.9136 -12.67398,-0.1038 -0.36153,-1.0844 -12.23107,-1.2292 -12.91655,-0.1575 -0.27502,0.4302 -1.51775,1.0029 -2.7614,1.2727 -1.25965,0.2733 -2.26121,0.9283 -2.26121,1.4788 0,0.7221 -0.93685,0.9882 -3.47865,0.9882 -2.55409,0 -3.47889,0.2647 -3.47889,0.9958 0,0.7403 -1.42708,1.1202 -5.56594,1.4812 -3.06124,0.267 -5.56594,0.758 -5.56594,1.0913 0,0.3332 -0.62635,0.6059 -1.3916,0.6059 -0.76525,0 -1.39137,-0.2882 -1.39137,-0.6404 0,-0.3523 -0.93941,-0.8467 -2.08729,-1.0989 -1.14811,-0.2521 -2.08728,-0.9031 -2.08728,-1.4466 0,-0.6656 -0.79494,-0.9883 -2.43513,-0.9883 -2.22155,0 -2.43513,-0.1764 -2.43513,-2.0116 0,-1.5832 0.38309,-2.1078 1.79858,-2.463 0.98903,-0.2482 2.39802,-0.2611 3.13081,-0.029 1.01941,0.3235 1.33224,0.085 1.33224,-1.0154 0,-1.2142 0.43364,-1.4383 2.7832,-1.4383 1.53051,0 2.78297,-0.313 2.78297,-0.6956 0,-1.1481 2.62644,-3.4127 4.50456,-3.8841 0.96654,-0.2425 1.75707,-0.8765 1.75707,-1.409 0,-0.5325 0.62634,-0.9681 1.3916,-0.9681 0.77313,0 1.3916,-0.4638 1.3916,-1.0435 0,-0.574 0.46959,-1.0436 1.04353,-1.0436 0.57394,0 1.04352,-0.4695 1.04352,-1.0435 0,-0.5797 0.61847,-1.0435 1.3916,-1.0435 0.92758,0 1.3916,-0.4638 1.3916,-1.3914 0,-1.0822 0.46379,-1.3914 2.08706,-1.3914 1.62349,0 2.08728,-0.3092 2.08728,-1.3913 0,-0.773 0.46402,-1.3914 1.04376,-1.3914 0.57394,0 1.04353,-0.4696 1.04353,-1.0435 0,-0.574 0.46958,-1.0435 1.04376,-1.0435 0.57394,0 1.04352,-0.4696 1.04352,-1.0436 0,-0.5797 0.61847,-1.0435 1.3916,-1.0435 0.77291,0 1.39137,-0.4638 1.39137,-1.0435 0,-0.574 0.47956,-1.0436 1.06556,-1.0436 0.586,0 1.24574,-0.4695 1.46604,-1.0435 0.22726,-0.5948 1.26592,-1.0435 2.4131,-1.0435 1.54906,0 2.01285,-0.3207 2.01285,-1.3914 0,-1.1263 0.46402,-1.3913 2.43513,-1.3913 1.64019,0 2.43512,-0.3227 2.43512,-0.9883 0,-0.5436 0.93941,-1.1945 2.08729,-1.4466 1.14811,-0.2522 2.08729,-0.7358 2.08729,-1.0749 0,-0.3391 1.56552,-0.8241 3.47865,-1.0779 2.25889,-0.2996 3.47889,-0.7959 3.47889,-1.4153 0,-0.5247 0.62611,-0.9539 1.3916,-0.9539 0.76525,0 1.39137,-0.4284 1.39137,-0.9519 0,-0.5932 1.10892,-1.1007 2.94205,-1.3465 1.61816,-0.2171 3.05313,-0.7278 3.18879,-1.1351 0.13681,-0.4074 1.43403,-0.7406 2.885,-0.7406 4.04889,0 6.98653,-0.7679 6.98653,-1.8262 0,-0.7319 1.30719,-0.9565 5.56594,-0.9565 4.33319,0 5.56617,-0.218 5.56617,-0.9837 0,-0.7991 2.17611,-1.0276 11.5966,-1.2175 8.48759,-0.1711 11.67406,-0.4669 11.88554,-1.1033 0.16001,-0.4783 1.23183,-0.8697 2.38365,-0.8697 1.50941,0 2.19628,-0.3887 2.45832,-1.3913 0.25787,-0.9856 0.94915,-1.3914 2.36997,-1.3914 1.31948,0 2.00612,-0.3572 2.00612,-1.0435 0,-0.574 0.49904,-1.0435 1.10892,-1.0435 0.60965,0 1.27241,-0.6262 1.47253,-1.3914 0.19943,-0.7653 0.79703,-1.3914 1.32644,-1.3914 0.52942,0 0.96237,-0.4696 0.96237,-1.0435 0,-0.5739 0.46981,-1.0435 1.04375,-1.0435 0.57394,0 1.04353,-0.4696 1.04353,-1.0436 0,-0.5739 0.47956,-1.0435 1.06556,-1.0435 0.586,0 1.24249,-0.4611 1.45862,-1.0246 0.21566,-0.5635 1.45885,-1.2245 2.76117,-1.4688 1.34337,-0.252 2.36788,-0.8622 2.36788,-1.4103 0,-0.5314 0.46982,-0.96608 1.04376,-0.96608 0.57394,0 1.04353,-0.46959 1.04353,-1.04353 0,-0.72469 0.72884,-1.04352 2.3855,-1.04352 1.31206,0 2.85509,-0.46959 3.42903,-1.04353 0.57394,-0.57394 1.53561,-1.04353 2.13691,-1.04353 0.62959,0 1.09338,-0.59029 1.09338,-1.39137 0,-1.12636 0.46379,-1.39137 2.43513,-1.39137 1.64019,0 2.43513,-0.32261 2.43513,-0.98826 0,-0.54354 0.93941,-1.19452 2.08729,-1.44663 1.14811,-0.25212 2.08728,-0.74659 2.08728,-1.09881 0,-0.35223 0.49881,-0.6404 1.10869,-0.6404 0.60989,0 1.27264,-0.62612 1.47277,-1.39137 0.25462,-0.97405 0.94891,-1.39137 2.31477,-1.39137 1.61283,0 2.0321,-0.37096 2.42122,-2.14146 0.25856,-1.17779 0.26923,-3.21267 0.0232,-4.52195 -0.43713,-2.32982 -0.52014,-2.38049 -3.89398,-2.38049 -2.60024,0 -3.44712,0.25636 -3.44712,1.04352 0,0.7288 -0.73441,1.04353 -2.43513,1.04353 -1.59915,0 -2.43513,0.32751 -2.43513,0.9539 0,0.61937 -1.22,1.11572 -3.47889,1.41532 -1.91336,0.25379 -3.47865,0.73298 -3.47865,1.06484 0,0.33189 -1.95696,0.8364 -4.34849,1.12117 -2.39177,0.28474 -3.95706,0.65464 -3.47889,0.82195 2.19001,0.76611 0.48814,1.57967 -3.30474,1.57967 -3.13127,0 -4.17457,0.24548 -4.17457,0.98237 0,0.60395 -1.07205,1.16347 -2.78297,1.45252 -1.53074,0.25857 -2.78297,0.71526 -2.78297,1.01485 0,0.29958 -2.5047,0.76316 -5.56594,1.03019 -4.13886,0.36099 -5.56617,0.74079 -5.56617,1.48118 0,0.73107 -0.92457,0.99573 -3.47866,0.99573 -2.4982,0 -3.47889,0.2713 -3.47889,0.96248 0,0.67113 -1.36887,1.10906 -4.52241,1.44675 -2.48731,0.26633 -4.52241,0.7724 -4.52241,1.12455 0,0.35218 -0.8608,0.6446 -1.91314,0.64982 -2.97938,0.0139 -5.04418,0.75611 -5.04418,1.81084 0,0.63609 -0.82577,0.96241 -2.43512,0.96241 -1.60657,0 -2.43536,0.32665 -2.43536,0.95988 0,0.6792 -1.25989,1.0511 -4.30838,1.2715 -2.41843,0.1749 -4.4278,0.6694 -4.58039,1.1272 -0.14841,0.4485 -1.10683,0.8198 -2.12717,0.825 -2.92512,0.014 -4.9862,0.7635 -4.9862,1.8109 0,0.691 -0.98069,0.9624 -3.47889,0.9624 -2.6283,0 -3.47866,0.255 -3.47866,1.0435 0,0.7288 -0.73441,1.0435 -2.43512,1.0435 -1.70072,0 -2.43513,0.3147 -2.43513,1.0435 0,0.7624 -0.79679,1.0461 -2.95689,1.0531 -3.96355,0.012 -6.08794,0.6446 -6.08794,1.8108 0,0.6911 -0.98068,0.9624 -3.47889,0.9624 -2.50446,0 -3.47865,0.2706 -3.47865,0.9661 0,0.5533 -1.04052,1.1613 -2.43513,1.4229 -1.33943,0.2512 -2.43513,0.7557 -2.43513,1.1209 0,0.3653 -0.86103,0.6685 -1.91336,0.6737 -2.97916,0.014 -5.04418,0.7561 -5.04418,1.8108 0,0.6911 -0.98069,0.9625 -3.47865,0.9625 -2.48313,0 -3.47889,0.2729 -3.47889,0.9539 0,0.6193 -1.22,1.1157 -3.47866,1.4153 -1.91336,0.2538 -3.47888,0.7637 -3.47888,1.1331 0,0.3695 -0.86103,0.676 -1.91337,0.6812 -2.97915,0.014 -5.04418,0.7562 -5.04418,1.8109 0,0.6911 -0.98068,0.9624 -3.47865,0.9624 -2.50447,0 -3.47889,0.2706 -3.47889,0.9661 0,0.5533 -1.04028,1.1613 -2.43513,1.4229 -1.33919,0.2512 -2.43513,0.7153 -2.43513,1.0313 0,0.316 -1.56529,0.7822 -3.47865,1.036 -2.38226,0.316 -3.47889,0.7828 -3.47889,1.481 0,0.7597 -0.88653,1.0196 -3.47865,1.0196 -2.47061,0 -3.47889,0.2744 -3.47889,0.9468 0,0.6553 -1.33386,1.0679 -4.3311,1.3397 -2.38226,0.2159 -4.44334,0.729 -4.58039,1.1401 -0.13682,0.4111 -1.08411,0.7517 -2.10445,0.7569 -2.92512,0.014 -4.9862,0.7635 -4.9862,1.8109 0,0.6911 -0.98092,0.9624 -3.47889,0.9624 -2.62829,0 -3.47865,0.2551 -3.47865,1.0435 0,0.8206 -0.96631,1.0436 -4.52242,1.0436 -3.55611,0 -4.52241,0.2228 -4.52241,1.0435 0,0.6346 -0.64745,1.0435 -1.65249,1.0435 -3.13429,0 -6.00074,0.8723 -6.00074,1.8262 0,0.599 -0.78009,0.9565 -2.08729,0.9565 -1.31345,0 -2.08728,0.3569 -2.08728,0.9624 0,0.5293 -0.62612,1.1261 -1.3916,1.3263 -1.01315,0.2649 -1.39137,0.9489 -1.39137,2.516 0,1.4493 -0.34089,2.1522 -1.04376,2.1522 -0.69569,0 -1.04353,0.6957 -1.04353,2.087 0,1.3914 -0.34784,2.0871 -1.04376,2.0871 -0.57973,0 -1.04352,0.6184 -1.04352,1.3914 0,0.9275 -0.46379,1.3913 -1.39161,1.3913 -1.06834,0 -1.39136,0.4638 -1.39136,1.9975 0,1.8716 -0.2203,2.0264 -3.47889,2.4588 -2.38203,0.316 -3.47866,0.7828 -3.47866,1.481 0,0.5608 -0.31306,1.0196 -0.69568,1.0196 -0.38286,0 -0.69592,0.4696 -0.69592,1.0435 0,0.7306 -0.73673,1.0435 -2.45693,1.0435 -1.5421,0 -2.60603,0.3886 -2.8574,1.0436 -0.2203,0.5739 -1.07136,1.0477 -1.89157,1.053 -2.58748,0.016 -4.6219,0.8135 -4.6219,1.8108 0,0.5294 -0.62611,0.9624 -1.39137,0.9624 -0.77313,0 -1.3916,0.4638 -1.3916,1.0436 0,0.5739 -0.46959,1.0435 -1.04353,1.0435 -0.57394,0 -1.04375,0.4696 -1.04375,1.0435 0,0.574 -0.49881,1.0435 -1.10869,1.0435 -0.60989,0 -1.27241,0.6262 -1.47277,1.3914 -0.19943,0.7653 -0.61545,1.3914 -0.92317,1.3914 -0.30749,0 -0.76549,0.9392 -1.01779,2.087 -0.25207,1.1479 -0.90323,2.0871 -1.44679,2.0871 -0.54356,0 -0.98834,0.6261 -0.98834,1.3914 0,1.2588 -0.46379,1.3913 -4.87025,1.3913 -3.6767,0 -4.87026,0.2352 -4.87026,0.9599 0,0.6774 -1.24528,1.05 -4.22976,1.2659 -2.32637,0.1681 -4.44288,0.6506 -4.7033,1.072 -0.26041,0.4213 -1.3313,0.9813 -2.3797,1.2444 -1.04863,0.2632 -1.90641,0.9141 -1.90641,1.4466 0,0.5324 -0.46959,0.9681 -1.04376,0.9681 -0.57394,0 -1.04353,0.4305 -1.04353,0.9565 0,0.9539 -2.86645,1.8262 -6.00097,1.8262 -0.9088,0 -1.65225,0.3131 -1.65225,0.6957 0,0.3826 -0.7045,0.6999 -1.56553,0.7052 -2.65635,0.016 -4.69633,0.8028 -4.69633,1.8108 0,0.5294 -0.62612,0.9624 -1.3916,0.9624 -0.76526,0 -1.39137,0.4293 -1.39137,0.9539 0,0.6194 -1.22,1.1157 -3.47889,1.4153 -1.91313,0.2538 -3.47865,0.7638 -3.47865,1.1332 0,0.3695 -0.46959,0.6717 -1.04376,0.6717 -0.57974,0 -1.04353,0.6184 -1.04353,1.3914 0,0.9276 -0.46379,1.3914 -1.3916,1.3914 -0.77291,0 -1.39137,0.4638 -1.39137,1.0435 0,0.6957 -0.69569,1.0435 -2.08729,1.0435 -1.3916,0 -2.08728,0.3479 -2.08728,1.0435 0,0.574 -0.49881,1.0436 -1.10869,1.0436 -0.60989,0 -1.27264,0.6261 -1.47277,1.3913 -0.19943,0.7653 -0.79702,1.3914 -1.3262,1.3914 -0.52942,0 -0.9626,0.4447 -0.9626,0.9882 0,0.5436 -0.93917,1.1946 -2.08729,1.4467 -1.14787,0.2521 -2.08728,0.7466 -2.08728,1.0988 0,0.3523 -0.62612,0.6404 -1.39137,0.6404 -0.92781,0 -1.3916,0.4638 -1.3916,1.3914 0,0.773 -0.46379,1.3914 -1.04353,1.3914 -0.68641,0 -1.04376,0.6866 -1.04376,2.0059 0,1.4208 -0.40581,2.112 -1.39137,2.3697 -1.01338,0.265 -1.3916,0.949 -1.3916,2.5161 0,1.4492 -0.34088,2.1522 -1.04353,2.1522 -0.72907,0 -1.04375,0.7343 -1.04375,2.4349 0,1.7005 -0.31469,2.4349 -1.04353,2.4349 -0.72885,0 -1.04376,-0.7344 -1.04376,-2.4349 0,-1.9711 -0.26506,-2.4349 -1.39137,-2.4349 -0.77314,0 -1.3916,-0.4639 -1.3916,-1.0436 0,-0.6956 -0.69569,-1.0435 -2.08729,-1.0435 -1.39137,0 -2.08728,0.3479 -2.08728,1.0435 0,0.5797 -0.61847,1.0436 -1.39137,1.0436 -0.77314,0 -1.3916,0.4638 -1.3916,1.0435 0,0.5739 -0.46959,1.0435 -1.04353,1.0435 -0.57974,0 -1.04376,0.6184 -1.04376,1.3914 0,1.2986 -0.46379,1.3914 -6.95754,1.3914 -5.72062,0 -6.95755,0.1855 -6.95755,1.0435 0,0.5739 -0.46958,1.0435 -1.04352,1.0435 -0.69569,0 -1.04353,-0.6957 -1.04353,-2.087 z M 948.68931,910.17473 c 0,-0.72882 0.73441,-1.04352 2.43513,-1.04352 1.59033,0 2.43513,-0.32853 2.43513,-0.9469 0,-0.65529 1.33409,-1.06785 4.33133,-1.33961 2.38226,-0.21589 4.44334,-0.72905 4.58039,-1.14016 0.13682,-0.4111 1.19171,-0.74744 2.34353,-0.74744 1.50917,0 2.19604,-0.38873 2.45832,-1.39137 0.19943,-0.76525 0.79702,-1.39137 1.32643,-1.39137 0.69105,0 0.96237,-0.98061 0.96237,-3.47849 0,-2.48754 -0.27248,-3.47843 -0.95657,-3.47843 -0.52617,0 -1.14579,-0.94566 -1.37699,-2.10143 -0.3286,-1.64274 -0.87958,-2.19349 -2.52232,-2.52186 -1.15576,-0.23189 -2.10166,-0.85082 -2.10166,-1.37699 0,-0.5904 -0.76781,-0.95656 -2.00613,-0.95656 -1.42082,0 -2.1121,-0.40582 -2.36996,-1.39137 -0.26715,-1.0215 -0.94892,-1.39137 -2.56592,-1.39137 -1.21119,0 -2.67189,-0.46959 -3.24583,-1.04353 -0.57394,-0.57394 -1.64738,-1.04353 -2.38527,-1.04353 -0.73813,0 -1.34198,-0.46958 -1.34198,-1.04352 0,-0.78845 -0.85036,-1.04353 -3.47865,-1.04353 -2.54204,0 -3.47889,-0.26598 -3.47889,-0.9881 0,-0.54357 -0.93918,-1.19473 -2.08706,-1.4468 -1.14811,-0.25207 -2.08728,-0.71168 -2.08728,-1.02126 0,-0.30981 -1.09594,-0.7685 -2.43513,-1.01988 -1.45769,-0.2734 -2.43513,-0.86288 -2.43513,-1.46882 0,-0.55655 -0.62635,-1.01199 -1.3916,-1.01199 -0.76525,0 -1.3916,-0.42924 -1.3916,-0.95378 0,-0.61754 -1.20864,-1.11426 -3.42625,-1.40853 -1.88461,-0.24998 -3.53524,-0.7801 -3.66765,-1.17803 -0.13218,-0.39793 -1.56529,-0.90091 -3.18322,-1.11796 -1.83336,-0.24581 -2.94205,-0.75343 -2.94205,-1.34662 0,-0.62403 -0.83853,-0.95192 -2.43513,-0.95192 -1.60958,0 -2.43513,-0.32628 -2.43513,-0.96237 0,-1.06092 -2.06827,-1.79626 -5.09403,-1.81087 -1.07947,0 -2.43258,-0.47909 -3.00652,-1.05303 -0.57417,-0.57394 -1.64738,-1.04353 -2.3855,-1.04353 -0.73789,0 -1.34175,-0.46958 -1.34175,-1.04352 0,-0.72885 -0.73441,-1.04353 -2.43512,-1.04353 -1.60959,0 -2.43513,-0.32628 -2.43513,-0.96237 0,-0.99738 -2.03442,-1.7944 -4.6219,-1.81086 -0.82021,0 -1.67127,-0.4791 -1.89157,-1.05304 -0.2203,-0.57394 -0.88004,-1.04352 -1.4658,-1.04352 -0.58623,0 -1.06556,-0.46959 -1.06556,-1.04353 0,-0.78844 -0.85036,-1.04353 -3.47889,-1.04353 -3.01486,0 -3.47865,-0.18551 -3.47865,-1.39137 0,-0.80096 -0.46379,-1.39137 -1.09339,-1.39137 -0.6013,0 -1.56297,-0.46958 -2.13691,-1.04352 -0.57394,-0.57394 -1.64738,-1.04353 -2.3855,-1.04353 -0.73789,0 -1.34175,-0.46959 -1.34175,-1.04353 0,-0.57974 -0.61846,-1.04353 -1.39137,-1.04353 -0.76548,0 -1.3916,-0.31305 -1.3916,-0.69568 0,-1.14811 -2.62644,-3.41257 -4.50479,-3.88401 -0.9663,-0.24256 -1.75707,-0.87656 -1.75707,-1.40899 0,-0.53243 -0.46958,-0.96816 -1.04352,-0.96816 -0.57394,0 -1.04376,-0.49881 -1.04376,-1.10869 0,-0.60965 -0.62612,-1.27241 -1.39137,-1.47253 -0.76525,-0.19943 -1.3916,-0.64027 -1.3916,-0.97837 0,-0.33787 -0.49881,-0.61452 -1.10869,-0.61452 -0.60989,0 -1.27264,-0.62612 -1.47277,-1.39137 -0.31074,-1.18846 -0.94891,-1.39137 -4.37599,-1.39137 -4.51291,0 -4.84244,0.41277 -4.86076,6.08724 0,2.1601 -0.29056,2.95666 -1.05303,2.95666 -0.88282,0 -1.04376,1.66199 -1.04376,10.78311 0,8.66082 0.18784,10.78312 0.95216,10.78312 0.6936,0 1.04562,1.45583 1.29629,5.35978 0.19943,3.09719 0.67783,5.4711 1.13513,5.62346 0.43504,0.14377 0.791,0.8638 0.791,1.59706 0,0.8696 0.48396,1.33339 1.3916,1.33339 1.08225,0 1.39137,0.46379 1.39137,2.08706 0,1.39136 0.34784,2.08705 1.04376,2.08705 0.57394,0 1.04352,0.34715 1.04352,0.77151 0,1.06881 2.93987,4.07161 4.00056,4.08622 0.4784,0 0.86961,0.48165 0.86961,1.05559 0,0.72884 0.73441,1.04353 2.43513,1.04353 1.66709,0 2.43512,0.31932 2.43512,1.01199 0,0.60594 0.97744,1.19541 2.43513,1.46882 1.33943,0.25137 2.43513,0.69452 2.43513,0.98532 0,0.29056 2.5047,0.74693 5.56617,1.01384 4.13886,0.36106 5.56595,0.74091 5.56595,1.48112 0,0.64258 0.7402,0.99575 2.08728,0.99575 1.35195,0 2.08729,0.35272 2.08729,1.00086 0,0.66206 1.11912,1.16597 3.30473,1.48807 1.81759,0.26784 3.52666,0.83227 3.79774,1.25409 0.29544,0.46008 3.70661,0.86926 8.52284,1.02212 6.27531,0.1992 8.03029,0.46653 8.03029,1.22334 0,0.69833 0.97024,0.96844 3.47865,0.96844 2.56267,0 3.47889,0.26362 3.47889,1.0009 0,0.6619 1.11912,1.16586 3.30473,1.48793 1.8176,0.26787 3.50092,0.79072 3.7407,1.16191 0.23955,0.37118 1.88322,0.83803 3.65258,1.03743 2.08357,0.23482 3.21707,0.69838 3.21707,1.31561 0,0.71619 1.21026,0.95307 4.87026,0.95307 3.86523,0 4.87026,0.21543 4.87026,1.04352 0,0.84062 1.08225,1.04353 5.56594,1.04353 4.48369,0 5.56594,-0.20291 5.56594,-1.04353 z m -48.70257,-88.00418 c 0,-2.54157 -0.26621,-3.47842 -0.98833,-3.47842 -0.54356,0 -1.18893,-0.91297 -1.43404,-2.02885 -0.24511,-1.11588 -0.89627,-2.20184 -1.44679,-2.4131 -0.55075,-0.21102 -1.00109,-0.86358 -1.00109,-1.44958 0,-0.58576 -0.46959,-1.06532 -1.04376,-1.06532 -0.57974,0 -1.04353,-0.61823 -1.04353,-1.39137 0,-0.76525 -0.31306,-1.39137 -0.69568,-1.39137 -1.14835,0 -3.41303,-2.62621 -3.88447,-4.50409 -0.24257,-0.96631 -0.87657,-1.75707 -1.40923,-1.75707 -0.53243,0 -0.96816,-0.62612 -0.96816,-1.39137 0,-0.76525 -0.45544,-1.39137 -1.01222,-1.39137 -0.60571,0 -1.19542,-0.97744 -1.46882,-2.4349 -0.26158,-1.39438 -0.86961,-2.43489 -1.42314,-2.43489 -0.53128,0 -0.96608,-0.31306 -0.96608,-0.69569 0,-0.38262 -0.46959,-0.69568 -1.04376,-0.69568 -0.57394,0 -1.04352,0.27387 -1.04352,0.60872 0,0.33486 -0.93918,0.79656 -2.08729,1.02614 -1.98688,0.39746 -2.08729,0.58553 -2.08729,3.91322 0,1.92264 0.28825,3.49582 0.6405,3.49582 0.35225,0 0.84688,0.93917 1.09895,2.08705 0.25207,1.14788 0.90323,2.08706 1.44679,2.08706 0.54356,0 0.98834,0.62611 0.98834,1.39137 0,0.77313 0.46379,1.39137 1.04352,1.39137 0.57417,0 1.04376,0.46958 1.04376,1.04352 0,0.57394 0.4304,1.04353 0.95657,1.04353 0.52617,0 1.14463,0.93917 1.37421,2.08705 0.24488,1.22418 0.85615,2.08706 1.47856,2.08706 0.59713,0 1.06092,0.60826 1.06092,1.39137 0,1.08225 0.46379,1.39137 2.08728,1.39137 1.39137,0 2.08729,0.34784 2.08729,1.04352 0,0.57974 0.61846,1.04353 1.39137,1.04353 0.92781,0 1.3916,0.46379 1.3916,1.39137 0,0.92758 0.46379,1.39137 1.39137,1.39137 0.77314,0 1.3916,0.46379 1.3916,1.04353 0,0.69568 0.69569,1.04352 2.08729,1.04352 2.0409,0 2.08728,-0.0765 2.08728,-3.47842 z m 331.87406,317.58015 c 0,-0.574 -0.4698,-1.0435 -1.0438,-1.0435 -0.5739,0 -1.0435,-0.4696 -1.0435,-1.0436 0,-0.773 0.8116,-1.0435 3.1308,-1.0435 2.3192,0 3.1308,0.2705 3.1308,1.0435 0,0.574 -0.4695,1.0436 -1.0435,1.0436 -0.5739,0 -1.0437,0.4695 -1.0437,1.0435 0,0.5739 -0.4696,1.0435 -1.0436,1.0435 -0.5739,0 -1.0435,-0.4696 -1.0435,-1.0435 z m 4.8703,-8.0501 c 0,-2.3208 1.3473,-4.1244 3.0811,-4.1244 0.8117,0 1.0932,-0.7168 1.0932,-2.7827 0,-2.6282 0.1159,-2.7828 2.0873,-2.7828 1.6979,0 2.0891,-0.292 2.0968,-1.5653 0.023,-2.656 0.8028,-4.6958 1.8111,-4.6958 0.5294,0 0.9623,-0.4696 0.9623,-1.0436 0,-0.6957 0.696,-1.0435 2.0873,-1.0435 1.8554,0 2.0873,0.2319 2.0873,2.0871 0,1.8551 -0.2319,2.087 -2.0873,2.087 -1.8438,0 -2.0873,0.2376 -2.0873,2.0361 0,1.3838 -0.3888,2.1109 -1.2142,2.2699 -0.944,0.1818 -1.235,0.9996 -1.3072,3.6751 -0.051,1.8928 -0.4438,3.5584 -0.8728,3.7015 -0.429,0.1431 -0.7801,0.7035 -0.7801,1.2455 0,0.5421 -0.6263,0.9856 -1.3916,0.9856 -0.7731,0 -1.3916,0.4638 -1.3916,1.0435 0,0.6957 -0.6957,1.0436 -2.0871,1.0436 -1.8662,0 -2.0872,-0.2264 -2.0872,-2.1368 z m 27.64,-37.5173 c -0.2064,-1.5305 -0.2064,-4.0349 0,-5.5654 0.3369,-2.5131 0.5667,-2.7828 2.3688,-2.7828 1.9924,0 1.9957,0.01 1.9957,4.522 0,4.0581 -0.1438,4.5219 -1.3914,4.5219 -0.7731,0 -1.3916,0.4638 -1.3916,1.0435 0,2.2416 -1.2288,0.8902 -1.5815,-1.7392 z m 11.322,-24.0011 c 0,-2.3189 0.2706,-3.1306 1.0435,-3.1306 0.7732,0 1.0438,0.8117 1.0438,3.1306 0,2.3189 -0.2706,3.1306 -1.0438,3.1306 -0.7729,0 -1.0435,-0.8117 -1.0435,-3.1306 z m 2.783,-10.0874 c 0,-1.1479 0.313,-2.0871 0.6959,-2.0871 0.3826,0 0.6957,0.9392 0.6957,2.0871 0,1.1479 -0.3131,2.087 -0.6957,2.087 -0.3829,0 -0.6959,-0.9391 -0.6959,-2.087 z m 9.0448,-18.7835 c 0,-1.3914 0.3479,-2.0871 1.0435,-2.0871 0.7291,0 1.0438,-0.7343 1.0438,-2.4349 0,-1.64 0.3226,-2.4349 0.9883,-2.4349 1.2629,0 2.0604,3.5837 1.4825,6.6634 -0.3889,2.0724 -0.7128,2.3805 -2.5023,2.3805 -1.8204,0 -2.0558,-0.239 -2.0558,-2.087 z m 4.8703,-6.9569 c 0,-1.1478 0.313,-2.087 0.6957,-2.087 0.3828,0 0.6959,0.9392 0.6959,2.087 0,1.1479 -0.3131,2.0871 -0.6959,2.0871 -0.3827,0 -0.6957,-0.9392 -0.6957,-2.0871 z m 2.0873,-2.087 c 0,-1.3914 0.3478,-2.0871 1.0435,-2.0871 0.6959,0 1.0437,0.6957 1.0437,2.0871 0,1.3914 -0.3478,2.087 -1.0437,2.087 -0.6957,0 -1.0435,-0.6956 -1.0435,-2.087 z M 707.95907,525.46103 c 0,-0.57394 0.31306,-1.04353 0.69569,-1.04353 0.38262,0 0.69591,0.46959 0.69591,1.04353 0,0.57394 -0.31329,1.04352 -0.69591,1.04352 -0.38263,0 -0.69569,-0.46958 -0.69569,-1.04352 z"
         transform="matrix(1.2620475,0,0,1.2620475,-1090.3764,-605.10635)"
         clip-path="url(#clipPath6355)"
         id="path6249"
         style="fill:#030303" />
      <path
         d="m -206.79908,911.3594 c 0,0 79.53811,25.4522 235.432799,-38.17829 155.894691,-63.63049 334.060051,-92.2642 556.766751,-28.63372 222.70671,63.63049 229.06976,98.62726 410.41664,60.44896 C 1177.164,866.81806 1177.164,866.81806 1177.164,866.81806 l 3.1815,143.16864 -1418.95982,6.363 3.18152,-108.17182 z"
         transform="translate(-598.36717,56.937545)"
         id="path6460"
         style="fill:#000000;stroke:#000000;stroke-width:1px;stroke-linecap:butt;stroke-linejoin:miter;stroke-opacity:1" />
      <path
         d="m -206.79908,911.3594 c 0,0 79.53811,25.4522 235.432799,-38.17829 155.894691,-63.63049 334.060051,-92.2642 556.766751,-28.63372 222.70671,63.63049 229.06976,98.62726 410.41664,60.44896 C 1177.164,866.81806 1177.164,866.81806 1177.164,866.81806 l 3.1815,143.16864 -1418.95982,6.363 3.18152,-108.17182 z"
         transform="translate(-598.36717,56.937545)"
         id="path6464"
         style="fill:url(#linearGradient6507);fill-opacity:1;stroke:#000000;stroke-width:1px;stroke-linecap:butt;stroke-linejoin:miter;stroke-opacity:1" />
    </g>
  </g>
</svg>
