<?xml version="1.0" standalone="no"?>
<!DOCTYPE svg PUBLIC "-//W3C//DTD SVG 20010904//EN"
 "http://www.w3.org/TR/2001/REC-SVG-20010904/DTD/svg10.dtd">
<svg version="1.0" xmlns="http://www.w3.org/2000/svg"
 width="900.000000pt" height="887.000000pt" viewBox="0 0 900.000000 887.000000"
 preserveAspectRatio="xMidYMid meet">
<metadata>
Created by potrace 1.15, written by Peter Selinger 2001-2017
</metadata>
<g transform="translate(0.000000,887.000000) scale(0.100000,-0.100000)"
fill="#000000" stroke="none">
<path d="M3150 8115 c-5 -14 -14 -25 -20 -25 -5 0 -10 -5 -10 -11 0 -6 6 -9
13 -6 11 4 12 -3 7 -35 -4 -22 -13 -45 -20 -51 -10 -9 -12 -8 -7 6 4 9 3 17 0
17 -4 0 -15 -8 -26 -17 -19 -17 -19 -17 -12 7 5 14 8 33 7 43 0 9 4 17 9 17 6
0 5 8 -2 21 -6 12 -18 19 -28 16 -9 -2 -22 2 -28 9 -17 17 -63 -4 -55 -25 3
-9 1 -12 -6 -7 -7 4 -14 -9 -19 -36 -6 -29 -14 -44 -27 -46 -14 -3 -17 1 -11
17 3 12 2 21 -4 21 -6 0 -9 -24 -7 -60 3 -55 -5 -78 -17 -47 -3 6 -6 2 -6 -9
-1 -12 -8 -27 -16 -34 -8 -7 -15 -19 -15 -27 0 -8 -5 -11 -10 -8 -6 3 -13 -1
-16 -9 -9 -25 -23 -19 -16 7 8 33 38 82 49 80 5 -1 9 14 9 32 0 19 6 45 14 59
7 14 11 28 8 31 -10 10 -77 -29 -78 -45 0 -8 -4 -21 -9 -29 -7 -10 -9 -2 -8
25 1 21 -3 39 -8 39 -4 0 -9 -20 -9 -45 -1 -32 -5 -44 -14 -42 -8 1 -11 -2 -8
-7 4 -5 1 -13 -5 -17 -8 -4 -3 -11 12 -20 21 -11 22 -13 7 -19 -10 -4 -18 -16
-18 -27 0 -10 -5 -16 -10 -13 -6 4 -15 -7 -21 -24 -6 -17 -15 -31 -19 -31 -14
0 -25 23 -13 27 7 3 9 16 7 29 -3 15 -1 23 5 20 5 -4 12 -2 15 3 4 5 1 13 -5
17 -8 4 -7 9 2 15 10 6 14 29 14 73 0 35 -2 62 -4 60 -2 -2 -10 1 -17 7 -17
14 -35 3 -28 -16 7 -17 -31 -35 -56 -28 -12 4 -12 3 -2 -5 20 -14 19 -19 -3
-36 -26 -20 -46 -20 -39 -1 10 25 -12 17 -24 -10 -12 -25 -1 -42 18 -30 6 3
10 -1 10 -9 0 -21 -17 -29 -24 -11 -3 8 -13 15 -23 15 -13 0 -14 3 -5 12 7 7
12 20 12 29 0 10 9 21 20 24 25 8 26 25 1 18 -21 -5 -37 12 -21 22 17 10 11
25 -10 25 -11 0 -20 -4 -20 -10 0 -5 -7 -10 -15 -10 -8 0 -15 -4 -15 -10 0 -5
4 -10 8 -10 5 0 4 -20 -2 -45 -12 -47 -26 -69 -26 -42 0 9 -4 17 -10 17 -5 0
-7 -7 -4 -15 4 -8 1 -15 -5 -15 -7 0 -19 -17 -27 -37 -8 -21 -20 -47 -26 -58
-28 -49 -68 -131 -68 -141 0 -6 -7 -17 -15 -24 -16 -14 -41 -62 -48 -95 -3
-12 -5 -6 -6 15 -2 29 -4 31 -10 15 -5 -11 -7 -33 -6 -48 2 -15 -1 -29 -6 -33
-5 -3 -9 -14 -9 -25 0 -11 -9 -29 -20 -41 -10 -12 -16 -26 -13 -31 4 -6 0 -8
-10 -4 -10 4 -17 2 -17 -5 0 -7 -4 -7 -13 1 -8 6 -17 8 -20 4 -4 -3 -7 8 -7
25 0 17 5 34 10 37 6 3 10 19 10 36 0 16 5 29 10 29 13 0 13 27 -1 35 -6 4
-13 -2 -16 -14 -3 -12 -9 -21 -14 -21 -5 0 -6 -7 -3 -15 4 -8 2 -21 -4 -28 -6
-6 -10 -14 -11 -17 -3 -52 -16 -90 -32 -95 -19 -6 -27 -45 -9 -45 6 0 10 -4
10 -9 0 -5 -11 -8 -25 -8 -14 0 -25 5 -25 13 0 15 -18 29 -27 20 -3 -3 2 -12
11 -21 17 -17 22 -55 7 -55 -5 0 -11 9 -14 20 -5 20 -27 28 -27 10 0 -5 5 -10
10 -10 16 0 12 -27 -5 -34 -13 -5 -45 1 -45 9 0 1 7 19 15 40 9 21 15 60 14
91 -2 44 2 59 19 77 24 26 29 41 10 32 -7 -3 -3 2 10 11 12 9 22 27 22 41 0
13 7 26 16 30 10 4 12 8 5 13 -7 4 -2 12 14 20 15 8 25 22 24 34 0 12 -3 15
-6 9 -10 -25 -23 -12 -19 20 2 20 9 33 20 35 9 2 16 -2 16 -8 0 -6 -4 -8 -10
-5 -13 8 -13 4 4 -35 8 -20 16 -28 20 -21 4 6 4 16 1 21 -4 6 -3 25 1 43 7 32
7 32 15 7 6 -23 7 -23 8 8 1 30 -1 32 -24 26 -30 -8 -31 -2 -4 53 12 24 22 56
23 71 1 15 6 37 10 50 4 12 3 22 -2 22 -12 0 -37 -30 -26 -30 5 0 2 -5 -6 -10
-10 -5 -15 -22 -15 -44 1 -19 -2 -33 -6 -30 -4 2 -14 -3 -22 -11 -9 -8 -20
-15 -26 -15 -6 0 -12 -7 -12 -15 -3 -32 -4 -36 -19 -46 -10 -7 -11 -12 -3 -15
8 -4 7 -17 -4 -51 -12 -34 -22 -47 -45 -55 l-30 -11 26 -24 c14 -13 26 -29 25
-36 0 -9 -2 -9 -6 1 -8 20 -20 14 -27 -13 -4 -17 -14 -25 -29 -26 -12 0 -16
-3 -9 -6 13 -5 17 -43 4 -43 -4 0 -13 5 -20 12 -13 13 -13 13 -16 -44 -1 -15
-6 -31 -10 -35 -5 -4 -5 3 -1 16 5 17 4 22 -6 19 -8 -3 -16 -15 -17 -28 -4
-23 -52 -103 -52 -86 0 5 -7 3 -15 -4 -9 -7 -13 -21 -10 -31 4 -13 1 -19 -9
-19 -10 0 -16 -9 -16 -25 0 -14 -4 -25 -9 -25 -8 0 -23 -32 -25 -57 -1 -7 -7
-18 -15 -25 -10 -10 -12 -10 -7 0 4 7 1 12 -8 12 -11 0 -14 10 -11 39 2 22 9
49 15 60 8 17 8 21 -4 21 -8 0 -22 8 -32 18 -10 9 -24 17 -33 17 -8 0 -16 6
-19 13 -2 6 2 10 10 8 7 -2 26 -7 41 -11 26 -5 28 -4 22 17 -4 13 -14 31 -22
40 -14 15 -13 20 6 47 22 30 28 61 12 61 -5 0 -8 16 -6 36 2 23 -1 34 -8 31
-7 -2 -13 -9 -13 -15 -1 -7 -2 -16 -3 -22 0 -5 -7 -7 -15 -4 -11 4 -16 -6 -21
-40 -5 -29 -12 -46 -21 -46 -8 0 -14 -10 -14 -25 0 -14 -5 -25 -11 -25 -5 0
-7 -4 -4 -10 3 -5 1 -18 -4 -28 -7 -13 -7 -22 1 -30 9 -9 9 -12 0 -12 -13 0
-33 -67 -37 -130 -4 -58 -33 -141 -54 -157 -15 -12 -14 -13 2 -7 11 4 17 1 17
-8 0 -21 -30 -78 -41 -78 -5 0 -9 -5 -9 -11 0 -5 5 -7 10 -4 6 3 10 -1 10 -9
0 -17 -29 -36 -54 -36 -9 0 -16 5 -16 10 0 6 9 10 19 10 16 0 18 5 12 27 -4
15 -12 28 -19 31 -14 4 -16 -14 -2 -23 6 -3 10 -12 10 -18 0 -8 -3 -7 -9 2
-10 15 -34 5 -28 -12 2 -6 -5 -19 -16 -28 -11 -9 -22 -26 -24 -39 -2 -13 -11
-29 -21 -36 -13 -10 -14 -15 -5 -25 17 -17 39 2 53 47 7 19 16 32 21 29 5 -4
9 -3 9 2 0 4 11 8 25 8 19 0 24 -4 19 -15 -3 -8 -9 -23 -11 -32 -3 -10 -10
-18 -15 -18 -6 0 -8 7 -5 15 4 8 1 17 -5 21 -8 5 -10 -3 -6 -27 8 -55 -4 -83
-35 -86 -15 -1 -27 2 -27 7 0 5 -8 6 -17 3 -12 -5 -15 -2 -10 10 4 12 2 14
-11 10 -9 -3 -14 -2 -9 2 9 11 -21 45 -40 45 -10 0 -14 -10 -12 -32 3 -50 0
-70 -10 -64 -5 3 -12 -1 -15 -10 -3 -8 -2 -12 4 -9 6 3 10 -1 10 -9 0 -21 -17
-20 -29 2 -9 15 -10 14 -11 -6 0 -32 -27 -59 -43 -43 -9 9 -9 14 2 20 7 5 10
14 7 20 -4 6 -1 14 7 16 8 4 12 18 11 40 -2 19 1 35 6 35 6 0 10 -4 10 -10 0
-5 7 -10 15 -10 8 0 15 -5 15 -12 0 -6 3 -8 7 -5 3 4 -3 16 -15 27 -16 16 -20
27 -15 57 l5 38 -18 -25 c-10 -14 -22 -28 -27 -31 -5 -3 -8 -9 -8 -13 0 -3 -2
-13 -6 -22 -5 -13 -7 -13 -14 -2 -7 10 -9 9 -9 -3 0 -9 -10 -20 -22 -24 -13
-3 -18 -9 -11 -11 7 -3 9 -12 6 -20 -3 -8 1 -14 10 -14 9 0 19 -5 22 -10 4 -6
3 -10 -2 -9 -28 5 -42 -6 -61 -49 -25 -56 -29 -86 -8 -56 8 10 17 16 21 13 6
-6 -14 -59 -26 -69 -3 -3 -8 -13 -12 -22 -4 -12 -12 -15 -23 -11 -14 5 -16 2
-12 -15 3 -11 1 -23 -5 -25 -6 -2 -11 -20 -11 -40 -1 -25 -6 -37 -16 -38 -12
0 -11 -2 2 -7 16 -6 16 -10 2 -38 -12 -25 -20 -30 -39 -26 -20 3 -24 9 -21 31
7 53 19 106 26 116 4 6 10 24 14 40 4 17 18 53 32 82 13 28 24 58 24 65 0 7 7
22 15 32 8 11 15 29 15 39 0 11 7 25 16 32 16 11 16 12 0 18 -11 4 -20 -2 -31
-22 -8 -16 -24 -31 -36 -34 -14 -4 -20 -11 -16 -21 3 -8 2 -18 -3 -21 -16 -10
-11 -33 7 -38 14 -4 12 -5 -5 -6 -17 -1 -24 -9 -28 -31 -4 -16 -10 -27 -15
-24 -5 3 -9 -2 -9 -10 0 -19 -31 -88 -44 -97 -5 -4 -6 -18 -2 -33 5 -20 3 -24
-9 -20 -10 4 -15 0 -15 -10 0 -9 -7 -19 -16 -23 -8 -3 -13 -12 -9 -20 4 -11 1
-13 -10 -9 -9 3 -14 2 -11 -2 7 -12 -22 -45 -33 -37 -16 9 -24 -20 -12 -44 10
-17 8 -19 -9 -16 -26 5 -26 -12 0 -20 11 -4 18 -10 15 -15 -3 -5 -1 -11 5 -15
16 -10 1 -25 -26 -25 -15 0 -24 -6 -24 -16 0 -9 6 -14 13 -11 8 3 21 -8 31
-25 11 -17 24 -27 32 -24 25 10 25 -14 -1 -26 -25 -11 -25 -11 -5 -30 11 -10
20 -25 20 -33 0 -8 3 -15 8 -15 6 0 7 -15 3 -77 -1 -7 -5 -13 -11 -13 -13 0
-50 -32 -50 -44 0 -5 9 -1 19 8 24 22 41 13 41 -19 0 -13 5 -27 10 -30 6 -4 8
-15 5 -26 -12 -36 23 -9 56 44 18 29 47 66 64 82 18 17 30 36 28 43 -3 7 4 12
17 12 18 0 21 4 17 21 -4 14 -2 19 8 15 7 -2 15 4 18 16 4 13 10 17 18 12 7
-4 10 -3 5 4 -3 6 -2 13 4 17 6 4 7 11 4 17 -4 6 -2 8 4 4 17 -11 -19 -106
-40 -106 -5 0 -8 -7 -8 -15 0 -8 -4 -15 -9 -15 -5 0 -13 -9 -16 -20 -3 -11
-14 -20 -24 -20 -26 0 -44 -25 -36 -50 3 -11 2 -20 -3 -20 -6 0 -13 -19 -17
-42 -4 -24 -14 -60 -21 -81 -9 -27 -10 -45 -3 -63 8 -21 7 -25 -5 -21 -16 6
-72 -40 -62 -51 4 -3 11 0 16 8 7 11 11 11 24 1 9 -8 16 -9 16 -3 0 6 -6 12
-12 15 -7 2 -10 8 -6 12 4 4 14 5 23 1 13 -5 16 -18 14 -63 -3 -54 -1 -58 22
-63 l24 -6 -26 -7 c-37 -9 -56 -56 -37 -93 7 -15 20 -30 28 -32 12 -4 13 -2 3
9 -7 7 -13 17 -13 23 0 5 6 2 13 -8 12 -16 11 -84 0 -72 -3 3 -21 -1 -40 -9
-43 -18 -43 -18 -43 0 0 12 -7 11 -35 -7 -39 -26 -46 -48 -15 -48 11 0 24 -8
27 -17 4 -10 11 -21 16 -24 4 -3 1 -13 -7 -22 -17 -17 -21 -37 -8 -37 4 0 14
17 22 38 7 20 15 31 17 25 3 -7 13 -13 24 -13 13 0 19 -7 19 -23 0 -12 9 -30
20 -40 12 -10 20 -29 20 -49 l0 -33 21 25 20 25 -4 -32 c-2 -18 0 -33 5 -33 4
0 8 5 8 11 0 5 5 7 12 3 8 -5 7 -10 -4 -18 -13 -10 -13 -13 -2 -24 11 -10 14
-10 14 0 0 10 3 9 9 -1 7 -11 10 -9 13 10 3 21 6 18 27 -25 19 -39 22 -52 13
-67 -15 -24 -15 -42 0 -33 7 5 9 1 6 -13 -3 -11 -1 -28 4 -37 7 -12 5 -16 -7
-16 -9 0 -13 -4 -10 -10 3 -5 15 -10 26 -10 12 0 19 -7 19 -19 0 -10 9 -21 19
-24 21 -5 41 9 41 30 0 7 5 13 10 13 6 0 10 8 10 18 0 14 2 15 10 2 6 -9 10
-10 10 -3 0 6 9 11 20 10 15 -1 18 -6 13 -22 -3 -11 -6 -25 -6 -31 0 -6 -8 -9
-18 -7 -13 4 -18 0 -17 -13 0 -11 -3 -27 -7 -38 -7 -15 -5 -17 12 -12 17 6 22
0 30 -33 13 -49 2 -71 -23 -50 -9 8 -19 13 -21 12 -1 -2 -3 -1 -3 2 0 3 0 8 0
11 0 4 6 1 13 -5 16 -13 27 -5 27 19 0 23 -39 19 -53 -6 -19 -33 -6 -124 17
-124 9 0 12 -9 8 -26 -3 -19 -1 -25 7 -20 24 15 41 -19 32 -65 -5 -24 -9 -38
-10 -31 -1 7 -5 11 -10 7 -5 -3 -8 -21 -6 -40 3 -31 1 -35 -16 -30 -10 4 -19
3 -19 0 0 -13 23 -50 36 -58 18 -11 18 -27 0 -27 -11 0 -15 -12 -14 -42 0 -34
3 -39 12 -27 6 9 16 14 21 13 6 -2 19 3 30 12 15 11 17 17 7 22 -9 7 -9 12 2
27 13 18 14 17 14 -18 0 -46 6 -54 27 -37 19 16 20 4 1 -15 -7 -8 -22 -12 -32
-9 -17 4 -19 0 -19 -35 0 -43 -30 -79 -49 -60 -17 16 -28 10 -22 -13 3 -13 3
-17 0 -10 -3 6 -10 10 -15 7 -5 -3 -3 -15 4 -26 10 -16 9 -21 -3 -29 -12 -7
-10 -9 7 -7 13 0 24 10 27 22 5 17 8 18 16 5 8 -12 10 -9 10 12 0 28 15 47 22
27 7 -20 50 13 44 34 -2 10 2 29 9 44 l13 25 27 -26 c25 -25 28 -26 39 -10 7
9 18 14 25 10 6 -4 14 0 17 8 7 18 24 11 24 -10 0 -8 -8 -14 -18 -14 -27 0
-44 -43 -28 -66 12 -15 15 -16 34 -2 12 8 19 18 15 22 -4 4 1 4 11 0 16 -6 16
-8 3 -16 -9 -4 -18 -22 -22 -39 -5 -23 -2 -36 13 -52 19 -20 22 -26 22 -43 0
-4 7 -1 15 6 19 16 37 80 26 94 -4 6 -11 20 -14 31 -6 18 -5 17 9 -2 9 -13 20
-23 24 -23 11 0 30 48 30 75 0 14 4 25 9 25 10 0 7 -60 -4 -104 -5 -17 -4 -27
1 -23 5 3 10 -7 11 -21 1 -24 0 -25 -10 -7 -20 36 -34 46 -41 29 -3 -8 -2 -13
3 -10 17 11 36 -30 32 -71 0 -7 -7 -10 -15 -7 -8 3 -17 0 -21 -6 -4 -7 2 -14
14 -17 12 -3 21 -9 21 -14 0 -5 -7 -6 -15 -3 -22 9 -18 -14 5 -26 11 -6 20
-17 20 -24 0 -8 12 -21 26 -31 25 -16 26 -16 19 4 -4 13 -2 21 6 21 7 0 10
-10 6 -29 -5 -25 -2 -30 18 -35 24 -6 65 11 65 26 0 16 30 7 50 -14 l21 -22
-21 -8 c-11 -4 -20 -14 -20 -22 0 -18 20 -32 20 -14 0 8 5 5 11 -5 6 -11 9
-31 7 -46 -5 -32 17 -61 25 -32 2 10 0 26 -5 35 -9 16 -8 16 21 1 30 -15 42
-35 21 -35 -5 0 -10 5 -10 12 0 6 -2 9 -5 6 -3 -3 -3 -13 1 -22 7 -19 30 -21
37 -3 3 6 6 0 6 -15 1 -15 6 -30 11 -33 6 -4 8 -10 5 -15 -3 -5 -1 -11 5 -15
5 -3 10 2 10 12 1 17 2 17 16 -2 8 -11 12 -25 9 -33 -3 -7 6 -34 20 -60 14
-26 25 -54 25 -62 0 -12 2 -13 9 -1 5 7 14 10 21 6 9 -6 9 -9 -1 -15 -10 -7
-10 -14 -2 -32 l12 -23 0 23 c1 25 7 27 44 10 15 -7 27 -21 27 -30 0 -10 5
-18 11 -18 7 0 10 -12 7 -30 -3 -19 0 -30 8 -30 18 0 25 -53 8 -71 -8 -8 -14
-21 -14 -27 0 -7 -6 -12 -14 -12 -7 0 -23 -13 -36 -30 -17 -23 -26 -27 -36
-19 -7 6 -10 17 -7 25 3 9 -1 14 -12 14 -9 0 -15 6 -12 13 2 7 19 12 40 11 27
-1 38 3 42 17 6 17 17 23 37 20 4 0 5 6 2 14 -7 17 -24 20 -24 5 0 -14 -27
-13 -32 1 -3 8 -8 7 -18 -2 -8 -8 -28 -15 -45 -17 -16 -2 -32 -8 -35 -13 -7
-11 -60 11 -60 25 0 5 -9 1 -20 -9 -11 -10 -33 -18 -50 -17 -16 0 -30 -4 -30
-9 0 -5 -7 -9 -16 -7 -10 2 -19 -3 -22 -11 -3 -10 0 -12 11 -8 9 3 18 -1 21
-9 4 -11 1 -14 -12 -10 -14 5 -20 -6 -35 -52 -21 -69 -21 -86 -2 -102 8 -7 15
-18 15 -25 0 -7 7 -18 15 -25 13 -11 15 -8 15 16 0 41 14 58 40 51 17 -4 20
-3 11 6 -18 18 -13 31 25 73 24 25 37 49 37 67 0 15 6 27 13 27 23 0 44 -12
44 -26 0 -8 4 -14 9 -14 14 0 4 -62 -11 -71 -10 -7 -10 -12 -1 -28 10 -15 10
-21 0 -25 -9 -3 -8 -7 3 -15 8 -6 11 -11 5 -11 -5 0 -18 -27 -29 -60 -10 -33
-23 -57 -28 -54 -6 4 -8 -1 -4 -14 8 -24 -12 -40 -26 -21 -7 10 -8 8 -5 -8 3
-14 0 -23 -6 -23 -7 0 -3 -7 7 -15 11 -8 17 -18 13 -21 -4 -4 -13 -1 -22 6 -9
7 -18 10 -22 6 -3 -3 -1 -6 6 -6 9 0 9 -5 -1 -22 -7 -13 -11 -27 -10 -31 1 -4
-5 -10 -13 -13 -23 -9 -18 -32 11 -51 l26 -17 -21 -17 c-11 -9 -21 -25 -21
-33 0 -9 -7 -19 -15 -22 -8 -4 -15 -12 -15 -19 0 -8 -8 -16 -17 -19 -10 -3 -3
-4 15 -2 21 2 32 -2 32 -11 0 -7 -4 -13 -10 -13 -5 0 -10 -7 -10 -15 0 -9 -6
-12 -16 -8 -10 4 -17 -2 -21 -17 -4 -15 -11 -20 -24 -17 -11 3 -22 1 -25 -4
-3 -5 -10 -7 -15 -3 -14 8 0 24 35 40 17 7 23 13 14 14 -14 0 -15 4 -7 30 6
17 18 30 26 30 8 0 12 4 9 9 -3 5 1 11 9 15 9 3 15 18 15 37 0 25 3 29 13 20
8 -6 17 -8 20 -4 6 5 -36 33 -49 33 -2 0 -4 -13 -4 -29 0 -21 -5 -28 -17 -27
-13 1 -17 -5 -16 -21 2 -14 -4 -24 -17 -28 -10 -3 -20 -16 -22 -28 -2 -12 -14
-27 -26 -33 -15 -7 -20 -14 -13 -18 6 -4 11 -12 11 -19 0 -8 -3 -8 -12 1 -16
16 -28 15 -28 -3 0 -8 5 -15 11 -15 7 0 8 -11 4 -30 -4 -17 -2 -30 3 -30 11 0
23 -38 13 -42 -3 -2 -17 -16 -31 -31 l-25 -29 30 13 c17 7 37 21 47 31 9 10
29 18 44 18 26 0 27 -1 9 -14 -11 -8 -26 -11 -34 -8 -10 4 -12 1 -7 -7 5 -7
17 -11 27 -8 23 6 25 -6 4 -23 -9 -7 -15 -20 -14 -29 1 -9 -3 -35 -10 -59 -6
-23 -9 -46 -7 -51 7 -11 -69 -81 -88 -81 -8 0 -18 5 -21 10 -3 6 -15 10 -26
10 -12 0 -19 7 -19 19 0 11 -5 23 -10 26 -15 9 -65 -35 -78 -67 -8 -23 -6 -31
12 -53 24 -28 36 -32 36 -11 0 13 39 30 48 21 6 -5 -80 -90 -115 -112 -20 -14
-25 -14 -18 -3 5 8 10 17 11 20 0 3 4 13 9 23 11 26 -2 33 -24 13 -18 -17 -20
-17 -30 1 -8 14 -10 10 -7 -23 2 -23 6 -46 10 -53 4 -6 3 -11 -3 -11 -6 0 -22
-24 -36 -54 -14 -30 -34 -57 -43 -59 -16 -4 -16 -5 1 -6 11 -1 17 -9 17 -26 0
-14 -4 -25 -9 -25 -5 0 -3 -22 4 -50 12 -47 12 -50 -6 -50 -36 0 -52 -66 -22
-95 14 -14 14 -18 2 -26 -12 -8 -12 -10 1 -18 17 -12 23 -8 25 17 2 25 37 102
47 102 4 0 8 9 8 20 0 21 26 28 32 9 5 -15 59 16 75 43 9 18 12 19 13 6 0 -9
-5 -20 -10 -23 -6 -4 -8 -15 -5 -24 4 -14 -4 -21 -42 -33 -36 -11 -50 -22 -57
-41 -12 -32 10 -81 32 -72 8 3 21 0 28 -6 11 -9 11 -16 -1 -40 -8 -15 -15 -37
-15 -48 0 -13 -13 -25 -39 -38 -24 -11 -42 -27 -46 -40 -3 -13 -10 -23 -16
-23 -12 0 -4 34 16 65 7 11 17 44 24 73 13 64 13 62 1 62 -5 0 -10 -7 -10 -15
0 -8 -5 -15 -11 -15 -6 0 -8 -8 -4 -19 10 -34 -44 -105 -72 -94 -7 3 -13 -2
-13 -11 0 -9 5 -16 10 -16 21 0 10 -58 -14 -77 -20 -16 -23 -25 -19 -68 2 -27
6 -52 9 -54 8 -8 51 47 64 82 33 88 44 107 62 107 10 0 18 7 18 17 0 38 14 -1
15 -43 1 -25 -1 -40 -5 -34 -4 7 -13 -2 -22 -22 -25 -52 -30 -76 -18 -83 13
-8 60 39 60 60 0 8 12 35 26 61 14 25 21 43 15 40 -7 -4 -11 1 -11 13 0 10 5
21 10 23 6 2 12 13 13 26 0 12 4 22 7 22 3 0 7 8 8 18 1 9 5 36 8 60 4 28 2
42 -5 42 -6 0 -11 -7 -11 -15 0 -13 -4 -14 -20 -5 -22 12 -28 35 -7 27 20 -7
50 13 38 27 -12 14 -9 42 6 57 12 12 63 1 63 -14 0 -6 8 -20 17 -31 10 -12 11
-15 3 -8 -8 6 -19 12 -26 12 -16 0 -37 -56 -31 -82 3 -12 -3 -47 -13 -78 -10
-31 -16 -67 -13 -79 4 -15 0 -26 -12 -35 -10 -7 -16 -20 -12 -28 3 -9 -2 -26
-11 -39 -17 -24 -20 -24 33 -3 13 6 14 3 4 -20 -7 -14 -19 -26 -26 -26 -9 0
-12 -6 -8 -18 3 -11 -4 -39 -15 -63 -17 -39 -20 -41 -20 -16 0 34 -16 35 -23
1 -3 -16 0 -28 9 -31 16 -6 19 -43 4 -43 -5 0 -10 -7 -10 -15 0 -8 -4 -15 -10
-15 -5 0 -10 -11 -10 -24 0 -19 5 -24 20 -23 11 1 20 6 20 12 0 25 22 85 29
80 11 -6 21 19 27 65 2 19 13 42 24 52 11 9 20 22 20 28 0 10 3 10 15 0 24
-20 17 -58 -20 -107 -40 -53 -40 -68 0 -68 24 0 30 6 41 40 8 22 18 48 24 58
6 10 8 22 5 27 -8 13 -3 13 34 -6 44 -22 52 -42 35 -89 -16 -47 -19 -99 -4
-90 5 3 10 1 10 -5 0 -7 -8 -9 -19 -5 -14 4 -20 0 -24 -20 -4 -21 1 -29 22
-38 14 -6 29 -16 33 -22 5 -6 8 -5 8 4 0 8 8 20 17 27 16 12 16 15 3 24 -13 8
-13 10 3 10 9 0 17 5 17 11 0 5 5 7 12 3 8 -5 9 -2 4 11 -7 19 11 53 51 96 14
15 23 35 22 45 -2 11 3 29 9 42 7 12 10 28 6 34 -4 6 -3 8 4 4 5 -3 13 0 16 6
3 10 9 8 19 -5 14 -16 33 -25 24 -9 -3 4 7 8 21 8 15 1 21 -1 15 -3 -16 -6
-17 -45 -2 -60 7 -7 12 -30 12 -53 0 -26 5 -44 14 -47 11 -4 10 -8 -4 -18 -10
-8 -15 -17 -10 -21 4 -4 7 -2 7 4 0 7 5 12 10 12 6 0 10 -7 10 -15 0 -8 -4
-15 -10 -15 -5 0 -10 -4 -10 -10 0 -5 7 -10 15 -10 8 0 15 7 15 15 0 8 7 15
15 15 8 0 23 10 34 22 17 17 18 24 8 36 -10 13 -8 14 15 10 29 -5 29 1 0 35
-10 12 -11 17 -3 17 7 0 9 5 6 10 -3 6 -1 10 5 10 7 0 10 -6 7 -14 -8 -21 38
-26 57 -7 15 14 16 14 16 -1 0 -9 -4 -20 -10 -23 -12 -8 -13 -85 -1 -85 5 0
12 12 15 26 5 18 12 24 22 20 9 -3 18 2 22 14 4 10 12 18 17 17 6 -1 11 13 13
31 2 18 0 32 -5 30 -11 -2 -73 35 -73 44 0 4 14 5 30 2 25 -5 30 -3 32 12 2
34 3 39 11 51 4 7 5 24 1 38 -6 23 -4 25 30 25 23 0 39 -5 42 -15 4 -8 15 -15
25 -15 24 0 25 -17 2 -23 -11 -3 -7 -5 10 -6 25 -1 41 -21 16 -21 -6 0 -9 -6
-6 -13 3 -7 -1 -21 -9 -32 -13 -18 -14 -17 -14 8 0 32 -7 34 -31 6 -12 -14
-24 -19 -38 -14 -13 4 -21 2 -21 -5 0 -6 4 -9 9 -5 5 3 12 1 16 -5 4 -6 10 -8
15 -5 5 3 12 -10 15 -28 9 -44 -17 -120 -52 -158 -15 -15 -28 -35 -29 -44 -1
-9 -5 -19 -7 -22 -3 -2 5 -14 17 -27 11 -12 26 -31 32 -42 11 -18 12 -18 35 6
13 14 30 38 36 53 7 15 19 27 28 27 11 0 15 11 15 42 0 39 1 40 15 22 13 -18
14 -16 16 26 1 25 1 49 0 54 -1 4 3 14 9 21 8 9 6 14 -6 19 -22 9 -26 4 -27
-38 -1 -32 -26 -61 -28 -33 -1 7 -3 28 -5 47 -3 19 -2 51 2 70 5 30 8 32 14
15 6 -17 9 -14 15 17 4 20 14 45 23 55 10 10 18 29 20 43 4 35 21 49 33 27 6
-9 14 -15 18 -13 4 3 8 -8 8 -23 0 -22 -4 -28 -15 -23 -11 4 -13 1 -7 -7 4 -8
2 -17 -6 -22 -11 -7 -11 -9 2 -9 9 0 20 -7 23 -16 4 -9 9 -14 13 -11 3 4 19
-3 36 -15 16 -12 43 -21 58 -21 16 0 29 -4 29 -9 0 -15 53 -60 89 -75 18 -8
35 -23 38 -34 3 -10 10 -19 16 -19 6 0 21 -12 32 -26 21 -26 22 -26 46 -10 26
17 39 13 39 -11 0 -9 -5 -11 -12 -7 -7 4 -4 -2 6 -14 11 -12 25 -22 33 -22 17
0 9 -36 -15 -62 -12 -14 -18 -15 -29 -6 -11 9 -17 7 -29 -10 -8 -12 -24 -22
-35 -22 -12 0 -19 -5 -16 -12 6 -19 53 -12 76 11 11 11 32 23 46 27 14 3 22
10 19 15 -3 5 2 6 10 3 19 -7 20 0 6 27 -14 25 7 26 49 2 34 -20 45 -49 35
-97 -5 -29 -2 -36 26 -56 24 -17 34 -20 40 -10 6 10 9 9 14 -1 3 -8 3 -4 1 7
-4 16 0 23 15 27 17 4 20 0 20 -29 0 -28 3 -32 18 -27 9 4 21 12 25 20 4 7 13
13 19 13 7 0 6 -5 -2 -15 -8 -9 -9 -15 -2 -15 6 0 14 5 17 11 4 6 12 8 19 6
14 -6 41 12 49 33 4 12 6 12 6 -2 1 -9 10 -20 21 -23 23 -7 27 -25 6 -25 -17
0 -18 -41 -1 -52 6 -5 3 -8 -7 -8 -12 0 -18 -8 -18 -24 0 -14 -5 -28 -12 -32
-8 -5 -9 -2 -5 9 4 10 1 17 -6 17 -7 0 -12 -15 -12 -40 0 -22 3 -40 8 -40 4 0
12 0 17 0 6 0 10 8 11 18 0 15 1 14 8 -3 7 -16 9 -14 14 14 4 18 11 30 17 26
6 -4 10 5 10 19 0 14 4 28 10 31 5 3 10 15 10 26 0 10 5 19 11 19 6 0 8 -9 3
-22 -18 -56 -21 -87 -10 -98 8 -8 5 -12 -12 -17 -19 -5 -20 -8 -10 -21 10 -12
10 -16 1 -19 -7 -3 -13 -14 -13 -25 0 -18 1 -18 16 -4 8 9 20 16 25 16 5 0 9
10 9 22 0 16 3 19 11 11 13 -13 -8 -53 -28 -53 -14 0 -21 -19 -15 -42 2 -9 10
-14 18 -11 8 3 14 -1 14 -9 0 -18 45 -58 65 -58 8 0 15 -6 15 -12 0 -7 5 -5
11 5 5 9 7 22 3 29 -4 6 -3 8 3 5 6 -4 14 0 17 9 8 22 9 21 -15 27 -13 4 -18
10 -14 17 6 9 10 9 16 -1 8 -13 13 -5 9 16 -1 5 8 1 18 -9 20 -17 21 -17 51 5
30 22 46 47 36 57 -3 3 -5 0 -5 -7 0 -7 -4 -9 -10 -6 -5 3 -10 -2 -11 -12 0
-10 -3 -13 -6 -6 -3 9 -14 11 -31 6 -24 -6 -26 -5 -13 10 8 10 14 40 13 70 0
28 5 58 12 66 9 12 7 13 -9 7 -42 -17 -50 -13 -52 28 -2 35 0 38 20 32 12 -3
25 -6 30 -6 4 0 7 -7 7 -15 0 -8 7 -15 15 -15 8 0 15 -9 15 -21 0 -11 4 -17
10 -14 6 4 10 -9 10 -32 l1 -38 18 22 c11 13 24 23 29 23 16 0 24 33 10 41 -8
5 -4 8 12 7 14 -1 27 -6 30 -10 3 -4 17 -9 30 -10 20 -3 25 3 31 30 8 39 23
59 33 43 9 -14 -3 -58 -20 -72 -8 -6 -14 -16 -14 -22 0 -6 10 -1 23 11 24 23
45 19 26 -4 -28 -34 19 -58 61 -31 17 10 22 9 30 -3 9 -13 10 -13 11 0 0 10 3
8 9 -5 13 -29 12 -38 -3 -32 -9 3 -14 -7 -16 -34 -1 -31 1 -38 14 -33 8 3 15
1 15 -5 0 -6 -3 -10 -7 -9 -5 1 -18 -4 -30 -12 -24 -15 -32 -60 -11 -60 7 0 5
-7 -5 -17 -10 -12 -13 -28 -10 -45 5 -25 2 -28 -21 -28 -24 0 -25 -2 -14 -25
9 -19 9 -28 0 -37 -9 -9 -12 -9 -12 3 0 8 -10 20 -21 28 -15 8 -18 15 -11 20
8 5 2 18 -17 42 -29 33 -30 33 -29 9 1 -14 6 -31 11 -38 6 -7 7 -15 3 -19 -3
-3 -6 -1 -6 6 0 9 -5 9 -21 1 -12 -7 -18 -18 -15 -26 6 -16 -3 -18 -38 -4 -26
10 -27 9 -30 -28 -1 -7 -6 -16 -13 -20 -6 -4 -16 -20 -22 -35 l-11 -27 558 1
c306 1 549 3 539 6 -14 4 -17 10 -12 26 4 12 7 35 7 50 -1 15 3 25 8 22 6 -4
10 1 10 9 0 9 -4 16 -10 16 -5 0 -10 7 -10 15 0 8 7 15 15 15 20 0 19 10 -3
26 -16 12 -15 13 5 8 22 -6 23 -4 39 91 4 22 10 45 14 50 19 25 73 271 66 300
-4 14 -1 25 6 27 7 3 12 24 11 56 0 31 5 56 12 62 7 6 11 19 8 30 -3 11 5 36
17 56 24 41 38 138 44 311 6 130 4 121 15 104 6 -10 12 1 19 35 6 27 8 52 5
57 -2 4 3 19 11 32 9 14 13 25 9 25 -5 0 -1 5 7 10 11 8 12 12 3 18 -15 10
-12 60 4 70 18 11 63 156 63 205 1 42 18 77 37 77 6 0 14 10 18 23 4 13 8 17
11 10 9 -21 50 30 58 70 4 21 13 37 20 37 19 0 28 27 11 33 -11 5 -20 37 -31
107 -1 8 -9 46 -17 84 -11 50 -12 77 -5 95 10 27 13 44 24 146 8 81 7 115 -6
130 -6 8 -10 22 -8 32 2 9 -3 18 -10 18 -7 0 -16 5 -20 10 -4 6 -16 15 -27 21
-11 6 -21 20 -23 31 -2 12 -12 29 -23 39 -12 11 -19 30 -19 56 0 23 -4 37 -10
33 -5 -3 -7 0 -4 8 3 8 -6 23 -20 35 -28 21 -34 42 -13 43 6 0 2 4 -10 9 -18
7 -23 17 -23 45 0 19 4 35 8 35 15 0 30 81 21 118 -5 20 -9 53 -9 73 0 41 -30
86 -49 75 -7 -4 -9 -16 -6 -28 4 -12 0 -27 -10 -38 -11 -12 -15 -28 -12 -41 3
-12 -4 -47 -15 -78 -18 -46 -22 -52 -29 -36 -6 15 -8 9 -7 -20 1 -22 6 -46 11
-52 11 -15 -1 -17 -22 -4 -7 5 -11 13 -8 18 3 5 -1 10 -9 10 -11 0 -13 -7 -8
-31 6 -27 5 -29 -10 -17 -14 12 -16 10 -16 -12 0 -35 -10 -57 -25 -57 -11 0
-12 4 -1 25 12 24 10 85 -3 85 -4 0 -15 -15 -26 -32 -24 -42 -38 -55 -51 -51
-6 2 -27 -13 -47 -32 -21 -20 -45 -37 -55 -38 -33 -2 -15 -57 19 -57 10 0 19
-4 19 -10 0 -5 9 -10 19 -10 17 0 19 -5 14 -35 -4 -23 -2 -35 6 -35 18 0 12
-20 -6 -21 -15 0 -15 -2 2 -9 l20 -9 -20 -1 c-19 -1 -19 -1 -2 -15 26 -19 40
-134 32 -259 -3 -55 -8 -103 -10 -106 -2 -3 -6 -24 -8 -45 -3 -22 -10 -53 -17
-70 -7 -16 -13 -39 -15 -50 -1 -11 -8 -42 -14 -68 -6 -27 -9 -52 -7 -56 3 -4
-4 -22 -15 -40 -11 -18 -17 -41 -14 -51 3 -10 1 -21 -4 -25 -7 -4 -8 1 -4 12
5 17 5 17 -12 2 -9 -9 -18 -31 -20 -49 -1 -18 -6 -35 -11 -39 -10 -7 -13 -61
-3 -61 4 0 9 -11 11 -24 4 -22 2 -24 -24 -21 -15 2 -28 -1 -28 -6 0 -6 4 -8 8
-5 5 3 17 -5 27 -16 17 -21 17 -22 0 -35 -10 -7 -16 -16 -12 -19 4 -4 13 -1
21 6 23 18 42 8 22 -12 -8 -9 -18 -38 -21 -65 -3 -26 -11 -63 -16 -81 -13 -39
-3 -55 17 -28 13 19 14 19 14 -8 0 -19 -4 -26 -16 -24 -10 2 -19 -2 -21 -9 -2
-6 4 -13 13 -15 23 -4 26 -65 3 -71 -15 -4 -18 -36 -8 -77 3 -9 -2 -14 -12
-12 -31 5 -46 -49 -36 -128 5 -34 5 -34 -6 -7 -12 31 -26 36 -29 10 -1 -10 -2
-25 -4 -33 -1 -8 -2 -27 -3 -42 -1 -32 -21 -39 -21 -8 0 11 -5 20 -11 20 -6 0
-8 -7 -5 -16 4 -9 1 -22 -5 -30 -6 -7 -9 -21 -6 -31 4 -14 5 -13 6 5 0 12 5
22 10 22 15 0 21 -44 7 -60 -16 -19 -27 -60 -16 -60 5 0 12 9 15 20 3 11 14
20 23 20 13 0 14 -2 4 -8 -7 -5 -13 -26 -14 -48 0 -21 -7 -46 -14 -55 -8 -8
-15 -27 -16 -42 -1 -14 -7 -25 -13 -24 -5 1 -9 -6 -7 -16 2 -10 -2 -25 -8 -32
-6 -8 -10 -25 -8 -38 1 -13 -4 -32 -12 -41 -11 -14 -11 -22 -2 -37 16 -25 15
-30 -3 -23 -8 4 -15 1 -15 -5 0 -6 7 -11 16 -11 12 0 15 -6 11 -20 -3 -13 2
-28 16 -40 25 -24 19 -34 -14 -22 -28 10 -49 5 -49 -11 0 -7 -7 -20 -14 -29
-11 -15 -18 -16 -45 -7 -20 7 -31 18 -31 30 0 12 -7 19 -19 19 -13 0 -23 11
-31 36 -9 27 -17 35 -33 33 -44 -3 -55 8 -61 60 0 8 -13 23 -27 33 -24 18 -30
19 -55 6 -17 -8 -28 -21 -28 -31 1 -9 -2 -14 -7 -11 -5 3 -9 0 -9 -6 0 -17
-17 -3 -23 20 -3 11 -1 18 4 14 5 -3 9 0 9 5 0 6 7 11 15 11 8 0 15 5 15 10 0
6 -7 10 -15 10 -7 0 -18 6 -22 13 -11 19 -42 30 -85 31 -27 1 -42 7 -53 24 -9
12 -25 22 -36 22 -10 0 -28 6 -39 12 -15 10 -22 10 -28 2 -4 -7 -29 -14 -57
-15 -39 -3 -50 -1 -51 11 -1 8 -2 18 -3 23 0 4 -15 1 -31 -8 -30 -16 -54 -14
-217 21 -16 3 -23 12 -23 27 0 23 20 62 20 40 0 -7 7 -13 15 -13 8 0 15 4 15
9 0 5 7 12 15 15 11 4 15 0 13 -12 -2 -12 4 -17 22 -17 15 0 37 -13 55 -32 26
-27 32 -29 44 -16 9 10 24 13 47 8 31 -5 34 -4 34 19 0 13 3 31 6 40 4 10 1
16 -9 16 -12 0 -15 8 -10 34 3 18 0 42 -6 54 -8 15 -7 23 4 32 8 7 15 9 15 4
1 -5 10 2 22 16 11 14 23 21 25 15 13 -36 31 -61 51 -70 12 -5 22 -13 22 -17
0 -5 6 -8 14 -8 7 0 20 -7 27 -16 16 -20 57 -36 70 -28 6 3 1 20 -11 38 -11
19 -20 41 -20 50 0 13 -7 16 -30 12 -26 -4 -30 -1 -30 20 0 14 -7 27 -15 30
-8 4 -15 13 -15 22 0 18 -75 92 -95 92 -7 0 -16 6 -19 13 -4 8 -5 7 -4 -3 2
-27 -13 -68 -28 -74 -8 -3 -14 -10 -14 -16 0 -6 4 -9 10 -5 5 3 8 -7 7 -25 -2
-33 -14 -39 -24 -12 -17 44 -47 48 -38 4 2 -13 -3 -22 -16 -25 -14 -4 -26 5
-44 31 -14 20 -25 42 -25 49 0 19 18 25 39 14 18 -10 18 -8 10 31 -6 22 -8 42
-6 45 3 2 21 -4 41 -14 25 -13 36 -25 36 -40 0 -29 12 -29 26 0 14 30 1 69
-37 110 -24 26 -27 33 -13 35 9 2 21 -1 27 -7 14 -14 27 -14 27 0 0 7 8 18 18
26 15 12 13 13 -17 7 -23 -4 -31 -3 -27 5 4 6 16 11 27 11 25 0 57 29 42 38
-6 4 -14 22 -18 41 -5 23 -4 31 4 27 6 -4 11 -2 11 3 0 6 -7 11 -15 11 -8 0
-15 -7 -15 -16 0 -9 -6 -14 -12 -11 -7 2 -12 11 -10 21 3 17 -23 22 -33 6 -3
-5 -2 -10 3 -10 11 0 22 -48 15 -67 -3 -7 -10 -10 -16 -6 -6 4 -8 0 -4 -10 3
-10 2 -17 -3 -17 -6 0 -10 5 -10 11 0 5 -4 7 -10 4 -5 -3 -10 -18 -10 -32 0
-15 -3 -24 -6 -21 -3 4 -15 -3 -25 -13 -26 -26 -45 -19 -41 14 3 27 -11 37
-23 17 -5 -8 -11 -8 -20 0 -15 12 -18 9 -34 -42 -9 -26 -17 -36 -31 -35 -20 1
-24 36 -5 49 6 4 0 8 -12 8 -12 0 -24 8 -26 18 -3 9 -3 -4 0 -30 4 -53 5 -52
-31 -38 -23 8 -25 12 -15 36 5 15 7 41 3 57 -4 20 -3 27 5 23 6 -4 12 -15 12
-24 1 -9 4 -2 8 17 l6 33 27 -25 c15 -14 29 -23 31 -19 6 10 6 104 0 98 -3 -2
-14 5 -25 16 -19 19 -19 20 -1 33 13 11 14 14 4 15 -11 0 -9 4 5 15 26 20 29
19 31 -7 2 -18 0 -20 -8 -8 -7 11 -8 6 -3 -15 9 -38 14 -44 14 -17 0 12 5 22
11 22 6 0 9 5 7 12 -5 13 21 48 35 48 5 0 7 -7 3 -15 -7 -20 8 -19 25 1 10 13
10 17 -1 24 -8 5 -11 12 -8 16 4 3 13 0 21 -8 13 -13 15 -39 6 -77 -2 -7 2
-16 9 -18 7 -3 12 3 12 15 0 11 10 26 23 35 16 11 23 25 24 51 1 20 -3 36 -8
36 -19 0 -8 19 14 23 l22 4 -22 8 c-13 4 -23 11 -23 16 0 5 -4 9 -10 9 -5 0
-10 -11 -10 -23 0 -20 -27 -57 -41 -57 -2 0 -4 11 -4 25 0 17 5 25 18 25 14 0
16 4 8 19 -6 10 -7 21 -3 25 3 4 0 11 -8 16 -14 9 -53 -14 -60 -35 -4 -13 -40
-38 -46 -32 -3 2 3 20 14 38 10 19 22 49 25 67 4 18 14 40 22 48 18 18 20 54
4 54 -8 0 -9 4 0 13 6 8 8 17 5 20 -4 3 1 14 11 23 14 15 18 15 26 3 5 -9 4
-15 -4 -18 -13 -4 -27 -21 -27 -34 0 -5 10 -5 21 -2 15 5 19 4 15 -4 -4 -6 -2
-11 4 -11 7 0 10 7 7 15 -4 8 6 27 23 44 30 29 40 61 19 61 -6 0 -17 7 -25 15
-8 8 -21 12 -29 9 -8 -4 -15 -1 -15 5 0 6 7 11 15 11 8 0 15 6 15 13 0 6 9 1
20 -13 11 -14 20 -19 20 -12 0 20 21 14 27 -8 4 -16 8 -18 19 -9 11 9 18 9 28
0 18 -15 30 1 21 28 -3 12 0 21 11 25 11 4 15 2 11 -8 -3 -8 1 -17 9 -20 8 -3
14 1 14 9 0 8 5 15 10 15 7 0 7 6 0 19 -13 26 -13 31 5 31 8 0 14 3 14 7 -3
21 2 34 13 31 21 -7 37 15 26 35 -11 22 -2 37 23 37 10 0 19 4 19 10 0 5 -7 6
-17 3 -12 -5 -14 -3 -7 8 10 16 16 44 18 76 1 11 5 19 10 16 5 -4 6 6 2 21 -3
14 -2 26 3 26 5 0 12 11 15 25 4 14 13 25 21 25 14 0 19 16 16 50 -1 8 10 24
24 34 14 11 25 29 25 42 0 12 5 26 10 29 6 4 8 11 5 16 -3 5 1 6 9 3 19 -7 20
-16 4 -32 -9 -9 -9 -15 0 -24 8 -8 14 -5 21 15 13 34 25 35 17 2 -6 -25 11
-37 18 -12 16 59 22 123 12 129 -8 6 -7 8 2 8 6 0 12 8 12 18 0 9 6 24 13 32
28 35 102 67 113 49 8 -14 24 -10 24 6 0 17 16 20 25 6 3 -5 31 -7 63 -4 31 3
72 5 90 4 17 0 32 4 32 9 0 6 6 10 14 10 7 0 19 7 26 15 7 8 16 12 21 9 5 -3
9 2 9 10 0 9 5 16 10 16 6 0 10 -4 10 -9 0 -16 53 2 57 20 7 25 23 24 23 -2 0
-14 4 -18 13 -12 6 4 16 8 22 8 5 0 11 9 13 20 2 11 11 28 20 38 28 32 5 28
-28 -5 -34 -34 -35 -31 -12 30 4 12 1 12 -17 1 -12 -8 -19 -20 -16 -27 3 -7 1
-11 -4 -8 -5 3 -21 -6 -35 -19 -35 -32 -48 -32 -45 3 1 15 1 39 1 55 -2 27 -2
27 -32 12 -16 -9 -30 -22 -30 -29 0 -7 -6 -18 -12 -24 -10 -8 -13 -3 -14 19
-1 16 3 26 9 22 6 -4 8 4 3 20 -3 15 -2 27 5 29 7 2 13 20 14 38 1 19 5 50 10
68 6 27 5 31 -8 26 -19 -7 -17 16 2 40 7 9 11 25 8 37 -4 14 -1 19 7 16 8 -3
12 7 12 36 -1 49 -17 57 -34 18 -32 -72 -83 -105 -97 -62 -4 13 -12 18 -22 14
-13 -5 -14 -3 -4 16 7 13 17 19 24 14 7 -4 6 0 -2 10 -11 14 -11 23 -3 41 14
30 -9 43 -33 19 -24 -23 -31 -6 -11 27 9 17 13 30 8 30 -6 0 -16 20 -23 44
-12 43 -14 44 -27 24 -11 -15 -12 -22 -2 -28 8 -5 7 -9 -6 -14 -10 -4 -24 -1
-32 8 -13 12 -13 18 -2 30 7 9 9 16 6 16 -4 0 -2 9 4 20 12 23 5 60 -13 60 -8
0 -8 -3 0 -11 12 -12 7 -39 -8 -39 -5 0 -9 11 -9 25 0 16 -6 25 -15 25 -8 0
-15 5 -15 11 0 6 9 8 20 4 11 -3 20 -2 20 3 0 6 -5 12 -10 14 -15 5 7 65 26
72 8 3 14 17 14 31 0 14 4 25 9 25 6 0 22 11 37 25 27 25 51 34 39 15 -3 -5
-3 -15 1 -21 4 -8 9 -7 15 2 7 11 9 9 9 -5 0 -18 2 -18 25 4 28 26 35 63 10
53 -10 -3 -15 0 -13 8 2 9 -4 13 -17 11 -18 -2 -18 -1 -4 10 9 7 19 26 23 42
5 21 10 26 16 17 4 -8 13 -10 19 -7 6 4 9 12 6 17 -4 5 1 9 9 9 9 0 16 5 16
10 0 6 5 10 11 10 6 0 9 -9 6 -19 -3 -14 -1 -18 9 -14 8 3 14 11 14 19 0 8 5
14 10 14 6 0 10 5 10 11 0 7 -7 8 -17 4 -10 -4 -40 -9 -66 -10 -27 -2 -51 -6
-54 -9 -11 -10 -53 -6 -53 5 0 13 30 78 45 98 5 7 22 26 38 41 15 16 27 35 27
44 0 9 5 16 12 16 9 0 9 3 0 12 -16 16 -15 43 3 58 22 18 18 38 -7 42 -21 3
-23 8 -23 65 -1 48 3 63 15 66 13 3 12 5 -3 12 -22 10 -68 -2 -64 -17 1 -7 -6
-14 -15 -16 -10 -2 -18 1 -18 7 0 6 5 11 11 11 5 0 8 4 4 9 -3 5 -1 13 5 16 6
4 8 15 5 26 -4 12 -1 21 8 25 9 3 18 15 21 27 8 31 42 49 77 42 24 -6 27 -9
19 -25 -14 -26 -13 -30 9 -30 17 0 30 25 31 56 0 7 -15 19 -32 29 -66 34 -82
44 -90 59 -7 12 -5 14 9 9 14 -5 16 -3 6 7 -12 13 -3 38 25 68 15 16 15 27 2
53 -7 13 -7 19 -1 19 6 0 8 12 5 29 -3 16 -1 38 5 50 10 17 9 21 -4 21 -9 0
-14 -4 -10 -9 3 -5 1 -12 -4 -15 -5 -3 -11 5 -13 19 -3 14 -1 25 4 25 5 0 6 9
3 20 -4 12 -1 27 5 35 16 20 3 40 -16 24 -11 -9 -14 -8 -14 5 0 9 5 16 10 16
6 0 10 9 10 20 0 13 -7 20 -20 20 -13 0 -18 5 -14 15 4 8 1 15 -6 15 -7 0 -10
7 -6 15 5 15 -8 19 -46 16 -10 -1 -18 3 -18 9 0 7 -7 10 -15 7 -18 -7 -32 12
-16 22 17 11 24 101 8 102 -6 1 -21 2 -32 3 -11 1 -32 3 -47 4 -20 1 -26 6
-22 17 4 9 0 15 -7 16 -8 0 -4 4 9 10 21 8 22 11 8 24 -8 8 -23 15 -33 15 -16
1 -16 2 3 13 25 14 20 37 -8 37 -15 0 -19 5 -15 18 2 9 6 23 8 31 2 8 -4 17
-13 19 -13 2 -18 -3 -18 -16 0 -24 -47 -208 -59 -231 -5 -9 -18 -42 -29 -73
-11 -31 -33 -76 -50 -100 -16 -24 -36 -56 -45 -73 -9 -16 -33 -48 -53 -70 -32
-36 -30 -32 14 35 107 163 180 361 187 505 l4 80 -9 -70 c-17 -143 -23 -154
-163 -298 -65 -66 -91 -101 -106 -142 -19 -50 -34 -74 -69 -111 -8 -8 -11 -21
-8 -29 3 -8 2 -15 -3 -15 -8 0 -3 -90 5 -99 2 -2 24 17 50 43 25 26 48 46 50
43 2 -2 -14 -23 -36 -47 -41 -43 -51 -67 -26 -57 7 3 19 0 25 -6 8 -8 11 -5
11 10 0 12 5 25 10 28 6 3 10 -3 10 -15 0 -12 5 -30 11 -41 7 -15 6 -28 -5
-51 -18 -35 -21 -62 -6 -53 18 11 10 -39 -10 -65 -27 -34 -26 -63 1 -31 25 31
36 20 21 -22 -7 -19 -12 -43 -12 -55 0 -12 -11 -29 -25 -38 -28 -18 -33 -44
-10 -44 8 0 15 -9 15 -20 0 -11 5 -20 10 -20 6 0 10 5 10 11 0 6 13 21 29 35
17 14 33 34 36 44 4 11 13 20 21 20 18 0 28 -24 20 -46 -5 -13 -9 -14 -21 -4
-22 18 -37 3 -22 -22 9 -16 9 -22 0 -25 -7 -3 -13 -9 -13 -14 0 -6 4 -7 10 -4
5 3 10 -3 10 -14 0 -22 14 -28 25 -11 4 6 11 7 17 4 5 -3 -10 -15 -34 -26 -23
-11 -50 -24 -58 -28 -8 -4 -14 -19 -13 -32 1 -21 -3 -25 -28 -25 -16 0 -29 4
-29 9 0 4 7 8 15 8 18 0 20 24 2 38 -22 18 -57 3 -57 -24 0 -13 -3 -24 -8 -24
-4 0 -7 18 -7 39 0 23 3 35 7 28 6 -9 11 -8 18 3 15 24 12 28 -24 32 -24 3
-32 0 -29 -9 3 -7 -2 -13 -10 -13 -8 0 -17 6 -20 13 -3 7 -9 2 -15 -13 -6 -14
-11 -18 -11 -10 -1 8 -11 1 -23 -17 -13 -18 -31 -33 -40 -33 -12 0 -18 -8 -18
-21 0 -29 -24 -18 -28 13 -2 17 6 35 22 53 30 33 31 33 11 55 -14 15 -14 18 0
30 19 16 20 34 0 26 -17 -6 -21 9 -5 19 6 3 10 17 10 30 0 18 -4 22 -20 18
-15 -4 -19 -11 -15 -24 4 -13 1 -19 -9 -19 -21 0 -31 -21 -15 -31 9 -5 10 -9
2 -9 -6 0 -14 -18 -18 -40 -4 -22 -11 -40 -16 -40 -4 0 -6 -6 -3 -13 3 -8 -2
-20 -11 -27 -14 -11 -20 -11 -37 -1 -11 7 -23 9 -27 4 -10 -14 -41 -12 -41 4
0 10 6 12 20 8 16 -5 20 -2 20 19 0 18 -4 24 -14 20 -8 -3 -17 -1 -21 5 -3 6
-12 11 -20 11 -10 0 -12 -7 -5 -30 7 -25 6 -30 -9 -30 -11 0 -17 9 -19 26 -1
15 -7 33 -13 40 -9 11 -7 14 7 14 17 0 17 1 0 13 -9 7 -16 19 -14 26 2 8 -8
17 -22 21 -22 5 -25 12 -27 50 -1 31 3 49 14 57 10 8 13 18 8 30 -5 10 -9 24
-9 32 -1 8 -23 22 -51 31 -111 39 -210 115 -250 193 l-26 52 34 -40 c83 -96
115 -123 166 -144 78 -33 141 -50 141 -40 0 17 -33 47 -46 42 -16 -6 -16 -11
-15 140 0 90 3 121 15 132 9 9 17 11 21 5 3 -5 2 -10 -3 -10 -14 0 2 -63 17
-68 11 -4 13 7 8 54 -3 33 -3 65 2 72 4 8 5 30 1 50 -7 39 0 84 13 83 4 -1 7
1 7 4 0 3 -3 5 -6 4 -3 0 -12 8 -20 18 -18 25 -18 82 1 89 12 5 14 17 9 58 -5
43 -4 49 7 38 8 -7 19 -34 24 -60 l10 -47 50 -1 c28 -1 56 -4 64 -6 11 -2 13
11 12 62 -4 106 -10 152 -25 175 -8 11 -15 28 -17 38 -4 15 -7 15 -31 3 -15
-8 -36 -12 -48 -9 -11 3 -20 0 -20 -6 0 -6 -10 -11 -23 -11 -28 0 -34 17 -73
219 -4 18 -10 22 -26 18 -47 -13 8 22 77 48 117 43 239 66 390 72 103 4 142 9
148 19 4 8 14 14 22 14 9 0 12 6 9 15 -4 8 -10 13 -14 10 -4 -3 -11 2 -14 11
-3 8 -14 14 -23 12 -14 -2 -19 5 -21 34 -2 25 -10 41 -22 48 -16 9 -19 8 -14
-7 4 -10 -5 -5 -20 12 -14 17 -25 25 -26 18 0 -10 -49 -33 -70 -33 -4 0 -10
10 -14 22 -4 18 -8 20 -18 10 -16 -16 -48 -15 -48 1 0 7 5 18 12 25 15 15 4
26 -17 18 -9 -3 -13 -11 -9 -17 4 -7 -2 -6 -17 2 -22 11 -23 11 -10 -5 11 -14
12 -16 1 -14 -7 2 -17 -8 -21 -22 -6 -22 -7 -22 -10 -5 -1 11 -2 27 -1 35 1 8
2 32 3 53 2 20 7 37 11 37 4 0 8 18 8 40 0 22 5 40 11 40 5 0 7 -4 4 -10 -3
-5 -1 -10 5 -10 17 0 24 31 9 42 -11 7 -11 11 -1 15 6 2 12 11 12 19 0 8 5 14
10 14 6 0 10 -5 10 -11 0 -5 5 -7 11 -3 6 4 9 19 5 38 -3 17 -2 26 2 19 11
-17 28 -3 34 27 3 14 9 33 13 43 5 13 2 17 -14 17 -16 0 -21 -6 -21 -24 0 -14
-5 -28 -11 -32 -8 -5 -10 1 -5 19 3 14 2 28 -2 31 -12 7 -73 -34 -66 -45 3 -5
0 -9 -5 -9 -6 0 -11 -7 -11 -16 0 -8 -5 -12 -10 -9 -6 4 -7 11 -4 17 4 6 8 24
9 40 3 33 -15 33 -30 0 -5 -12 -13 -22 -17 -22 -12 0 -9 14 7 36 8 10 15 25
15 33 0 7 11 24 25 37 14 13 21 26 15 29 -6 4 -8 11 -5 16 3 5 0 6 -8 3 -10
-4 -13 3 -9 26 3 19 0 30 -8 30 -6 0 -10 6 -7 13 2 6 0 20 -5 29 -7 14 -1 25
21 47 l30 30 7 -35 c9 -47 21 -43 30 11 3 25 10 45 14 45 7 0 19 28 24 52 2
15 55 58 71 58 8 0 15 -7 15 -15 0 -13 3 -13 20 -3 25 16 37 4 16 -17 -9 -9
-16 -23 -16 -31 0 -9 -7 -22 -15 -30 -8 -9 -15 -23 -15 -32 1 -9 15 6 33 35
18 30 39 53 50 53 11 0 17 8 17 23 1 21 1 22 15 3 11 -15 15 -16 16 -5 0 8 5
3 11 -11 l11 -25 6 25 c6 21 8 22 14 8 3 -10 11 -18 17 -18 5 0 10 8 10 18 0
13 2 14 9 3 7 -11 11 -9 20 8 17 30 43 28 35 -3 -3 -13 -1 -27 5 -30 7 -4 11
1 11 13 0 12 7 21 15 21 8 0 15 -4 15 -10 0 -18 40 -10 52 10 15 24 35 26 57
6 10 -9 48 -17 101 -20 110 -6 138 -14 146 -38 6 -19 8 -18 35 10 l29 30 37
-19 c20 -10 40 -24 45 -31 6 -10 10 -10 16 -1 4 7 19 14 32 15 19 2 25 -2 24
-15 -2 -13 3 -16 17 -12 22 7 58 -28 59 -57 0 -10 4 -18 9 -18 10 0 27 -39 23
-52 -1 -5 2 -8 7 -8 6 0 24 -30 41 -67 17 -38 44 -94 60 -125 17 -31 30 -65
31 -75 0 -12 4 -9 11 10 5 15 15 27 21 27 22 -1 47 -27 48 -51 0 -13 3 -18 6
-11 2 6 8 12 13 12 12 0 0 -37 -15 -50 -10 -8 -15 -6 -20 9 -9 29 -35 27 -35
-2 0 -27 29 -64 48 -61 6 1 19 2 27 3 8 0 15 10 15 21 0 11 7 20 16 20 8 0 12
5 9 10 -3 6 1 10 10 10 13 0 16 6 12 23 -3 12 1 31 10 42 15 20 15 20 8 -2 -3
-13 -4 -23 0 -23 10 0 23 45 15 55 -4 6 -4 19 1 30 l8 20 1 -20 c1 -19 2 -19
20 4 11 13 20 29 20 36 0 7 7 18 15 25 8 7 15 23 15 36 0 15 5 22 13 19 20 -8
54 91 49 148 -4 46 -18 48 -31 5 -8 -30 -9 -27 -9 27 -1 93 9 184 18 160 4
-11 6 -32 4 -47 -2 -15 1 -30 7 -33 5 -4 9 3 9 13 0 11 6 25 14 31 8 7 18 26
21 42 8 37 39 36 43 -1 2 -15 0 -20 -5 -13 -15 22 -34 -3 -35 -46 0 -22 5 -47
11 -55 15 -18 12 -116 -4 -116 -7 0 -15 -11 -17 -23 -4 -23 -3 -23 24 -13 15
6 28 16 28 23 0 7 5 13 10 13 6 0 10 8 10 19 0 10 6 24 14 30 8 7 12 20 9 30
-3 10 0 22 6 25 12 8 -4 59 -24 76 -7 6 -11 20 -8 30 6 23 19 26 26 8 2 -7 5
3 5 22 0 19 10 57 21 83 12 27 20 61 20 75 -2 26 -2 26 -6 3 -4 -19 -7 -21
-14 -10 -7 11 -9 9 -9 -7 0 -37 -24 -48 -57 -27 -31 20 -79 73 -76 84 1 4 -4
10 -12 13 -8 3 -15 0 -15 -6 0 -8 -5 -7 -15 3 -12 12 -13 21 -3 52 6 20 17 37
24 37 7 0 20 15 29 34 14 28 14 39 4 58 -20 38 -83 117 -94 118 -6 0 -19 16
-29 35 -11 19 -25 35 -33 35 -7 0 -13 5 -13 11 0 6 -7 9 -14 6 -10 -4 -13 -1
-10 7 3 8 -7 19 -25 27 -19 9 -33 23 -36 40 -8 33 -50 38 -59 6 -8 -32 -34 -4
-28 32 3 22 -1 32 -18 41 -28 15 -92 21 -83 7 3 -5 -1 -13 -8 -18 -21 -13 -25
-11 -25 11 0 11 4 20 8 20 17 0 7 42 -11 47 -14 3 -18 12 -16 30 2 18 -6 35
-26 54 -15 15 -25 30 -22 33 4 3 1 6 -5 6 -5 0 -13 -6 -15 -12 -3 -8 -15 -1
-32 20 -15 18 -30 30 -35 27 -5 -3 -13 3 -19 12 -10 17 -10 17 -11 1 0 -29
-27 -21 -42 12 -7 17 -19 30 -27 30 -8 0 -23 7 -33 17 -17 15 -18 15 -18 -5 0
-13 -6 -22 -15 -22 -8 0 -15 -6 -15 -14 0 -8 -5 -16 -11 -18 -6 -2 -13 -15
-15 -28 -2 -14 -9 -42 -17 -63 -12 -32 -16 -36 -26 -23 -7 9 -9 21 -5 28 13
20 15 48 4 48 -9 0 -8 20 6 71 3 9 14 19 24 22 11 3 20 10 20 15 0 16 -50 24
-66 11 -13 -11 -18 -6 -15 14 1 4 -10 12 -24 17 -29 11 -85 2 -82 -12 1 -6 -3
-12 -10 -15 -7 -3 -9 3 -6 17 4 15 1 21 -8 19 -8 -1 -27 4 -43 12 -22 10 -30
11 -33 2 -3 -7 -10 -10 -17 -7 -8 3 -16 -4 -19 -15 -3 -12 -10 -21 -16 -21 -8
0 -9 6 -1 19 14 26 13 31 -6 31 -11 0 -14 6 -9 20 5 16 2 20 -14 20 -12 0 -20
-3 -20 -7 4 -22 -4 -22 -32 -2 l-32 22 -18 -22 c-10 -12 -16 -28 -13 -36 3 -8
-1 -22 -10 -30 -9 -9 -16 -22 -16 -29 0 -20 -33 -82 -37 -70 -2 6 1 29 6 50
41 163 39 154 23 154 -8 0 -20 7 -26 15 -14 20 -111 32 -130 16 -7 -6 -21 -9
-30 -5 -18 7 -22 -11 -5 -22 8 -5 8 -9 -1 -14 -6 -4 -13 -22 -14 -41 -5 -53
-6 -55 -16 -39 -12 18 -13 63 -2 56 5 -3 9 9 9 26 0 18 7 36 18 44 11 8 14 14
6 14 -7 0 -21 -10 -32 -22 -18 -22 -18 -22 -19 -3 0 14 -8 7 -25 -23 -14 -24
-22 -49 -18 -55 3 -6 1 -7 -5 -3 -13 8 -52 -23 -52 -41 0 -7 -4 -13 -10 -13
-19 0 -10 27 15 46 29 21 32 50 9 82 -17 25 -54 30 -54 6 0 -8 -4 -12 -10 -9
-16 10 -11 39 10 58 11 9 24 16 28 15 13 -2 42 14 42 24 0 5 -8 7 -19 3 -27
-8 -45 19 -35 52 4 16 6 33 5 40 -1 6 3 14 9 18 14 9 13 28 -2 23 -7 -3 -19 1
-26 9 -20 19 -31 16 -42 -12z m1030 -3532 c0 -28 -24 -133 -29 -127 -9 13 -34
11 -49 -3 -7 -7 -20 -13 -28 -13 -18 0 -90 -36 -98 -49 -8 -13 4 -41 18 -41
22 0 37 -37 24 -64 -9 -20 -14 -23 -29 -16 -10 6 -24 7 -32 4 -8 -3 -21 2 -30
10 -9 9 -22 16 -30 16 -18 0 -14 72 8 124 14 34 34 53 22 22 -4 -10 -1 -13 9
-9 7 3 14 11 14 19 0 8 5 14 11 14 6 0 9 6 6 14 -8 19 16 38 37 30 12 -5 19 0
23 15 3 11 12 21 20 21 8 0 11 5 7 11 -5 9 3 10 28 5 26 -5 39 -2 48 9 12 15
50 21 50 8z m-509 -903 c1 -5 2 -14 3 -19 0 -5 4 -13 9 -17 11 -11 9 -21 -9
-39 -9 -9 -13 -19 -9 -23 4 -4 10 -1 12 6 3 6 9 12 14 12 12 0 6 -93 -7 -97
-6 -2 -9 9 -6 27 3 23 0 30 -12 30 -9 0 -16 -6 -14 -12 1 -7 -6 -25 -16 -40
-10 -15 -15 -32 -11 -38 9 -14 -8 -13 -24 3 -11 10 -11 8 -2 -10 14 -28 14
-36 -1 -28 -7 4 -4 -1 6 -9 11 -9 17 -17 13 -17 -4 -1 -12 -2 -19 -3 -10 -1
-18 -27 -19 -68 0 -9 -9 -18 -20 -21 -21 -6 -36 8 -16 16 7 3 12 24 12 55 -1
30 4 53 10 56 12 4 8 66 -4 66 -14 0 -29 -16 -36 -38 -12 -39 -14 -20 -3 31 5
26 15 47 22 47 7 0 20 8 30 19 11 12 25 16 41 13 20 -3 25 0 25 17 0 15 -6 21
-22 21 -13 0 -18 4 -13 8 6 4 16 19 22 35 12 26 42 38 44 17z m-1801 -1535 c0
-19 -4 -35 -10 -35 -5 0 -7 -7 -3 -16 3 -9 0 -20 -8 -26 -10 -6 -7 -7 11 -3
19 6 22 4 14 -5 -6 -6 -20 -13 -30 -14 -13 -2 -20 -13 -22 -36 -3 -31 -2 -32
13 -16 18 17 50 23 40 6 -3 -5 -12 -10 -19 -10 -9 0 -12 -9 -8 -25 2 -14 0
-25 -4 -23 -16 5 -60 -36 -75 -69 -7 -18 -17 -33 -21 -33 -13 0 -9 -28 5 -33
21 -8 3 -15 -24 -10 -20 4 -27 11 -27 31 -1 32 39 185 51 193 4 3 9 16 10 27
1 24 13 29 20 10 2 -7 4 -1 4 14 0 14 12 39 27 55 14 15 22 29 16 31 -16 6 -1
22 21 22 15 0 19 -7 19 -35z m1340 -291 c0 -16 6 -24 18 -24 16 -1 16 -1 -1
-11 -9 -5 -22 -7 -27 -4 -6 4 -11 -10 -12 -32 -2 -61 -3 -63 -16 -72 -7 -4
-10 -15 -7 -23 4 -9 1 -19 -5 -23 -7 -4 -8 -11 -2 -18 5 -7 13 -23 17 -37 7
-24 6 -24 -11 -8 -17 16 -19 16 -41 -9 -13 -14 -21 -28 -17 -32 4 -3 9 0 11 7
3 6 14 12 25 12 15 0 18 -4 12 -22 -3 -13 -12 -29 -18 -37 -6 -8 -10 -24 -8
-35 2 -17 1 -18 -7 -6 -7 10 -10 3 -13 -30 -3 -48 -17 -59 -42 -34 -13 13 -20
14 -31 4 -8 -7 -12 -16 -9 -21 3 -5 0 -17 -5 -26 -6 -10 -11 -14 -11 -9 0 6
-7 1 -15 -10 -13 -15 -12 -11 1 16 10 19 17 49 15 67 -1 17 3 34 9 38 6 4 8
15 5 26 -5 14 -2 17 9 13 8 -3 19 3 26 15 8 16 8 21 -2 21 -6 0 -3 6 8 14 10
8 19 20 19 28 1 31 17 98 24 98 4 0 20 28 35 63 15 34 34 74 42 90 8 15 12 32
8 39 -4 7 -3 8 4 4 7 -4 12 -18 12 -32z m1590 -698 c0 -2 3 -12 7 -22 4 -11 3
-15 -4 -11 -12 8 -24 -16 -19 -35 1 -7 1 -10 -1 -5 -11 18 -21 -7 -16 -38 4
-28 2 -35 -11 -35 -9 0 -16 -7 -16 -15 0 -8 6 -15 13 -15 8 0 8 -3 -2 -9 -8
-5 -15 -20 -17 -33 -1 -12 -3 -23 -4 -23 -2 0 -7 -22 -13 -50 -2 -8 -12 -22
-23 -32 -11 -10 -28 -38 -38 -62 -14 -36 -15 -46 -4 -52 21 -14 31 -10 18 6
-7 9 -10 19 -6 22 4 4 11 1 16 -7 8 -13 10 -12 10 2 0 22 19 33 33 19 7 -7 7
-11 1 -11 -13 0 -34 -44 -34 -71 0 -11 6 -22 14 -25 10 -4 3 -18 -28 -50 -23
-24 -46 -44 -49 -44 -12 0 -71 -60 -65 -66 3 -3 13 2 21 11 18 17 37 20 37 5
0 -5 -7 -10 -16 -10 -13 0 -15 -6 -10 -27 5 -21 4 -24 -4 -13 -8 12 -10 12
-10 -5 0 -15 10 -25 35 -34 34 -12 35 -15 33 -54 -2 -23 -10 -48 -18 -55 -8
-8 -10 -11 -5 -8 6 2 17 1 24 -3 9 -6 1 -11 -23 -15 -39 -8 -46 -20 -18 -35
13 -8 14 -12 5 -22 -10 -10 -16 -9 -32 5 -12 11 -21 14 -26 7 -3 -6 -1 -11 4
-11 6 0 11 -5 11 -11 0 -7 -10 -9 -25 -7 -14 3 -28 1 -31 -3 -3 -5 -1 -9 4 -9
5 0 14 -11 20 -25 11 -24 11 -25 -18 -20 -16 3 -32 1 -35 -5 -3 -6 1 -7 10 -4
14 6 14 3 3 -22 -18 -44 -30 -53 -23 -19 l6 30 -25 -29 c-14 -17 -23 -33 -20
-37 2 -4 -1 -11 -7 -15 -8 -4 -7 -9 2 -15 10 -6 8 -9 -8 -9 -13 0 -23 -4 -23
-10 0 -6 -30 -10 -71 -10 -64 0 -70 2 -64 18 4 9 12 35 18 57 5 22 15 51 21
64 11 23 11 23 18 -10 3 -18 4 -37 2 -41 -2 -3 0 -9 6 -13 5 -3 10 1 10 10 0
9 4 13 10 10 5 -3 12 5 16 19 3 13 12 27 19 30 7 2 16 23 20 45 6 37 14 46 38
42 4 0 7 7 7 17 0 10 5 23 11 29 6 6 15 29 19 51 6 34 5 39 -9 35 -9 -3 -3 6
12 20 22 20 27 30 21 52 -8 32 -28 42 -49 25 -13 -11 -14 -10 -10 3 4 8 14 17
23 20 9 3 26 8 36 13 17 6 18 4 12 -19 -6 -26 10 -49 19 -25 7 19 -20 104 -29
90 -4 -7 -15 -12 -24 -12 -14 0 -14 3 4 18 12 9 24 30 28 45 4 15 11 25 16 22
6 -3 7 1 4 9 -3 9 -10 16 -15 16 -5 0 -2 14 7 31 8 17 17 40 19 50 21 107 60
199 85 199 4 0 11 12 14 26 4 14 16 35 26 47 12 12 18 28 14 39 -4 13 -1 16
10 12 11 -4 16 -1 16 10 0 9 7 16 16 16 9 0 14 6 11 13 -3 8 -1 20 4 28 6 10
9 10 9 2 0 -7 5 -13 10 -13 6 0 10 8 10 18 0 10 3 22 7 25 7 8 23 9 23 3z
m-878 -868 c-9 -9 -12 -9 -12 0 0 7 -5 12 -11 12 -8 0 -8 -4 -1 -13 8 -9 7
-20 -2 -39 -8 -14 -10 -31 -6 -38 8 -12 22 11 24 40 1 8 8 15 16 15 8 0 17 9
20 20 3 14 14 20 35 22 17 0 37 3 45 5 8 1 16 -1 18 -7 1 -5 -1 -10 -5 -10 -5
0 -17 -6 -28 -12 -15 -9 -17 -14 -7 -26 10 -12 8 -23 -10 -58 -27 -51 -53 -65
-46 -25 3 15 1 29 -3 32 -14 8 -11 -50 3 -64 9 -9 9 -12 0 -12 -7 0 -12 -7
-12 -16 0 -9 5 -12 12 -8 7 5 9 2 5 -8 -3 -9 0 -21 6 -28 10 -10 7 -10 -10 -1
-19 9 -22 9 -17 -3 3 -8 15 -17 27 -21 22 -7 22 -7 -3 -15 -23 -6 -21 -8 15
-12 22 -3 -13 -5 -77 -6 -73 -1 -118 2 -118 8 0 6 -7 10 -15 10 -21 0 -19 17
5 30 11 6 20 21 20 34 0 13 7 26 15 30 8 3 12 12 9 21 -3 8 -2 15 4 15 5 0 12
8 15 18 3 9 14 30 24 46 13 21 15 30 6 33 -7 3 -13 12 -13 21 1 15 2 15 11 0
15 -26 30 -22 23 6 -4 18 -1 25 13 28 25 6 40 -9 25 -24z"/>
<path d="M1531 3236 c-9 -11 -9 -15 0 -18 9 -3 9 -11 1 -33 l-10 -30 -1 28
c-1 15 -6 27 -12 27 -6 0 -8 -8 -5 -17 3 -10 -1 -39 -8 -64 -8 -25 -13 -60
-12 -78 1 -20 -2 -31 -11 -31 -17 0 -17 -19 0 -26 11 -4 12 -14 4 -47 -9 -40
-14 -55 -52 -139 -10 -21 -15 -45 -11 -53 3 -9 0 -15 -10 -15 -10 0 -14 -8
-12 -27 2 -22 -1 -28 -14 -27 -10 1 -18 -4 -18 -12 0 -8 -5 -14 -12 -14 -9 0
-9 -3 0 -12 10 -10 17 -10 32 0 26 16 33 15 27 -2 -3 -8 -1 -17 6 -20 7 -2 4
-5 -5 -5 -24 -1 -23 -22 2 -28 11 -3 20 -9 20 -14 0 -5 7 -6 15 -3 11 5 12 10
3 24 -15 23 5 50 34 47 12 -1 23 4 25 11 3 7 -3 12 -14 12 -17 1 -17 1 0 14 9
7 17 19 17 27 0 10 3 10 12 1 7 -7 17 -12 23 -12 5 0 3 5 -5 10 -12 8 -10 10
10 11 17 1 19 3 8 6 -27 7 -21 23 8 23 14 0 23 4 19 10 -3 6 -15 10 -27 10
-18 0 -19 2 -7 17 12 14 10 14 -13 -1 -22 -14 -28 -15 -28 -5 0 8 -9 -1 -20
-18 -24 -39 -33 -42 -28 -8 2 13 -1 24 -7 25 -5 0 -10 -4 -10 -9 0 -5 -3 -13
-7 -17 -19 -19 -5 26 17 57 14 19 24 42 21 51 -2 10 0 20 5 23 4 3 6 12 3 19
-8 20 14 30 32 15 12 -10 13 -9 8 5 -3 9 -1 16 5 16 6 0 11 7 11 16 0 10 -6
14 -14 11 -10 -4 -9 4 4 31 10 21 17 54 15 74 -1 21 1 38 4 38 10 0 13 128 3
134 -6 3 -15 0 -21 -8z"/>
<path d="M5080 2831 c5 -11 10 -28 10 -39 0 -11 25 -43 56 -71 41 -38 54 -55
46 -63 -8 -8 -21 -3 -47 16 -40 31 -55 28 -48 -8 5 -25 16 -38 72 -89 37 -34
39 -49 9 -62 -13 -6 -22 -16 -20 -23 1 -7 -4 -20 -13 -28 -10 -11 -15 -38 -17
-87 -2 -94 -1 -92 -17 -111 -12 -14 -11 -24 8 -72 12 -32 21 -79 21 -111 0
-33 5 -60 14 -69 8 -7 17 -19 19 -26 4 -10 8 -10 16 2 9 12 11 12 16 -2 4 -9
2 -25 -4 -35 -6 -11 -11 -13 -11 -5 0 7 -5 10 -10 7 -6 -4 -8 -11 -4 -16 8
-14 -32 -74 -73 -106 -35 -29 -35 -29 -19 -61 18 -35 21 -56 6 -47 -5 3 -10 0
-10 -7 -1 -9 -5 -8 -14 4 -11 15 -14 14 -29 -12 -21 -35 -22 -82 -1 -122 13
-25 14 -35 3 -54 -7 -13 -20 -26 -31 -30 -25 -7 -23 -23 5 -34 20 -8 19 -9
-11 -9 -32 -1 -33 -2 -31 -43 1 -24 -1 -53 -4 -65 -3 -13 -1 -26 5 -29 15 -10
28 17 21 45 -5 20 -3 23 11 18 9 -4 15 -3 12 2 -3 5 0 11 8 14 9 4 12 14 9 25
-2 11 0 23 5 26 6 3 8 16 4 28 -4 15 -2 19 7 13 7 -4 11 -18 8 -32 -3 -18 -1
-23 9 -19 18 7 18 -9 0 -27 -13 -12 -13 -17 0 -36 8 -11 12 -26 8 -32 -4 -7 0
-9 12 -5 11 3 28 -1 38 -9 19 -15 19 -15 1 -28 -10 -8 -15 -19 -11 -25 4 -7 2
-12 -3 -12 -6 0 -11 -9 -11 -20 0 -16 -7 -20 -30 -20 -20 0 -30 5 -30 15 0 9
-11 21 -25 27 -21 9 -27 8 -38 -6 -7 -10 -21 -16 -31 -14 -10 1 -22 -4 -26
-12 -19 -36 -35 -109 -35 -160 0 -49 2 -55 20 -53 11 1 23 -4 28 -10 5 -7 6
-3 2 11 -4 13 -2 22 4 22 6 0 12 10 12 23 1 16 2 18 6 5 2 -10 9 -18 14 -18 6
0 7 5 4 10 -3 6 4 10 15 10 16 0 20 5 16 15 -3 8 -1 15 4 15 6 0 10 9 10 19 0
11 5 21 12 23 7 3 3 12 -10 24 -20 18 -20 20 -2 20 10 0 17 -3 14 -7 -2 -4 8
-14 22 -24 21 -14 25 -22 20 -46 -5 -28 8 -42 17 -16 2 6 11 -5 20 -26 l17
-38 -41 -40 c-22 -21 -38 -43 -35 -48 3 -5 -1 -14 -10 -21 -8 -7 -13 -19 -10
-26 3 -7 1 -16 -5 -19 -5 -4 -7 -10 -4 -15 3 -5 0 -12 -6 -15 -6 -4 -13 2 -16
14 -3 12 -8 21 -12 21 -4 0 -7 9 -7 20 0 14 7 20 23 20 13 0 23 5 23 11 0 6
-7 9 -15 5 -8 -3 -14 -2 -12 2 1 4 -1 7 -4 7 -3 0 -13 6 -22 14 -15 12 -19 9
-31 -20 -16 -39 -13 -48 9 -29 19 16 20 6 0 -14 -20 -19 -9 -52 11 -35 8 7 17
10 19 7 3 -3 -6 -11 -20 -18 -28 -15 -33 -30 -10 -30 17 0 21 -35 5 -45 -6 -4
-7 1 -3 11 5 14 3 16 -11 11 -10 -4 -22 -7 -27 -7 -5 0 -9 -7 -9 -15 0 -8 -4
-15 -10 -15 -18 0 -32 -40 -19 -56 20 -24 -6 -15 -31 11 -30 32 -39 32 -38 -4
1 -15 -2 -33 -6 -39 -25 -40 -65 -259 -45 -247 15 10 10 -12 -6 -29 -14 -14
-35 -59 -35 -76 0 -4 8 -11 17 -14 19 -8 33 9 33 42 0 12 5 22 10 22 6 0 8 11
4 26 -5 19 -4 25 5 20 6 -4 11 -3 11 3 0 5 3 17 7 27 5 13 3 16 -10 11 -9 -3
-19 -2 -22 3 -4 6 2 10 12 10 15 0 15 2 3 10 -12 7 -12 12 4 29 10 11 23 19
30 18 6 -1 11 10 11 25 0 17 13 40 34 62 19 20 32 36 29 36 -4 0 -13 3 -22 6
-10 4 -16 1 -16 -9 0 -9 -4 -18 -10 -22 -5 -3 -5 7 2 25 6 19 17 30 27 29 31
-3 41 1 41 17 0 26 58 77 78 68 16 -7 16 -7 0 -11 -20 -5 -25 -23 -7 -23 6 0
9 -7 5 -15 -7 -19 4 -19 40 0 20 10 23 15 12 15 -10 0 -18 5 -18 12 0 6 3 8 7
5 3 -4 15 8 26 25 12 21 15 34 8 36 -6 2 -11 11 -11 20 1 15 2 15 14 0 16 -22
32 -23 39 -4 4 9 14 12 27 9 12 -3 19 -11 16 -19 -5 -14 31 -61 40 -51 3 3 0
16 -7 28 -9 18 -9 24 1 27 7 3 -1 11 -19 18 -38 16 -41 50 -11 107 24 44 24
47 5 47 -10 0 -15 10 -15 28 1 23 2 24 11 10 5 -10 18 -18 28 -18 10 0 24 -7
31 -15 9 -11 16 -12 30 -3 14 9 22 9 36 -3 16 -12 17 -12 11 4 -3 9 -2 17 3
17 6 0 10 7 10 16 0 14 2 14 15 0 9 -8 12 -22 8 -32 -4 -11 -3 -15 4 -11 15 9
44 -3 37 -14 -9 -15 16 -79 32 -79 8 0 14 -7 14 -15 0 -8 -6 -15 -13 -15 -9 0
-12 -11 -9 -35 3 -27 1 -35 -12 -35 -9 0 -16 -4 -16 -8 0 -5 -12 -14 -26 -21
l-27 -12 22 -20 c11 -11 21 -21 21 -22 0 -7 -80 -3 -80 4 0 4 7 6 15 3 18 -7
20 12 3 19 -9 4 -10 8 -2 14 15 11 27 45 25 66 -2 15 2 17 17 13 17 -6 19 -3
15 14 -3 11 -9 20 -14 20 -5 0 -10 21 -10 48 -1 27 -4 37 -6 22 -3 -13 -16
-37 -29 -53 -13 -16 -24 -33 -24 -40 0 -6 -10 -1 -23 11 -26 24 -57 31 -39 9
7 -8 7 -18 2 -27 -6 -8 -10 -22 -10 -30 1 -10 7 -8 20 9 13 15 20 18 20 9 0
-8 -6 -20 -12 -27 -7 -6 -13 -34 -13 -61 0 -33 4 -50 13 -50 22 0 13 -16 -15
-27 l-28 -11 28 -1 c25 -1 27 -4 21 -23 -5 -13 -7 -33 -6 -45 0 -13 2 -36 3
-53 1 -17 8 -30 16 -30 7 0 13 -5 13 -11 0 -5 -4 -8 -9 -4 -5 3 -12 1 -16 -5
-3 -5 -1 -10 4 -10 6 0 11 -7 11 -15 0 -17 9 -19 29 -6 11 7 11 15 3 39 -6 17
-8 33 -5 36 12 11 23 6 24 -11 0 -16 2 -15 10 2 5 11 18 34 28 50 11 17 20 36
20 44 1 8 9 23 18 33 14 16 15 21 4 28 -8 4 -11 15 -7 25 3 10 1 23 -4 31 -8
9 -7 20 5 41 11 20 14 22 10 6 -3 -12 -3 -33 1 -47 5 -20 12 -26 34 -26 23 0
27 -3 23 -24 -3 -15 4 -32 21 -51 14 -15 26 -39 26 -51 0 -13 4 -24 9 -24 5 0
4 -11 -2 -25 -16 -33 -31 -32 -23 1 5 17 3 23 -4 19 -5 -3 -10 -13 -10 -21 0
-8 -9 -14 -20 -14 -21 0 -27 -15 -10 -25 6 -3 10 -1 10 4 0 19 18 12 25 -9 3
-11 11 -20 17 -20 6 0 9 3 5 6 -5 6 16 34 25 34 2 0 3 -25 1 -55 -1 -34 1 -53
7 -50 13 8 13 1 -1 -29 -9 -19 -9 -29 0 -40 17 -20 -7 -129 -26 -121 -7 2 -13
-2 -13 -10 0 -8 -4 -15 -10 -15 -5 0 -10 -13 -10 -30 0 -30 -14 -41 -23 -17
-4 8 -12 4 -26 -13 -11 -14 -21 -19 -21 -12 0 6 -5 12 -11 12 -5 0 -7 -5 -3
-11 3 -6 1 -15 -6 -19 -7 -4 1 -10 22 -15 33 -8 33 -8 6 -12 -19 -3 -30 -12
-34 -29 -6 -22 -11 -24 -69 -24 -54 0 -63 3 -61 17 1 12 -7 19 -24 20 -14 1
-19 0 -12 -3 6 -3 12 -12 12 -20 0 -10 -15 -14 -60 -14 -38 0 -60 4 -60 11 0
8 -4 8 -12 2 -7 -5 -53 -10 -103 -10 -49 0 -82 2 -73 4 10 3 15 10 11 19 -3 8
0 21 7 29 6 8 9 19 5 25 -11 17 -47 -20 -42 -42 4 -13 -1 -18 -16 -19 -21 0
-21 -1 -2 -9 13 -6 -13 -8 -73 -8 -51 0 -96 -2 -99 -6 -3 -3 173 -5 393 -5
219 1 383 4 364 8 -23 4 -31 9 -22 14 7 5 10 13 7 18 -4 5 3 9 14 9 12 0 21
-6 21 -12 1 -7 11 0 24 16 17 21 29 27 42 22 15 -6 13 -1 -6 20 l-25 27 25 -6
c14 -4 30 -7 37 -7 7 0 10 -7 7 -15 -4 -8 -2 -15 4 -15 6 0 8 -16 5 -40 l-6
-40 104 1 c57 1 96 3 87 6 -10 2 -18 9 -18 14 0 5 -7 9 -15 9 -8 0 -15 7 -15
16 0 11 -6 14 -20 9 -13 -4 -20 -2 -21 7 0 7 -4 5 -8 -5 -13 -33 -24 -13 -26
48 -2 33 -1 50 2 38 6 -32 18 -29 37 11 21 45 20 58 -6 92 -13 15 -17 25 -11
21 9 -6 11 1 7 25 -2 18 -6 52 -8 74 -2 23 -6 46 -9 51 -7 11 -21 130 -19 166
1 29 -43 107 -60 107 -5 0 -7 4 -4 8 3 5 -1 20 -8 34 -10 18 -13 49 -9 98 3
60 1 76 -14 92 -11 12 -20 44 -25 86 -4 37 -10 85 -13 107 -4 22 -6 66 -6 97
1 31 -3 59 -9 63 -5 3 -10 21 -10 39 0 20 -8 40 -20 51 -13 12 -20 33 -22 69
-4 72 -26 71 -60 -4 -16 -32 -28 -66 -28 -74 0 -8 -4 -18 -10 -21 -13 -8 -13
-52 0 -60 6 -4 8 -15 5 -25 -3 -10 0 -20 8 -23 19 -7 19 -57 1 -57 -8 0 -14
-8 -14 -17 -1 -24 -25 -55 -35 -45 -4 4 -5 -6 -1 -23 4 -16 3 -25 -1 -20 -9
12 -28 13 -39 3 -16 -17 -20 -5 -20 57 1 43 -3 66 -11 70 -15 5 -17 44 -3 65
6 10 4 20 -7 32 -11 12 -12 18 -4 18 15 0 5 81 -12 92 -6 3 -12 15 -13 25 -2
10 -6 32 -9 50 -6 33 5 60 39 100 15 17 22 20 33 12 7 -6 13 -18 13 -26 0 -9
6 -13 15 -10 9 4 21 -8 36 -38 25 -50 29 -52 51 -27 18 20 36 108 20 98 -15
-9 -2 37 14 50 7 6 9 16 4 23 -10 18 -30 5 -30 -20 0 -10 -7 -19 -15 -19 -18
0 -32 49 -17 59 6 4 -5 17 -26 31 -20 13 -38 24 -38 25 -1 0 -4 10 -8 21 -5
15 1 28 18 45 18 17 22 27 14 36 -7 9 -7 13 0 13 6 0 17 -8 24 -19 10 -14 16
-16 25 -6 6 7 7 18 3 25 -5 7 -3 21 3 32 9 15 9 20 -2 27 -11 7 -11 9 0 13 17
6 4 38 -16 38 -8 0 -15 -8 -16 -17 0 -11 -3 -13 -6 -5 -2 6 -12 12 -20 12 -13
0 -14 8 -9 43 4 23 11 46 17 51 5 6 9 15 9 20 -1 6 -12 -2 -26 -19 -17 -19
-24 -23 -20 -11 4 10 2 24 -4 31 -8 9 -6 25 5 56 27 72 27 75 16 116 -8 30
-18 42 -35 47 -28 7 -41 33 -25 52 6 7 8 18 5 23 -4 5 2 14 11 20 10 6 13 11
6 11 -8 0 -7 9 3 30 9 16 12 35 9 41 -4 5 1 17 11 24 18 13 18 14 2 15 -11 0
-18 8 -18 21 0 16 4 19 20 14 23 -7 25 -2 8 28 -7 12 -12 31 -12 41 -1 33 -21
27 -38 -11 -9 -21 -17 -30 -17 -20 -1 9 -7 17 -13 17 -9 0 -9 3 1 9 12 8 12
12 2 24 -10 13 -8 17 10 22 28 9 67 -12 71 -38 4 -24 28 -35 28 -13 0 9 7 16
15 16 9 0 15 -10 15 -26 0 -31 20 -28 37 6 6 13 19 27 27 32 12 7 16 4 16 -12
0 -12 -4 -18 -10 -15 -5 3 -10 1 -10 -4 0 -6 5 -11 10 -11 18 0 11 -20 -16
-45 -21 -20 -29 -22 -44 -13 -14 9 -22 9 -34 -1 -21 -18 -20 -34 5 -83 17 -34
19 -45 10 -66 -15 -31 -10 -35 23 -22 31 11 49 4 85 -34 14 -14 30 -26 36 -26
12 0 45 -31 45 -43 0 -3 -6 -7 -12 -10 -7 -2 -1 -2 15 0 15 3 27 0 27 -6 0 -6
-5 -11 -11 -11 -6 0 -1 -9 12 -19 24 -19 24 -19 31 0 11 28 16 23 12 -10 -3
-24 1 -30 21 -33 16 -4 25 0 28 11 3 13 5 13 12 -3 5 -12 5 -21 -1 -23 -13 -4
-5 -63 7 -63 5 0 9 -9 9 -19 0 -11 8 -26 18 -33 19 -15 55 -83 58 -111 1 -10
-7 -34 -17 -54 -10 -20 -21 -51 -25 -67 -5 -30 -4 -31 30 -31 19 0 41 6 48 13
9 9 9 12 -5 12 -9 0 -17 -6 -18 -12 0 -7 -4 -4 -9 7 -11 25 -12 44 -2 29 8
-14 52 0 52 16 0 18 17 11 23 -9 3 -13 0 -18 -8 -15 -15 6 -20 -92 -5 -101 5
-3 10 0 10 7 1 7 12 0 25 -17 13 -16 28 -26 32 -21 4 4 -3 16 -17 26 -20 15
-23 21 -12 32 10 10 14 9 18 -10 6 -23 34 -31 34 -10 0 6 3 8 6 5 4 -3 16 -1
27 4 18 10 19 9 13 -15 -7 -28 8 -36 18 -9 4 11 10 13 17 6 6 -6 4 -22 -5 -45
-9 -19 -12 -38 -9 -42 4 -3 -4 -6 -16 -6 -13 0 -19 -4 -16 -10 4 -6 3 -30 -1
-53 -4 -23 -9 -36 -12 -29 -2 9 -9 4 -18 -13 -16 -32 -18 -55 -4 -55 6 0 10
-7 10 -16 0 -9 9 -25 21 -35 11 -10 18 -22 15 -27 -9 -15 23 -23 45 -12 11 6
19 7 19 1 0 -5 -13 -14 -30 -20 -31 -10 -37 -20 -21 -36 5 -6 11 -21 13 -35 2
-14 10 -25 18 -25 8 0 14 6 12 13 -1 6 2 12 8 12 5 0 10 5 10 11 0 5 -6 7 -12
4 -7 -4 -4 1 7 10 11 9 20 25 20 37 0 12 6 23 13 25 7 3 12 -4 12 -18 0 -22 0
-22 29 5 16 16 27 34 24 41 -3 10 2 12 19 8 l23 -6 -23 26 c-22 23 -22 26 -6
35 9 5 25 7 34 5 13 -4 18 2 19 21 1 14 2 32 3 39 2 31 -14 153 -23 163 -5 7
-8 47 -7 90 l3 79 -27 3 c-16 2 -28 7 -28 12 0 15 -31 20 -43 7 -26 -28 -36
-54 -25 -65 6 -6 8 -16 6 -23 -3 -10 -10 -7 -23 8 -21 24 -28 108 -8 91 7 -5
17 -7 23 -3 12 7 14 35 1 35 -4 0 -7 12 -5 28 2 15 1 21 -2 15 -3 -7 -10 -13
-15 -13 -15 0 -10 37 7 54 8 9 12 16 8 16 -4 0 0 8 8 18 29 34 32 45 9 37 -25
-8 -27 -2 -5 19 8 9 11 16 5 16 -6 0 -11 7 -11 15 0 8 5 15 11 15 20 0 69 55
69 78 0 12 9 30 19 39 11 9 18 20 15 25 -3 4 2 5 10 2 10 -4 16 -1 16 9 0 8 8
21 17 28 14 12 16 12 8 0 -6 -11 -4 -13 9 -8 10 4 25 -1 38 -13 18 -16 19 -20
5 -20 -8 0 -18 -4 -22 -9 -6 -11 21 -41 38 -41 7 0 6 5 -3 11 -13 9 -13 10 0
6 18 -4 18 -20 1 -64 -7 -18 -19 -33 -27 -33 -9 0 -14 -11 -14 -31 0 -17 -11
-50 -25 -74 -17 -27 -22 -46 -15 -50 5 -3 10 -1 10 5 0 7 7 9 16 6 13 -5 15
-1 10 20 -6 21 -4 25 8 21 9 -4 17 1 21 13 3 10 12 20 19 23 10 4 12 -5 11
-34 -2 -37 4 -47 19 -32 14 14 35 11 35 -5 -1 -44 10 -77 35 -109 27 -34 27
-34 10 -61 -10 -15 -19 -30 -20 -34 -1 -5 -3 -10 -4 -13 -9 -19 -2 -73 12 -87
15 -15 18 -14 42 20 33 47 34 34 1 -18 -24 -37 -24 -41 -8 -47 10 -3 23 -9 28
-11 6 -3 4 1 -3 10 -14 17 -8 41 18 75 16 20 19 21 45 7 32 -17 35 -17 35 -5
0 5 -9 13 -20 16 -28 9 -25 34 6 45 14 6 24 16 22 22 -3 7 4 21 13 33 10 11
25 29 33 40 14 19 15 19 22 2 4 -12 -1 -26 -16 -42 -12 -13 -19 -28 -16 -33 3
-5 -2 -31 -10 -56 -9 -26 -14 -57 -12 -71 4 -17 1 -22 -9 -18 -8 3 -13 2 -12
-3 1 -5 0 -13 -1 -19 -4 -13 -9 -73 -10 -104 0 -14 6 -29 13 -34 8 -5 4 -6 -9
-2 -17 4 -23 0 -28 -21 -4 -14 -14 -33 -21 -41 -17 -16 -20 -43 -6 -43 5 0 15
14 23 30 7 17 19 30 25 30 18 0 16 -17 -3 -28 -14 -8 -14 -13 -4 -32 6 -12 10
-31 7 -41 -4 -15 0 -19 18 -19 13 0 26 -6 29 -12 3 -7 3 3 0 22 -6 42 -14 52
-15 19 0 -21 -2 -19 -14 11 -18 48 -18 47 11 54 17 5 24 12 20 21 -3 8 -1 15
4 15 5 0 12 9 15 20 3 11 12 20 20 20 8 0 11 7 8 19 -4 15 0 20 15 18 11 0 18
-5 15 -10 -3 -4 3 -15 13 -22 18 -14 18 -14 0 -15 -12 0 -16 -5 -12 -15 3 -8
1 -15 -5 -15 -5 0 -9 -17 -8 -37 1 -21 -1 -46 -5 -55 -5 -11 -4 -18 3 -18 6 0
11 9 11 19 0 10 7 21 14 24 11 4 13 16 9 43 -5 29 -3 36 8 32 17 -6 15 -98 -2
-109 -6 -4 -8 -12 -5 -18 4 -6 2 -11 -4 -11 -8 0 -10 -9 -6 -25 5 -18 2 -25
-9 -25 -9 0 -15 -9 -15 -24 0 -13 -7 -40 -16 -61 -14 -33 -14 -39 0 -54 9 -10
13 -26 9 -40 -4 -18 -2 -22 8 -19 8 3 23 1 34 -5 11 -6 33 -13 48 -16 l28 -6
-20 -22 c-12 -12 -21 -29 -21 -38 0 -8 -7 -15 -15 -15 -8 0 -12 -6 -9 -14 3
-7 -7 -27 -21 -45 -17 -19 -25 -38 -21 -47 5 -14 10 -12 32 11 l25 27 -7 -26
c-6 -24 -5 -25 20 -13 14 7 29 21 32 31 4 11 15 29 25 40 11 11 19 27 19 37 0
9 11 24 25 33 30 20 31 12 5 -36 -11 -20 -16 -40 -11 -43 5 -3 7 -14 4 -25 -4
-15 -9 -18 -18 -10 -9 8 -11 4 -8 -15 3 -14 -5 -45 -21 -77 -30 -60 -33 -80
-10 -71 26 10 -5 -33 -33 -46 -27 -13 -31 -51 -5 -57 18 -5 20 -47 8 -191 -3
-29 -1 -55 3 -58 5 -2 7 6 6 18 -1 12 1 31 6 42 6 17 8 16 8 -8 1 -16 7 -35
15 -43 13 -12 15 -11 19 8 3 16 5 11 6 -12 0 -19 1 -45 2 -56 0 -18 6 -22 35
-21 19 1 34 5 34 9 0 4 -4 8 -10 8 -15 0 -12 21 7 42 15 17 15 18 -8 18 -16 0
-20 3 -11 8 7 5 11 15 9 23 -2 8 -2 10 1 6 2 -4 10 -3 18 4 11 9 14 8 14 -4 0
-8 7 -14 15 -13 18 3 42 45 49 84 2 15 5 28 6 30 7 7 5 29 -3 40 -7 8 -5 12 7
12 20 0 21 16 0 24 -8 3 -13 10 -10 15 3 5 -2 8 -11 7 -9 0 -18 5 -20 12 -3 9
2 12 13 10 22 -4 32 29 13 46 -9 8 -10 8 -4 -3 5 -9 4 -12 -3 -8 -5 4 -8 16
-5 27 5 19 14 24 40 21 7 -1 9 7 6 19 -3 11 0 20 6 20 6 0 11 -8 11 -19 0 -10
7 -24 15 -31 13 -10 19 -10 34 4 16 15 19 15 24 1 6 -13 -4 -20 -25 -16 -5 0
-8 -3 -8 -9 0 -5 -7 -10 -15 -10 -8 0 -16 -6 -16 -12 -1 -7 -3 -25 -4 -40 -3
-18 1 -28 13 -31 13 -4 13 -5 2 -6 -19 -1 -22 -112 -2 -118 11 -4 16 11 15 44
-1 7 6 13 13 13 10 0 14 -8 11 -24 -3 -29 -26 -58 -38 -50 -5 3 -6 -2 -3 -10
3 -8 -1 -39 -10 -70 -18 -60 -20 -102 -7 -110 4 -3 6 -17 3 -32 -3 -16 1 -29
9 -35 11 -6 11 -11 1 -21 -6 -6 -12 -27 -12 -45 0 -25 3 -31 16 -26 8 3 13 12
10 19 -3 8 1 14 10 14 11 0 14 10 12 36 -1 23 3 40 13 48 8 6 18 19 22 30 6
14 14 17 37 12 24 -4 30 -2 30 11 0 9 8 25 17 35 15 17 15 20 3 28 -13 8 -12
10 3 10 10 0 17 8 17 18 0 10 4 22 9 28 18 19 23 54 8 54 -8 0 -17 6 -20 14
-9 22 24 105 43 111 10 3 20 15 23 25 3 11 10 20 16 20 8 0 9 -6 1 -19 -14
-27 -13 -31 5 -24 9 3 14 8 11 10 -3 3 5 14 17 24 18 15 19 18 5 19 -22 0 -33
37 -18 55 10 12 10 15 0 15 -7 0 2 14 20 30 41 39 53 38 45 -2 -6 -26 -5 -30
10 -25 9 4 19 7 21 7 2 0 4 5 4 11 0 5 -4 7 -10 4 -5 -3 -10 -1 -10 4 0 6 7
11 15 11 9 0 18 7 21 15 4 10 14 13 29 9 13 -3 26 -1 30 5 3 6 11 8 17 5 6 -4
8 2 3 17 -4 17 -3 20 3 10 11 -16 32 -6 32 15 0 9 5 12 12 8 7 -5 9 -2 5 8 -4
12 -1 14 14 11 20 -6 36 18 24 37 -5 8 -11 6 -19 -5 -10 -14 -12 -11 -12 18 0
31 2 34 18 26 10 -5 18 -7 18 -5 0 3 11 1 25 -4 21 -8 25 -7 25 10 0 11 5 20
10 20 6 0 10 6 10 13 0 6 4 18 9 26 8 12 12 12 25 2 18 -15 22 -51 6 -51 -5 0
-10 10 -10 22 0 17 -3 19 -12 10 -8 -8 -8 -15 1 -26 15 -17 7 -36 -15 -36 -8
0 -12 -4 -9 -10 10 -16 43 -11 48 8 3 9 5 -5 6 -31 2 -99 40 -19 57 120 4 35
2 44 -15 55 -27 16 -27 38 -1 38 11 0 20 5 20 11 0 6 -7 9 -15 5 -12 -4 -15 2
-15 28 0 19 5 36 12 38 18 6 -1 28 -25 28 -16 0 -18 -3 -8 -9 9 -6 10 -10 2
-16 -7 -3 -9 -15 -6 -26 4 -11 2 -19 -4 -19 -6 0 -11 -7 -11 -15 0 -8 -4 -15
-9 -15 -5 0 -12 -14 -16 -31 -7 -30 -7 -30 -32 -14 -23 15 -26 15 -39 -2 -7
-10 -14 -27 -14 -38 0 -21 -17 -45 -32 -45 -12 0 -10 44 3 57 7 7 7 13 1 17
-6 3 -14 -3 -17 -15 -10 -29 -44 -61 -57 -53 -7 5 -9 -2 -6 -19 3 -15 2 -24
-2 -22 -10 6 -22 -24 -15 -35 3 -5 -4 -25 -15 -44 -11 -20 -17 -43 -13 -52 5
-14 2 -16 -15 -12 -15 4 -22 2 -22 -8 0 -15 -18 -18 -36 -6 -18 12 -22 48 -8
73 7 13 13 35 14 49 0 14 8 30 18 37 21 13 68 146 57 162 -3 6 0 11 8 11 20 0
28 37 18 82 -10 41 -1 99 14 99 22 2 45 21 45 38 0 12 -7 18 -17 17 -15 -1
-18 7 -17 48 1 31 -2 43 -7 35 -16 -25 -10 36 7 76 12 30 13 44 4 63 -8 18 -8
28 0 36 21 21 3 86 -24 86 -12 0 -6 -28 7 -33 6 -2 9 -7 6 -11 -6 -7 -59 16
-59 26 0 8 -50 -15 -50 -24 0 -4 8 -4 18 -1 15 6 15 5 3 -10 -12 -15 -11 -17
3 -17 9 0 16 -7 16 -15 0 -8 5 -15 12 -15 9 0 9 -3 0 -12 -10 -10 -15 -10 -21
1 -15 23 -19 -2 -10 -58 5 -30 6 -57 4 -60 -3 -2 -5 1 -5 7 0 6 -6 9 -14 6 -8
-3 -12 -12 -9 -21 6 -15 -14 -62 -32 -75 -6 -5 -5 -12 5 -17 12 -9 12 -11 -3
-16 -13 -5 -14 -11 -7 -25 14 -26 12 -33 -5 -26 -18 6 -20 -16 -5 -45 6 -11 7
-19 2 -19 -9 0 -20 -25 -26 -55 -1 -5 -8 -23 -15 -40 -7 -16 -14 -63 -15 -103
-2 -63 0 -73 14 -69 8 2 22 -3 30 -11 13 -14 12 -15 -4 -9 -13 5 -19 2 -23
-13 -3 -11 -9 -20 -13 -20 -4 0 -7 -8 -6 -17 0 -11 -6 -17 -16 -17 -17 2 -23
-8 -19 -30 1 -4 -3 -14 -10 -22 -9 -11 -8 -20 5 -39 9 -14 12 -25 7 -25 -14 0
-23 -32 -11 -44 14 -14 12 -26 -5 -26 -8 0 -21 -16 -29 -35 -8 -19 -22 -38
-31 -41 -9 -4 -15 -19 -15 -40 0 -23 -5 -34 -14 -34 -8 0 -17 -9 -21 -19 -3
-11 -12 -22 -20 -25 -11 -4 -15 2 -15 22 0 21 2 24 10 12 13 -21 12 -6 -1 24
-7 14 -16 23 -20 20 -5 -3 -9 -1 -9 5 0 18 17 21 30 6 11 -14 14 -13 25 7 8
16 8 25 1 30 -7 5 -5 8 4 8 11 1 8 6 -8 20 -20 17 -22 22 -10 34 33 37 39 47
33 56 -4 6 -11 8 -16 5 -20 -13 -29 6 -14 29 9 13 13 31 9 40 -3 9 -1 22 5 30
6 7 8 22 4 31 -5 13 -3 16 6 10 16 -9 31 11 31 43 0 12 6 22 13 22 8 0 9 3 1
8 -6 4 -14 14 -17 22 -4 12 -6 11 -6 -2 -1 -16 -34 -58 -45 -58 -4 0 -8 41 -8
88 1 17 -4 32 -10 32 -5 0 -8 -7 -4 -15 3 -9 0 -15 -10 -15 -10 0 -14 8 -12
26 5 43 -27 39 -45 -5 -19 -45 -21 -136 -2 -151 13 -11 12 -14 -13 -90 -4 -12
-6 -11 -9 3 -3 11 -11 16 -19 13 -8 -3 -14 -1 -14 4 0 6 4 10 9 10 5 0 11 7
14 14 4 9 1 13 -6 10 -9 -3 -11 10 -9 46 3 37 0 50 -10 50 -9 0 -9 3 -2 8 16
10 28 52 15 52 -8 0 -8 6 -1 20 5 11 15 29 20 40 13 25 13 40 0 40 -5 0 -6 -8
-3 -17 6 -15 5 -16 -9 -3 -9 8 -12 18 -6 21 5 3 2 12 -7 19 -21 18 -22 115 0
106 8 -3 15 -1 15 5 0 6 -9 13 -20 16 -24 6 -25 12 -6 38 8 11 20 40 27 65 7
25 17 48 22 51 14 10 -1 29 -17 23 -8 -3 -17 -15 -21 -27 -7 -20 -8 -20 -14 8
-4 20 -9 26 -14 18 -5 -7 -15 -13 -23 -13 -8 0 -13 4 -10 8 11 17 15 112 5
112 -6 0 -8 4 -4 9 3 5 0 13 -5 16 -7 5 -5 12 7 21 17 13 17 14 1 9 -50 -14
-51 -15 -38 -30 7 -8 8 -15 3 -15 -6 0 -13 -18 -17 -41 -5 -33 -10 -40 -23
-35 -16 6 -16 5 0 -12 20 -22 25 -54 5 -34 -16 16 -31 15 -22 0 4 -7 -1 -6
-10 3 -17 16 -17 19 1 58 11 23 21 39 24 37 3 -3 3 10 1 28 -2 19 1 37 7 40 6
4 11 15 11 26 0 10 6 20 13 23 7 2 13 16 15 31 1 19 -3 26 -16 26 -12 0 -17 9
-18 31 -1 18 -8 36 -18 41 -9 5 -16 14 -16 21 0 8 3 7 9 -2 7 -10 9 -7 8 12
-1 14 -5 23 -9 20 -5 -2 -8 2 -8 10 0 8 10 18 23 22 13 4 17 8 10 12 -20 8
-15 22 6 16 14 -4 20 2 24 27 4 20 11 29 18 24 7 -4 10 -1 7 6 -8 25 -26 21
-36 -9 -6 -16 -19 -32 -30 -35 -11 -4 -22 -16 -25 -28 -5 -17 -9 -19 -20 -10
-10 8 -16 9 -25 0 -6 -6 -18 -8 -28 -4 -12 5 -14 10 -7 17 14 14 -5 89 -23 89
-8 0 -14 10 -14 24 0 36 -17 41 -34 9 -14 -26 -15 -27 -16 -5 0 14 -6 22 -17
22 -15 0 -14 2 3 15 18 14 18 14 -5 15 -19 0 -22 4 -17 23 3 12 6 25 6 29 0 4
7 5 15 2 20 -8 19 5 -2 28 -18 20 -4 25 15 6 6 -6 15 -8 19 -3 5 4 3 10 -3 12
-7 2 -10 13 -7 23 3 11 0 20 -6 20 -6 0 -11 -7 -11 -15 0 -8 -6 -15 -14 -15
-7 0 -26 -10 -42 -22 -15 -12 -33 -23 -38 -24 -6 -1 -18 -5 -28 -9 -21 -8 -37
33 -17 46 7 4 10 12 5 16 -4 4 -14 -1 -22 -11 -11 -16 -16 -17 -29 -6 -19 16
-19 46 1 54 11 4 13 10 6 23 -12 21 5 63 26 63 10 0 12 6 8 20 -3 11 -9 29
-12 40 -5 15 0 22 21 30 27 10 27 11 10 30 -10 11 -23 20 -30 20 -22 0 -50
-35 -47 -57 2 -13 -1 -23 -7 -23 -6 0 -11 4 -11 9 0 4 -11 6 -25 3 -31 -6 -33
-22 -2 -22 38 0 59 -22 52 -53 -8 -32 -30 -35 -45 -7 -6 11 -18 20 -28 20 -15
0 -15 2 -2 10 12 8 11 10 -7 10 -15 0 -23 -6 -23 -17 0 -13 -4 -12 -13 7 -8
14 -19 24 -25 23 -7 -2 -12 8 -12 23 0 14 4 23 10 19 6 -3 10 2 10 13 0 20
-29 52 -48 52 -6 0 -16 9 -22 20 -6 12 -16 17 -26 13 -10 -3 -17 1 -20 14 -3
12 -25 26 -57 38 -67 25 -73 25 -69 -2 2 -16 -2 -23 -12 -23 -9 0 -16 -6 -16
-14 0 -20 -22 -25 -37 -10 -18 17 -17 40 0 26 10 -9 16 -4 24 18 7 18 7 32 2
36 -5 3 -9 0 -9 -6 0 -7 -8 -6 -21 4 -12 8 -28 12 -36 9 -9 -4 -16 2 -20 15
-3 12 -15 28 -27 36 -20 13 -24 12 -33 -3 -7 -11 -8 -23 -2 -32 12 -19 11 -29
-1 -29 -5 0 -10 7 -10 17 0 9 -3 13 -7 9 -8 -7 -9 -11 -12 -37 0 -6 -8 -9 -16
-5 -8 3 -19 -3 -25 -12 -9 -14 -10 -11 -5 13 8 38 8 36 0 63 -4 12 -14 22 -22
22 -12 0 -14 7 -10 28 4 22 0 33 -16 48 -12 10 -28 17 -34 16 -7 -2 -13 2 -13
8 0 5 -10 10 -22 10 -13 0 -32 7 -42 15 -22 17 -76 20 -76 5 0 -5 -4 -10 -10
-10 -5 0 -25 -16 -44 -36 -19 -19 -37 -31 -40 -25 -3 5 -2 11 4 13 14 4 25 68
12 68 -6 0 -13 -8 -15 -17 -4 -16 -5 -16 -6 -1 0 9 -10 20 -21 23 -22 7 -27
25 -7 26 46 2 -112 37 -198 43 -16 1 -43 8 -58 14 -16 7 -39 12 -53 12 -21 0
-23 -3 -14 -19z"/>
<path d="M5461 1538 c6 -24 21 -72 34 -108 25 -67 60 -205 58 -227 0 -7 3 -10
8 -7 5 2 11 -8 15 -23 10 -40 14 -45 28 -34 9 7 17 5 29 -9 19 -22 37 -26 37
-8 0 6 3 8 6 5 4 -4 1 -13 -6 -22 -10 -12 -10 -18 0 -30 9 -11 10 -15 1 -15
-12 0 -41 -24 -41 -34 0 -8 34 6 42 18 5 6 8 0 8 -14 0 -14 1 -35 1 -47 0 -13
6 -23 14 -23 8 0 17 -5 21 -12 5 -8 2 -9 -11 -4 -24 9 -35 -9 -35 -56 0 -27 4
-38 15 -38 8 0 15 -5 15 -11 0 -6 -7 -9 -15 -5 -10 3 -15 -1 -15 -13 0 -10 7
-21 14 -24 12 -5 13 -13 6 -38 -10 -35 1 -59 27 -59 11 0 13 7 9 25 -4 14 -2
25 4 25 5 0 10 7 10 15 0 8 6 15 14 15 8 0 16 4 18 10 2 6 8 6 18 0 13 -9 13
-11 0 -21 -12 -8 -10 -9 8 -4 16 5 22 2 22 -9 0 -9 5 -16 10 -16 6 0 10 7 10
15 0 17 11 20 26 6 12 -13 54 33 44 50 -4 6 -13 8 -19 5 -6 -4 -11 -2 -11 3 0
6 4 11 10 11 5 0 14 9 20 20 11 20 5 52 -17 110 -6 14 -8 21 -12 38 -2 4 -6
-2 -11 -13 l-9 -20 -1 20 c-2 53 -55 67 -79 22 -6 -12 -9 -14 -7 -5 3 9 8 33
12 52 5 31 3 37 -17 45 -18 7 -19 10 -6 10 20 1 23 31 3 31 -8 0 -17 9 -21 19
-3 11 -17 26 -30 35 -14 9 -25 23 -25 31 0 9 -10 15 -25 15 -14 0 -25 5 -25
10 0 6 7 10 15 10 8 0 14 3 14 8 -6 37 15 42 43 10 58 -67 80 -88 94 -88 8 0
21 -15 29 -32 14 -34 50 -72 98 -103 49 -31 39 -10 -20 46 -32 30 -76 77 -98
104 -22 28 -45 53 -52 58 -6 4 -45 41 -87 82 -42 41 -82 75 -90 75 -16 0 -36
29 -60 89 -19 49 -38 71 -59 71 -12 0 -13 -8 -6 -42z"/>
<path d="M2415 864 c-4 -10 -7 -27 -6 -36 1 -10 -3 -18 -8 -18 -6 0 -11 -5
-11 -12 0 -6 -10 -23 -22 -36 -13 -14 -17 -22 -10 -18 9 5 12 -3 12 -31 1 -33
2 -36 13 -21 9 11 18 14 28 7 8 -5 20 -9 28 -9 11 0 11 3 1 15 -17 20 9 49 27
30 7 -7 9 -16 5 -20 -4 -4 -7 -10 -8 -13 -3 -23 -18 -40 -30 -35 -8 3 -14 -1
-14 -11 0 -9 6 -16 14 -16 22 0 26 -14 16 -50 -10 -36 6 -65 30 -50 22 13 40
0 40 -30 0 -39 9 -60 26 -60 8 0 14 -7 14 -15 0 -10 6 -12 18 -8 29 11 41 29
36 54 -3 15 -2 19 3 9 5 -8 15 -16 23 -18 12 -3 13 -1 3 9 -14 14 -17 30 -5
28 24 -4 32 4 32 34 1 31 1 31 13 9 10 -17 15 -20 25 -10 7 7 12 22 12 34 0
12 5 24 12 26 7 3 9 12 5 22 -4 9 -11 15 -16 11 -6 -3 -8 7 -6 24 5 36 -25 77
-43 59 -9 -9 -12 -4 -12 21 0 23 -3 30 -12 24 -7 -4 -23 -6 -35 -4 -16 2 -23
-3 -23 -14 0 -9 -5 -13 -10 -10 -6 4 -8 11 -4 16 3 6 -2 9 -12 7 -12 -2 -23 6
-29 20 -10 22 -25 30 -25 13 0 -18 -42 -19 -60 -1 -17 17 -17 19 -2 25 14 5
14 7 2 15 -13 8 -12 10 3 10 9 0 17 5 17 10 0 6 -9 10 -19 10 -11 0 -21 5 -23
12 -3 7 -8 4 -13 -8z"/>
<path d="M7753 850 c-7 -18 -7 -32 -2 -36 15 -9 10 -34 -5 -28 -9 3 -20 -3
-28 -15 -19 -31 -28 -26 -28 18 0 24 -6 44 -17 52 -15 12 -16 12 -10 -3 8 -21
-1 -50 -13 -43 -5 3 -13 -3 -19 -12 -10 -17 -11 -16 -17 4 -4 13 -11 20 -20
16 -8 -3 -11 -10 -7 -17 4 -6 -1 -5 -10 3 -21 16 -47 0 -47 -30 0 -10 -4 -20
-10 -24 -5 -3 -8 -22 -6 -43 2 -20 4 -45 5 -55 0 -10 6 -15 11 -12 6 3 10 -1
10 -10 0 -11 -5 -15 -15 -11 -18 7 -20 -5 -3 -22 17 -17 26 -15 31 6 3 9 5 3
6 -15 0 -17 6 -35 13 -39 8 -5 9 -2 5 9 -4 11 1 20 14 27 14 8 18 17 14 31 -7
23 3 24 29 4 19 -15 19 -15 -4 -40 -13 -14 -18 -25 -12 -25 21 0 13 -32 -9
-37 -16 -4 -20 -12 -16 -29 3 -16 -4 -32 -21 -49 l-25 -25 30 0 c33 0 53 16
53 42 0 10 5 18 10 18 6 0 10 -7 10 -15 0 -8 5 -15 10 -15 6 0 10 7 10 15 0 8
9 19 21 25 13 7 18 17 15 27 -4 9 -1 22 5 29 9 11 14 11 26 -2 18 -18 26 -11
42 35 13 39 8 49 -14 31 -9 -7 -19 -9 -23 -5 -4 4 -1 10 6 12 6 3 12 11 12 19
0 8 3 14 8 14 10 0 32 50 32 72 0 10 5 18 10 18 6 0 10 12 10 26 0 23 -2 25
-15 14 -9 -7 -19 -10 -23 -6 -4 4 1 12 11 17 18 11 24 49 7 49 -5 0 -10 8 -10
19 0 10 -6 23 -13 29 -10 9 -16 4 -24 -18z"/>
<path d="M5928 850 c-4 -14 -5 -37 -3 -52 2 -15 -2 -29 -9 -31 -6 -3 -13 -28
-14 -57 -2 -48 -1 -52 18 -47 17 4 20 2 15 -14 -5 -14 0 -21 18 -28 31 -12 39
-35 32 -95 -6 -45 -1 -52 29 -47 5 1 4 -5 -3 -13 -11 -13 -10 -17 3 -22 11 -4
14 -13 9 -32 -5 -22 -3 -24 13 -18 22 9 23 9 47 7 9 0 17 -8 17 -17 0 -9 -6
-14 -12 -11 -7 2 -18 -3 -25 -12 -10 -14 -14 -13 -37 8 -18 17 -26 20 -26 10
0 -22 17 -42 29 -35 13 8 34 -41 27 -61 -3 -7 -1 -13 5 -13 6 0 9 -7 5 -15 -3
-8 2 -19 11 -23 12 -7 14 -18 10 -41 -8 -38 -4 -38 31 -6 15 14 32 25 39 25
16 0 29 43 14 48 -18 6 -13 19 9 25 11 3 20 11 19 19 0 10 -2 10 -6 1 -2 -7
-9 -13 -15 -13 -6 0 -7 7 -3 18 4 9 8 32 9 51 1 26 -3 36 -21 44 -24 11 -29
22 -14 31 17 11 22 56 7 71 -7 8 -17 11 -21 7 -3 -4 -11 1 -16 11 -6 9 -18 17
-27 17 -16 1 -16 1 1 11 23 14 22 28 -3 22 -14 -4 -20 0 -20 11 0 9 -5 16 -12
16 -9 0 -9 3 -1 11 14 14 4 49 -14 49 -9 0 -13 -6 -9 -15 3 -8 0 -15 -6 -15
-7 0 -9 13 -5 35 3 19 2 35 -2 35 -5 0 -6 11 -3 25 2 15 0 25 -7 25 -6 0 -11
7 -11 15 0 9 -6 18 -14 21 -8 3 -17 20 -20 37 -5 24 -9 28 -15 18 -7 -11 -10
-9 -13 10 l-4 24 -6 -25z"/>
<path d="M2857 593 c-4 -7 -3 -21 2 -32 8 -15 6 -24 -13 -43 -13 -13 -31 -39
-40 -58 -15 -34 -15 -34 -9 -5 4 23 3 27 -7 19 -6 -7 -12 -37 -13 -67 -1 -41
-5 -53 -14 -50 -9 3 -10 10 -4 17 4 6 5 20 0 31 -6 17 -8 17 -8 3 -1 -10 -8
-18 -16 -18 -14 0 -20 -12 -16 -34 1 -4 -3 -14 -9 -20 -5 -7 -7 -16 -3 -19 3
-4 -5 -15 -17 -25 -13 -11 -20 -24 -16 -30 12 -19 37 -14 43 8 4 15 11 19 26
14 15 -5 28 3 53 30 19 21 34 40 34 44 0 8 77 92 85 92 15 0 1 -42 -25 -78
-16 -23 -30 -46 -30 -51 0 -5 -8 -17 -17 -27 -13 -13 -14 -19 -5 -22 6 -2 12
-10 12 -18 0 -8 7 -14 15 -14 8 0 15 5 15 10 0 6 5 10 11 10 5 0 7 -4 4 -10
-14 -23 25 -8 45 17 16 20 18 28 8 35 -8 5 -9 8 -2 8 7 0 14 11 16 25 6 30 1
31 -25 8 -19 -17 -19 -17 -12 7 4 14 12 28 17 31 5 3 6 13 3 21 -4 9 -1 19 4
23 6 3 9 11 5 16 -3 5 -10 7 -15 4 -12 -8 -11 6 0 25 13 20 2 34 -15 19 -10
-8 -14 -8 -14 -1 0 23 -29 -1 -32 -26 -2 -19 -10 -28 -25 -30 -16 -2 -23 2
-23 12 0 9 5 16 10 16 6 0 10 6 10 14 0 8 7 16 15 20 8 3 15 12 15 21 0 8 5
15 10 15 6 0 10 5 10 10 0 6 -6 10 -14 10 -9 0 -16 12 -18 28 -2 17 -6 23 -11
15z"/>
<path d="M7490 542 c0 -4 6 -14 13 -21 10 -11 9 -13 -5 -8 -22 8 -76 -13 -81
-32 -3 -9 -8 -25 -13 -35 -7 -17 -4 -19 29 -13 37 6 46 0 27 -19 -6 -6 1 -14
20 -21 21 -8 30 -8 30 0 0 6 10 1 23 -11 13 -12 27 -19 30 -15 12 11 8 23 -6
17 -8 -3 -19 1 -26 9 -13 17 -5 47 14 47 7 0 16 16 19 36 6 29 3 39 -15 55
-22 19 -59 26 -59 11z"/>
<path d="M1597 469 c13 -13 5 -49 -12 -49 -7 0 -20 -26 -30 -57 -15 -46 -20
-53 -26 -38 -4 11 -8 14 -8 8 -1 -15 0 -9 -11 -56 -6 -28 -5 -37 3 -34 7 2 23
0 36 -5 31 -11 71 24 71 62 0 55 11 89 28 83 12 -5 14 -2 9 12 -4 9 -2 24 4
31 9 11 8 18 -2 30 -12 15 -14 14 -20 -7 -7 -22 -7 -23 -8 -3 -1 12 -8 25 -17
28 -23 9 -29 7 -17 -5z"/>
<path d="M2090 450 c-13 -9 -13 -12 2 -20 15 -9 15 -13 2 -38 -17 -33 -18 -46
-1 -36 9 6 9 5 0 -7 -7 -8 -11 -33 -10 -55 1 -29 7 -40 21 -42 27 -6 51 -31
53 -56 0 -12 4 -33 7 -47 5 -21 2 -26 -11 -25 -10 0 -19 -8 -21 -19 -4 -17 -3
-18 14 -5 16 14 17 13 11 -8 -6 -24 -5 -24 16 -5 12 10 27 24 35 31 7 6 17 12
22 12 12 0 18 73 7 88 -8 11 -12 11 -19 0 -6 -9 -8 -4 -4 15 5 22 3 27 -12 27
-15 0 -18 5 -14 27 3 18 -1 30 -14 40 -14 10 -17 24 -15 54 2 37 1 40 -18 34
-17 -5 -21 -2 -21 14 0 11 8 22 18 24 11 3 9 5 -8 6 -14 0 -32 -4 -40 -9z"/>
<path d="M4895 436 c-14 -13 -36 -31 -48 -39 l-22 -16 25 6 c18 3 21 2 11 -5
-7 -5 -15 -31 -17 -57 -4 -57 -9 -63 -34 -47 -15 9 -19 8 -22 -6 -5 -25 15
-63 30 -57 7 2 15 -2 18 -10 10 -26 26 -16 20 13 -4 21 1 34 24 60 16 17 35
32 42 32 10 0 10 -2 -1 -9 -9 -6 -10 -11 -2 -15 6 -4 11 -4 12 1 4 25 10 81
12 98 1 11 6 26 10 33 5 7 4 12 -2 12 -6 0 -11 7 -11 15 0 22 -15 19 -45 -9z"/>
<path d="M5260 415 c0 -9 -11 -20 -25 -27 -13 -6 -22 -15 -19 -20 9 -14 -17
-38 -42 -38 -12 0 -26 -5 -29 -10 -5 -8 -11 -8 -20 0 -9 8 -14 6 -19 -5 -3 -8
0 -15 7 -15 8 0 8 -3 -2 -9 -7 -5 -11 -13 -8 -19 4 -5 -2 -17 -13 -27 -11 -10
-20 -24 -20 -32 0 -7 -4 -13 -10 -13 -5 0 -10 -7 -10 -16 0 -8 -4 -12 -10 -9
-5 3 -11 1 -11 -4 -1 -6 -2 -15 -3 -20 0 -6 -11 -19 -23 -31 -13 -11 -23 -29
-23 -40 0 -10 -4 -22 -10 -25 -38 -23 48 -35 93 -13 12 6 23 5 32 -2 8 -7 18
-9 23 -6 14 8 22 46 10 46 -6 0 -5 6 2 15 7 9 15 13 18 11 2 -3 14 14 26 37
13 23 27 42 33 42 19 0 21 9 13 53 -7 39 -6 42 16 42 12 0 26 5 29 10 3 6 -4
10 -16 10 -12 0 -19 3 -16 7 4 3 2 12 -4 19 -9 10 -7 15 5 20 9 3 16 15 16 25
0 10 7 19 15 19 8 0 15 9 15 20 0 11 -4 20 -10 20 -5 0 -10 -7 -10 -15z"/>
<path d="M7351 374 c-33 -32 -42 -47 -34 -55 8 -8 3 -29 -18 -75 -15 -35 -26
-71 -23 -79 4 -9 0 -15 -10 -15 -16 0 -30 -35 -24 -61 2 -8 -4 -13 -14 -11
-14 2 -16 -3 -11 -32 4 -28 2 -35 -13 -39 -11 -3 148 -4 351 -3 l370 1 -322 2
c-319 3 -358 8 -298 35 25 11 34 28 15 28 -17 0 -8 74 11 87 9 7 19 26 22 42
5 22 11 29 22 25 11 -5 14 -2 9 10 -4 10 0 18 10 22 12 5 13 11 6 24 -13 24
-13 33 0 25 6 -3 10 -2 10 4 0 6 6 8 14 5 8 -3 12 -13 9 -25 -3 -10 0 -19 6
-19 6 0 11 7 11 15 0 8 4 15 10 15 19 0 -2 29 -23 32 -26 4 -38 48 -13 48 14
0 14 3 -1 20 -10 11 -20 20 -23 19 -3 0 -25 -21 -49 -45z"/>
<path d="M7094 222 c2 -4 -9 -14 -26 -21 l-31 -14 21 -18 c14 -10 20 -23 16
-33 -3 -9 -1 -16 5 -16 6 0 11 5 11 10 0 6 5 10 11 10 8 0 8 -4 0 -14 -14 -17
-61 -27 -61 -13 0 6 -7 2 -15 -9 -8 -10 -14 -23 -15 -29 0 -5 5 -3 10 5 9 13
10 13 10 0 0 -13 1 -13 11 0 9 13 10 13 6 0 -2 -8 -8 -15 -13 -16 -26 -2 -44
-19 -44 -40 0 -23 3 -24 63 -23 34 1 52 4 40 6 -25 5 -40 33 -17 33 8 0 12 -4
9 -10 -3 -5 -3 -10 2 -10 4 0 13 11 19 24 10 21 9 26 -5 32 -13 5 -11 8 11 16
28 10 46 38 24 38 -7 0 -20 7 -27 16 -11 14 -10 19 7 33 22 18 38 51 24 51 -5
0 -12 -9 -15 -20 -7 -21 -25 -28 -25 -10 0 6 5 10 11 10 5 0 7 5 4 10 -3 6
-11 10 -16 10 -6 0 -8 -4 -5 -8z"/>
<path d="M1444 24 c5 -12 -98 -14 -722 -17 l-727 -2 815 -1 c448 0 780 2 737
3 -43 2 -75 8 -72 12 2 5 -5 11 -16 14 -15 4 -19 2 -15 -9z"/>
</g>
</svg>
